<svg width="331" height="242" viewBox="0 0 331 242" fill="none" xmlns="http://www.w3.org/2000/svg">
<path fill-rule="evenodd" clip-rule="evenodd" d="M84.5032 223.183C84.5032 223.183 5.66394 208.414 0.320145 188.922C-5.0236 169.431 58.2987 160.041 58.2987 160.041C58.2987 160.041 88.6632 154.907 93.3129 150.747C97.9625 146.587 190.524 148.191 235.246 115.018C279.968 81.8444 294.739 65.0224 316.848 83.8654C338.956 102.709 333.603 158.577 309.229 190.88C284.854 223.183 187.888 228.567 187.888 228.567L84.5032 223.183Z" fill="#D7FF9D"/>
<path fill-rule="evenodd" clip-rule="evenodd" d="M227.456 202.914C227.456 202.914 225.371 204.357 224.381 201.634C223.392 198.912 222.771 196.991 222.771 196.991C222.771 196.991 220.643 194.855 219.532 194.855C218.421 194.855 214.78 192.339 215.154 190.361C215.527 188.383 219.831 188.608 221.055 188.608C222.279 188.608 221.352 185.599 221.352 184.686C221.352 183.772 222.788 176.015 226.204 177.176C229.62 178.337 231.473 180.378 230.113 183.916C233.674 183.745 236.916 182.104 237.332 189.072C237.047 191.633 237.115 192.223 238.677 194.12C240.24 196.018 240.876 198.874 239.576 199.845C238.277 200.816 236.164 201.189 235.458 201.634C234.753 202.079 234.378 203.049 234.378 204.651C234.378 206.251 231.924 203.462 231.924 203.462L229.62 201.005L227.456 202.914Z" fill="white"/>
<path d="M198.4 114.076C200.77 139.401 202.746 164.764 204.324 190.151C204.511 193.15 204.624 196.405 202.908 198.876C201.757 200.533 199.934 201.588 198.115 202.468C191.459 205.686 184.124 207.238 176.81 208.337C156.872 211.334 136.456 211.153 116.575 207.804C112.64 207.141 108.649 206.327 105.18 204.361C101.711 202.394 98.7969 199.074 98.2773 195.128C93.9491 162.269 91.5264 129.16 91.0255 96.0223C90.9891 93.6217 90.9045 91.0412 89.4626 89.1185C87.9008 87.036 85.1099 86.2318 83.3455 84.3164C80.3019 81.0128 81.4469 75.3715 84.6399 72.2119C87.8334 69.0518 92.4157 67.7977 96.8176 66.875C109.677 64.179 122.914 63.2763 136.022 64.2016C136.409 65.2561 134.818 65.8475 133.693 65.849C121.378 65.8637 109.064 66.8695 96.9111 68.8532C92.458 69.5798 87.6024 70.6909 84.9049 74.2993C97.1765 78.3335 110.334 78.5636 123.254 78.6624C146.35 78.8389 169.611 78.7007 192.288 74.3263C194.306 73.937 196.495 73.408 197.747 71.7808C198.999 70.154 198.409 67.1409 196.366 66.903C178.892 64.8702 161.237 64.3805 143.676 65.4429C142.32 65.525 140.323 64.7114 140.987 63.529C157.095 62.7656 173.256 63.1195 189.316 64.588C193.628 64.9827 198.17 65.5471 201.62 68.1571C205.282 70.9273 207.107 75.9108 206.097 80.383C205.086 84.8552 201.295 88.5767 196.797 89.5128" fill="white"/>
<path fill-rule="evenodd" clip-rule="evenodd" d="M137.52 63.016C138.101 47.0573 140.467 30.9599 137.788 15.2174C137.494 13.4884 137.135 11.755 136.442 10.144C135.271 7.42239 133.136 5.12753 130.508 3.7633C129.702 3.34445 128.803 2.97082 128.311 2.20587C127.819 1.44141 128.067 0.146009 128.965 0C132.641 0.588462 135.64 3.46244 137.298 6.79902C138.957 10.1356 139.479 13.9092 139.86 17.616C141.198 30.6251 141.088 43.7831 139.533 56.7676C139.003 61.1862 138.325 65.7907 139.799 69.9891C139.354 69.8829 138.91 69.7762 138.466 69.67C137.416 67.6608 137.438 65.2814 137.52 63.016Z" fill="#E7EAEE"/>
<path d="M95.7578 223.008C94.8252 224.035 93.3739 224.582 91.9832 224.428C91.2836 224.351 90.9065 225.372 91.3072 225.942C91.7079 226.512 92.4895 226.67 93.1935 226.692C93.897 226.713 94.6369 226.652 95.2711 226.953C92.8922 228.026 90.5132 229.099 88.1338 230.172C81.2866 235.217 91.6528 233.222 93.3631 232.831C91.4562 234.724 90.1391 236.774 91.6046 236.835C90.2896 237.415 93.5593 235.966 92.6493 237.066C91.7388 238.165 91.4458 239.901 92.3887 240.973C93.9673 240.955 95.3773 239.497 95.3188 237.943C98.3392 238.522 101.439 238.696 104.507 238.459C106.289 238.321 107.646 236.363 107.204 234.657C106.761 232.952 104.711 231.872 102.998 232.378C105.2 231.392 107.286 230.157 109.201 228.705C108.681 227.924 108.161 227.144 107.641 226.365C106.848 225.175 106.033 223.963 104.889 223.095C103.744 222.228 102.186 221.755 100.827 222.237C99.4685 222.72 98.5388 224.368 99.1617 225.651C98.7374 226.174 97.8127 226.179 97.3835 225.66C96.9544 225.142 97.1446 224.251 97.7498 223.947C98.2906 223.675 98.3555 222.886 98.0384 222.376C97.7218 221.866 97.154 221.57 96.6132 221.297C95.1659 220.569 93.3081 219.87 92.0367 220.867C92.5549 221.173 93.1625 221.329 93.7667 221.312C92.9467 221.795 92.1272 222.276 91.3077 222.759C91.0186 223.025 91.6036 223.353 91.9979 223.32C93.251 223.216 94.5047 223.112 95.7578 223.008Z" fill="white"/>
<path fill-rule="evenodd" clip-rule="evenodd" d="M92.0002 223.321C93.2534 223.216 94.5065 223.113 95.7596 223.008C94.827 224.036 93.3758 224.582 91.9855 224.429C91.2854 224.351 90.9084 225.373 91.309 225.942C91.7097 226.513 92.4914 226.671 93.1954 226.692C93.8993 226.714 94.6387 226.652 95.2729 226.954C92.894 228.027 90.5151 229.1 88.1362 230.173C89.8794 230.381 91.6596 230.286 93.3704 229.895C91.4629 231.789 87.5098 230.739 86.1358 233.037C88.8765 233.36 91.695 233.025 94.2784 232.067C94.2636 232.983 93.1767 233.478 92.2544 233.602C91.3326 233.725 90.2678 233.759 89.6901 234.477C89.315 234.943 88.5742 234.8 88.001 234.612C87.0502 234.302 86.0655 233.971 85.3408 233.291C84.6162 232.609 84.2318 231.469 84.7268 230.611C85.8128 228.729 89.6602 229.842 90.3091 227.774C90.4713 227.256 90.341 226.698 90.2127 226.171C89.9143 224.945 89.6272 223.683 89.7973 222.434C89.9679 221.184 90.6911 219.931 91.8827 219.47C93.8851 218.695 95.9351 220.366 98.0343 220.83C99.6148 221.179 101.29 220.828 102.87 221.183C105.143 221.694 106.811 223.548 108.316 225.301C108.999 226.096 109.706 226.938 109.91 227.959C110.114 228.981 109.612 230.219 108.586 230.469C107.653 230.696 107.284 231.861 107.465 232.79C107.648 233.719 108.197 234.54 108.451 235.453C108.705 236.366 108.542 237.532 107.686 237.962C105.881 238.869 103.99 239.799 101.963 239.8C100.606 239.801 99.2791 239.381 97.9222 239.339C96.5659 239.297 95.0355 239.772 94.4637 240.984C93.889 242.203 91.8562 241.929 91.104 240.806C90.3524 239.684 90.4934 238.22 90.6635 236.887C90.7132 236.495 90.7751 236.076 91.0431 235.783C91.2623 235.543 91.5858 235.426 91.899 235.329C93.2991 234.899 94.7754 234.708 96.2409 234.77C94.9258 235.35 93.5616 235.966 92.6511 237.066C91.7407 238.166 91.4477 239.901 92.3906 240.974C93.9692 240.956 95.3796 239.497 95.3206 237.944C98.3411 238.523 101.441 238.697 104.509 238.459C106.291 238.322 107.648 236.363 107.205 234.658C106.762 232.952 104.712 231.873 103 232.378C105.202 231.393 107.287 230.158 109.204 228.705C108.683 227.925 108.163 227.145 107.643 226.365C106.85 225.176 106.035 223.964 104.89 223.096C103.745 222.229 102.188 221.755 100.829 222.238C99.4703 222.721 98.5407 224.368 99.1635 225.652C98.7393 226.174 97.8146 226.179 97.3854 225.661C96.9562 225.143 97.1465 224.252 97.7516 223.947C98.2924 223.676 98.3573 222.887 98.0402 222.377C97.7236 221.867 97.1558 221.57 96.615 221.299C95.1677 220.57 93.3099 219.871 92.0386 220.867C92.5568 221.173 93.1644 221.33 93.7686 221.313C92.9491 221.795 92.1295 222.277 91.3095 222.759C91.0205 223.025 91.6055 223.354 92.0002 223.321Z" fill="#FF0000"/>
<path fill-rule="evenodd" clip-rule="evenodd" d="M133.486 60.0313C133.361 59.546 133.543 58.9635 133.99 58.7324C134.135 59.0348 134.281 59.3371 134.426 59.6394C134.123 59.8268 133.819 60.0136 133.515 60.2004L133.486 60.0313Z" fill="#E7EAEE"/>
<path d="M97.1226 229.545C97.3158 230.5 97.2032 231.507 96.8031 232.405C97.92 232.521 99.0522 232.504 100.165 232.355C99.3929 233.529 97.4146 233.858 96.3547 232.9C95.2948 231.942 95.7122 229.943 97.1226 229.545Z" fill="white"/>
<path fill-rule="evenodd" clip-rule="evenodd" d="M134.808 37.2079C134.378 42.6638 134.2 48.1364 134.273 53.6061C134.287 54.6769 134.324 55.7948 134.879 56.7362C135.043 57.0135 134.623 57.3336 134.292 57.249C133.962 57.1644 133.762 56.8616 133.614 56.577C131.601 52.7247 132.873 48.189 132.783 43.9174C132.724 41.1373 132.079 38.2722 133.022 35.6293C133.212 35.0954 134.144 35.1357 134.513 35.5836C134.882 36.0314 134.852 36.6479 134.808 37.2079Z" fill="#E7EAEE"/>
<path d="M70.0322 173.587C70.3969 174.22 70.4024 175.07 70.045 175.708C69.6561 174.133 67.6041 173.365 66.38 174.337C65.9306 174.694 65.4439 175.26 64.9258 175.034C65.1662 174.939 65.2021 174.518 64.9818 174.378C66.0078 172.626 68.579 172.223 70.0322 173.587Z" fill="black"/>
<path fill-rule="evenodd" clip-rule="evenodd" d="M74.0511 172.002C74.0998 171.785 74.148 171.569 74.1898 171.356C74.4351 170.108 74.2896 168.523 73.1402 167.985C72.3437 167.613 71.4805 167.922 70.6182 168.231C70.2952 168.346 69.9727 168.462 69.6536 168.541C67.8597 168.989 65.8225 168.147 64.8648 166.562C64.1397 165.361 62.1315 165.989 61.4653 167.224C61.0445 168.004 60.9329 168.888 60.8208 169.776C60.7549 170.295 60.6891 170.815 60.5617 171.316C60.2156 172.677 58.9812 174.077 57.6381 173.678C56.5684 173.361 55.3211 173.784 54.6643 174.688C54.0075 175.592 53.9879 176.912 54.6176 177.835C55.3826 178.957 56.765 179.3 58.1253 179.638C58.5137 179.735 58.9006 179.831 59.2703 179.944C59.9074 180.14 60.5598 180.435 60.9245 180.994C61.2898 181.553 61.2259 182.432 60.6443 182.757C59.6911 183.29 59.7693 184.861 60.6325 185.529C61.4963 186.199 62.774 186.074 63.7169 185.523C64.6598 184.973 65.3442 184.078 66.0034 183.207C67.0176 181.865 69.1551 181.566 70.4968 182.578C70.4899 181.408 71.1545 180.256 72.1707 179.68C73.1869 179.103 74.5132 179.123 75.5112 179.73C76.3853 179.376 76.3278 178.057 75.786 177.284C75.5658 176.97 75.2949 176.692 75.0245 176.414C74.6302 176.01 74.2374 175.607 74.0074 175.095C73.5757 174.134 73.8166 173.054 74.0511 172.002ZM70.7608 178.801C70.9299 179.383 70.837 180.036 70.5125 180.547L70.6064 180.643C70.0455 180.937 69.3287 180.906 68.7953 180.565L69.3611 179.107C69.7864 178.876 70.278 178.768 70.7608 178.801Z" fill="white"/>
<path fill-rule="evenodd" clip-rule="evenodd" d="M226.503 112.154C225.931 111.476 225.358 110.798 224.758 110.147C222.908 108.139 220.641 106.307 217.942 105.9C217.658 105.857 217.37 105.83 217.082 105.803C216.502 105.749 215.923 105.695 215.373 105.509C214.638 105.26 213.999 104.789 213.408 104.286C212.607 103.605 211.835 102.837 211.061 102.066C208.786 99.8015 206.495 97.5214 203.405 97.4014C200.151 97.2751 197.096 100.197 197.074 103.457C197.056 106.192 198.825 108.573 200.513 110.724L229.854 148.136L248.046 171.333C250.395 174.328 253.483 177.643 257.25 177.121C260.637 176.652 262.911 172.674 261.946 169.391C261.575 168.129 260.845 167.028 260.113 165.925C259.474 164.962 258.834 163.998 258.431 162.925C257.789 161.214 257.795 159.378 257.801 157.533C257.805 156.121 257.81 154.704 257.524 153.335C256.89 150.303 254.894 147.756 252.863 145.419C251.763 144.154 250.599 142.281 251.649 140.977C252.9 139.423 252.276 137.13 251.486 135.298C248.951 129.419 245.271 124.038 240.713 119.545C238.761 117.621 235.922 115.748 233.48 116.991C232.451 117.514 231.22 116.871 230.324 116.144C228.891 114.98 227.697 113.568 226.503 112.154ZM247.994 136.506C248.189 137.5 248.003 138.625 247.28 139.334C247.102 139.509 246.88 139.66 246.632 139.67C246.207 139.687 245.886 139.307 245.635 138.963L234.267 123.365C233.83 122.765 234.135 121.832 234.771 121.451C235.408 121.07 236.242 121.16 236.903 121.497C237.564 121.834 238.088 122.384 238.589 122.932C241.644 126.268 244.38 129.897 246.749 133.752C247.279 134.615 247.8 135.511 247.994 136.506Z" fill="white"/>
<path fill-rule="evenodd" clip-rule="evenodd" d="M202.438 194.341C202.84 193.003 202.744 191.575 202.645 190.183L196.844 109.23C198.019 110.501 198.239 112.355 198.4 114.076C200.77 139.401 202.745 164.764 204.324 190.151C204.511 193.15 204.624 196.405 202.908 198.876C201.757 200.533 199.934 201.588 198.115 202.468C191.459 205.686 184.124 207.238 176.81 208.337C156.872 211.334 136.457 211.153 116.575 207.804C112.64 207.141 108.649 206.327 105.18 204.361C101.711 202.394 98.797 199.074 98.2774 195.128C93.9492 162.269 91.5265 129.16 91.0256 96.0223C90.9892 93.6217 90.9046 91.0412 89.4627 89.1185C88.6211 87.9967 87.423 87.2455 86.221 86.4923C85.1916 85.8468 84.1592 85.1999 83.3456 84.3164C80.302 81.0128 81.447 75.3715 84.64 72.2119C87.8335 69.0518 92.4158 67.7977 96.8173 66.875C109.677 64.179 122.914 63.2763 136.022 64.2016C136.409 65.2561 134.819 65.8475 133.693 65.849C121.378 65.8637 109.064 66.8695 96.9112 68.8532C92.4581 69.5798 87.6025 70.6909 84.905 74.2993C97.1766 78.3335 110.334 78.5636 123.254 78.6624C146.35 78.8389 169.611 78.7007 192.288 74.3263C194.306 73.937 196.495 73.408 197.747 71.7808C198.999 70.154 198.409 67.1409 196.367 66.903C178.892 64.8702 161.237 64.3805 143.676 65.4429C142.32 65.525 140.323 64.7114 140.987 63.529C157.095 62.7656 173.256 63.1195 189.315 64.588C193.628 64.9827 198.17 65.5471 201.62 68.1571C205.282 70.9273 207.107 75.9108 206.097 80.383C205.086 84.8552 201.296 88.5767 196.797 89.5128L196.608 100.518C195.381 99.2561 195.546 97.3496 195.704 95.5292C195.736 95.158 195.768 94.7903 195.787 94.4324C195.903 92.3194 194.649 89.5644 192.572 89.996C159.704 96.828 125.458 96.9897 92.5274 90.468C92.5628 121.921 95.5386 153.288 98.5118 184.601C98.8663 188.336 99.238 192.139 100.707 195.592C102.176 199.045 104.945 202.156 108.59 203.079C125.915 207.466 143.897 209.261 161.75 208.385C173.949 207.787 186.401 205.843 197.029 199.84C199.328 198.542 201.678 196.864 202.438 194.341ZM83.7398 75.6454C82.6568 79.476 84.8897 83.6331 88.1196 85.9692C91.3495 88.3059 95.3813 89.1982 99.3048 89.9208C130.874 95.7351 163.519 94.0799 195.024 87.9278C197.426 87.4588 199.943 86.9053 201.766 85.2785C203.787 83.4753 204.594 80.6013 204.432 77.9014C204.269 75.2014 203.251 72.6288 202.113 70.1742C200.483 74.1558 195.586 75.4792 191.335 76.2009C163.139 80.9858 134.368 81.7654 105.804 80.3004C102.556 80.1338 99.3033 79.9376 96.0941 79.415C91.8313 78.7204 87.6629 77.4486 83.7398 75.6454ZM101.285 182.497C100.664 181.955 99.9498 181.331 99.1677 181.537C98.8663 183.559 101.244 184.812 103.192 185.375C105.769 186.119 108.469 186.802 111.105 186.307C112.056 186.128 113.002 185.783 113.722 185.131C115.339 183.671 115.391 181.179 115.318 178.991C114.655 159.367 113.571 139.757 112.066 120.181C111.825 117.051 111.385 113.549 108.939 111.608C107.933 110.809 106.694 110.38 105.481 109.964L97.0316 107.067C95.8906 106.675 94.401 106.38 93.6709 107.347C93.2177 107.948 93.2894 108.785 93.3819 109.535C96.0926 131.598 97.6043 153.81 97.9081 176.04C97.9499 179.106 100.626 181.571 103.499 182.574C106.622 183.664 110.019 183.485 113.317 183.293C109.76 185.706 104.616 185.395 101.37 182.571L101.285 182.497ZM113.127 180.674C110.897 182.219 107.93 182.017 105.267 181.533C103.69 181.245 102.006 180.81 100.984 179.565C99.9302 178.281 99.85 176.473 99.8132 174.806C99.3181 152.51 97.7125 130.238 95.0042 108.104L103.701 111.105C105.765 111.818 107.968 112.631 109.223 114.431C110.311 115.99 110.477 117.998 110.608 119.899L112.289 144.356C113.12 156.447 113.951 168.583 113.127 180.674ZM150.142 187.653C147.491 186.942 144.767 186.503 142.026 186.345L141.886 186.338C139.884 186.223 137.625 186.094 136.389 184.537C135.804 183.799 135.562 182.856 135.345 181.942C131.035 163.81 130.625 145.015 130.235 126.386L130.047 117.414C130.035 116.793 130.011 116.135 129.669 115.614C129.328 115.094 128.547 114.809 128.063 115.2L128.846 145.964C128.901 148.116 128.956 150.269 129.082 152.418C129.661 162.304 131.738 172.034 133.809 181.719C134.335 184.182 135.404 187.167 137.916 187.457L150.509 188.91C150.614 188.922 150.721 188.934 150.822 188.903C151.439 188.713 150.766 187.82 150.142 187.653ZM195.761 172.868C195.886 176.373 195.917 180.19 193.791 182.98C196.936 180.934 197.163 176.498 197.052 172.748L196.082 139.906C195.828 131.316 195.558 122.62 193.184 114.359C192.752 112.855 192.211 111.306 191.075 110.227C189.94 109.149 188.04 108.72 186.795 109.67C184.311 111.568 181.01 111.632 177.827 111.695C177.333 111.704 176.843 111.714 176.359 111.73C172.749 111.853 168.553 112.902 167.181 116.241C166.337 118.294 166.844 120.615 167.32 122.791L167.352 122.939C169.952 134.861 170.305 147.082 170.658 159.311C170.819 164.89 170.98 170.471 171.355 176.025C171.577 179.325 171.927 182.774 173.746 185.537C174.106 186.084 174.536 186.61 175.116 186.915C175.665 187.205 176.301 187.271 176.92 187.322C180.262 187.593 183.708 187.526 186.852 186.361C189.996 185.196 192.814 182.783 193.79 179.577C194.385 177.62 194.269 175.529 194.155 173.486L194.151 173.421C193.535 162.34 193.385 151.234 193.702 140.141C193.714 139.724 193.726 139.306 193.739 138.888C193.986 130.554 194.242 121.936 190.773 114.388C190.31 113.38 189.746 112.357 188.815 111.749C188.767 111.718 188.717 111.686 188.666 111.654C188.304 111.425 187.911 111.177 187.88 110.764C188.614 110.235 189.697 110.489 190.362 111.102C191.026 111.716 191.365 112.596 191.657 113.451C192.799 116.795 193.553 120.272 193.898 123.788C194.085 125.687 194.153 127.596 194.22 129.503L195.761 172.868ZM169.081 114.894C170.385 113.387 172.6 113.159 174.591 113.037L185.117 112.395C186.172 112.331 187.322 112.292 188.182 112.908C188.771 113.329 189.129 113.996 189.432 114.653C191.87 119.927 192.133 125.912 192.253 131.72C192.588 147.914 192.131 164.124 190.884 180.274C190.75 182.014 189.377 183.463 187.792 184.197C186.206 184.93 184.423 185.08 182.682 185.22L177.819 185.61C177.218 185.658 176.583 185.699 176.043 185.432C175.251 185.041 174.903 184.118 174.648 183.272C172.02 174.539 172.009 165.383 171.998 156.206C171.993 151.403 171.987 146.594 171.606 141.836C171.059 135 169.732 128.253 168.408 121.524L168.386 121.412C167.949 119.188 167.598 116.609 169.081 114.894ZM216.801 192.661C217.712 193.565 218.881 194.214 220.138 194.512C221.213 194.768 221.904 196.045 221.52 197.068C221.55 197.216 221.317 197.294 221.194 197.205C221.088 197.129 221.047 196.999 221.006 196.873L221.006 196.871C220.999 196.852 220.993 196.832 220.987 196.813C220.682 195.912 219.69 195.461 218.806 195.085C217.554 194.552 216.275 193.934 215.442 192.869C214.608 191.805 214.368 190.172 215.25 189.146C215.828 188.475 216.737 188.197 217.594 187.953C218.738 187.626 219.937 187.296 221.102 187.537L221.368 188.059C221.919 188.395 222.693 188.324 223.173 187.893C223.705 187.414 224.517 187.45 225.236 187.515L229.114 187.868C229.303 187.885 229.503 187.906 229.657 188.015C230.116 188.34 229.749 189.126 229.206 189.281C228.816 189.392 228.41 189.316 228.004 189.24H228.004C227.846 189.21 227.688 189.18 227.531 189.161C227.337 189.138 227.133 189.133 226.951 189.208C226.409 189.43 226.375 190.182 226.544 190.736C226.573 190.832 226.605 190.929 226.638 191.026C226.795 191.493 226.957 191.975 226.776 192.42C226.273 192.645 225.686 192.187 225.535 191.663C225.419 191.264 225.468 190.847 225.515 190.431C225.519 190.399 225.523 190.366 225.526 190.334C225.53 190.306 225.533 190.278 225.535 190.251C225.539 190.215 225.543 190.179 225.546 190.144C225.55 190.108 225.553 190.073 225.556 190.038C225.597 189.494 225.509 188.873 225.064 188.55C223.262 189.399 221.228 189.76 219.239 189.586C219.082 189.572 218.925 189.555 218.767 189.538C218.264 189.483 217.759 189.428 217.257 189.48C216.597 189.549 215.92 189.839 215.584 190.403C215.842 190.566 216.034 190.829 216.109 191.122L222.454 192.347C221.983 192.858 221.184 192.864 220.484 192.832L216.801 192.661ZM159.655 175.912C158.371 160.548 157.964 145.111 158.435 129.701L158.445 129.353C158.55 125.976 158.655 122.548 157.771 119.291C156.857 115.921 154.688 112.693 151.421 111.42C149.524 110.681 147.434 110.652 145.397 110.633C140.092 110.584 134.741 110.539 129.544 111.597C127.822 111.947 125.939 112.558 125.112 114.101C124.538 115.169 124.609 116.451 124.694 117.659L129.32 183.376C129.409 184.638 129.523 185.972 130.265 187C131.035 188.067 132.338 188.6 133.591 189.013C138.908 190.766 144.627 191.297 150.178 190.554C149.673 189.838 148.695 189.673 147.822 189.567L136.978 188.257C135.886 188.125 134.76 187.982 133.806 187.437C131.496 186.118 131.029 183.06 130.812 180.42C129.082 159.245 127.35 138.064 126.439 116.838C126.39 115.689 126.446 114.326 127.411 113.691C127.9 113.37 128.514 113.324 129.098 113.287L145.042 112.28C146.843 112.167 148.704 112.061 150.399 112.676C152.746 113.526 154.427 115.658 155.385 117.954C156.847 121.457 156.877 125.367 156.828 129.16C156.793 131.89 156.729 134.623 156.664 137.357V137.358C156.418 147.809 156.172 158.271 157.562 168.617C157.628 169.117 157.699 169.622 157.769 170.13L157.77 170.133C158.597 176.072 159.479 182.413 156.269 187.386L156.238 187.433L156.215 187.469C155.975 187.838 155.724 188.224 155.713 188.66C155.7 189.13 156.122 189.639 156.577 189.514C156.755 189.465 156.897 189.333 157.026 189.201C160.295 185.857 160.043 180.561 159.655 175.912ZM134.942 72.4508C137.02 72.532 139.227 73.0329 140.658 74.5904C140.936 74.8932 141.184 75.2349 141.432 75.575C141.948 76.2844 142.462 76.9894 143.235 77.334C142.05 76.9088 140.756 76.8115 139.524 77.0553C139.096 77.1403 138.675 77.2652 138.255 77.3896C137.592 77.5867 136.929 77.7834 136.242 77.8207L137.614 76.6168C138.104 76.1861 138.659 75.7309 139.303 75.7525C139.409 74.6592 138.563 73.6194 137.536 73.3328C136.508 73.0467 135.385 73.4095 134.54 74.0771C133.695 74.7447 133.091 75.6852 132.59 76.6546C132.39 77.04 132.119 77.4909 131.695 77.4855C131.345 77.3085 131.359 76.7756 131.529 76.4132C131.578 76.3085 131.636 76.2063 131.694 76.1045V76.104H131.695C131.838 75.8523 131.981 75.6011 131.99 75.315C132.013 74.5835 131.208 74.1671 130.536 73.936C129.865 73.7049 129.053 73.499 128.513 73.9689C128.12 74.3106 128.029 74.8878 127.964 75.4138L127.743 77.2008C126.591 77.6054 125.32 77.6418 124.148 77.3036C125.535 76.4393 127.06 75.373 127.317 73.7217C129.745 72.7851 132.353 72.3505 134.942 72.4508ZM74.1898 171.357C74.4351 170.109 74.2896 168.523 73.1402 167.986C72.3437 167.614 71.4805 167.923 70.6182 168.231C70.2952 168.347 69.9727 168.463 69.6536 168.542C67.8597 168.99 65.8225 168.148 64.8648 166.563C64.1397 165.362 62.1315 165.99 61.4653 167.225C61.0445 168.005 60.9329 168.889 60.8208 169.777C60.7549 170.296 60.6891 170.816 60.5617 171.317C60.2156 172.678 58.9812 174.078 57.6381 173.679C56.5684 173.361 55.3211 173.785 54.6643 174.689C54.0075 175.593 53.9879 176.913 54.6176 177.836C55.3826 178.957 56.765 179.301 58.1253 179.639C58.5137 179.736 58.9006 179.832 59.2703 179.945C59.9074 180.141 60.5598 180.436 60.9245 180.995C61.2898 181.554 61.2259 182.433 60.6443 182.758C59.6911 183.291 59.7692 184.862 60.6325 185.53C61.4963 186.199 62.774 186.075 63.7169 185.524C64.6598 184.974 65.3442 184.079 66.0034 183.207C67.0176 181.866 69.1551 181.567 70.4968 182.579C70.4899 181.409 71.1545 180.257 72.1707 179.681C73.1869 179.103 74.5132 179.124 75.5112 179.731C76.3853 179.377 76.3278 178.058 75.786 177.285C75.5658 176.971 75.2949 176.693 75.0245 176.415C74.6302 176.011 74.2374 175.608 74.0074 175.096C73.5757 174.135 73.8166 173.055 74.0511 172.003H74.0516C74.0998 171.786 74.148 171.57 74.1898 171.357ZM71.1481 169.203C71.8482 169.042 72.683 169.123 73.1323 169.685C73.7163 170.414 73.3314 171.302 72.9298 172.229C72.6023 172.985 72.2631 173.768 72.4293 174.513C72.561 175.103 72.9971 175.569 73.4155 176.004L75.3981 178.063C74.5585 178.843 73.3983 178.524 72.2076 178.196C71.1368 177.902 70.0415 177.601 69.133 178.086C68.4679 178.442 68.0859 179.137 67.7177 179.807C67.6739 179.887 67.6306 179.966 67.5874 180.044C66.4409 182.093 64.7616 183.841 62.7607 185.066C62.5061 185.222 62.2239 185.375 61.9265 185.346C61.2008 185.275 61.0175 184.274 61.2003 183.566C61.4152 182.732 61.8532 181.958 62.2878 181.192C62.9151 180.084 63.5345 178.991 63.4627 177.749C62.6998 179.015 61.0406 179.497 59.58 179.29C58.1199 179.083 56.8048 178.321 55.532 177.575C54.653 177.059 54.9677 175.576 55.8442 175.056C56.7203 174.536 57.82 174.676 58.8283 174.823C59.8361 174.969 60.9462 175.083 61.7986 174.524C61.3783 172.652 61.4737 170.666 62.0705 168.843C62.2858 168.185 62.6 167.507 63.1919 167.15C63.7838 166.793 64.71 166.939 64.9563 167.586C65.5659 169.191 67.4207 170.209 69.0986 169.861C69.4629 169.785 69.8119 169.654 70.1615 169.523C70.4859 169.402 70.8109 169.28 71.1481 169.203ZM70.7608 178.802C70.9299 179.384 70.837 180.037 70.5125 180.548L70.6064 180.644C70.0454 180.938 69.3287 180.907 68.7953 180.566L69.3611 179.108C69.7864 178.877 70.278 178.769 70.7608 178.802ZM225.159 204.044C223.349 201.13 222.168 197.84 221.719 194.453C222.961 194.77 223.603 196.133 223.808 197.381C223.866 197.729 223.904 198.085 223.941 198.44C224.039 199.355 224.136 200.269 224.568 201.074C225.169 202.191 226.79 202.917 227.751 202.08C227.99 201.872 228.171 201.586 228.348 201.306C228.638 200.849 228.919 200.404 229.434 200.327C230.072 200.231 230.591 200.798 230.977 201.308L233.345 204.434C233.966 204.25 234.006 203.591 234.049 202.893C234.076 202.464 234.103 202.02 234.268 201.662C234.646 200.836 235.581 200.703 236.554 200.564C237.237 200.466 237.939 200.366 238.483 200.022C239.459 199.403 239.721 198.04 239.358 196.955C238.995 195.869 238.146 195.013 237.267 194.266C235.994 193.183 236.218 191.424 236.444 189.645C236.662 187.939 236.881 186.214 235.785 185.048C234.256 183.42 231.534 184.287 229.51 185.26L228.648 184.274C230.3 183.672 230.599 181.26 229.523 179.888C228.446 178.516 226.543 178.046 224.781 178.038C224.526 178.037 224.249 178.05 224.053 178.211C223.442 178.709 224.304 179.585 225.041 179.874L228.641 181.287C227.809 181.851 226.71 181.517 225.645 181.193C224.488 180.841 223.369 180.501 222.67 181.332C221.885 182.265 222.713 183.719 223.778 184.327C224.189 184.562 224.637 184.738 225.083 184.915C225.791 185.195 226.495 185.473 227.047 185.981C226.33 186.34 225.516 186.078 224.723 185.822C224.521 185.757 224.322 185.693 224.125 185.639C223.153 185.374 221.746 185.705 221.758 186.697C220.76 185.594 221.023 183.902 221.348 182.46C221.713 180.844 222.107 179.17 223.146 177.869C224.185 176.567 226.066 175.759 227.593 176.451C228.896 177.041 229.505 178.433 230.086 179.761L230.087 179.762C230.176 179.966 230.265 180.169 230.356 180.367C231.034 181.852 232.386 183.425 234.006 183.089C235.475 182.784 236.945 183.878 237.56 185.227C238.174 186.576 238.139 188.112 238.093 189.589C238.046 191.069 238.718 192.427 239.388 193.78C239.614 194.234 239.839 194.689 240.036 195.147C240.821 196.969 241.028 199.418 239.43 200.618C238.888 201.025 238.229 201.213 237.568 201.401C237.263 201.488 236.959 201.574 236.665 201.682C235.734 202.026 234.793 202.792 234.871 203.768C234.881 203.896 234.909 204.023 234.937 204.15C234.984 204.366 235.032 204.579 234.992 204.794C234.88 205.398 234.1 205.686 233.5 205.514C232.9 205.343 232.451 204.865 232.034 204.406L229.387 201.5C228.649 203.062 226.909 204.109 225.159 204.044ZM224.757 110.148C222.907 108.139 220.64 106.308 217.942 105.9C217.657 105.857 217.369 105.83 217.081 105.803C216.501 105.749 215.922 105.695 215.372 105.509C214.637 105.261 213.999 104.789 213.407 104.287C212.606 103.605 211.834 102.837 211.06 102.067C208.785 99.8018 206.494 97.5222 203.405 97.4022C200.151 97.2754 197.096 100.198 197.074 103.457C197.055 106.192 198.825 108.573 200.512 110.724L229.853 148.137L248.046 171.333C250.394 174.328 253.482 177.643 257.249 177.121C260.636 176.652 262.91 172.674 261.945 169.391C261.574 168.13 260.844 167.028 260.112 165.925C259.473 164.963 258.833 163.999 258.43 162.925C257.788 161.215 257.794 159.378 257.8 157.533C257.805 156.121 257.809 154.704 257.523 153.336C256.889 150.303 254.893 147.757 252.862 145.42C251.763 144.155 250.598 142.282 251.649 140.977C252.899 139.424 252.275 137.13 251.485 135.299C248.951 129.42 245.27 124.038 240.712 119.545C238.76 117.622 235.921 115.749 233.479 116.991C232.45 117.515 231.22 116.872 230.323 116.144C228.89 114.981 227.697 113.568 226.503 112.155C225.93 111.477 225.357 110.799 224.757 110.148ZM199.994 100.303C201.201 99.1219 203.025 98.6116 204.668 98.995C206.547 99.4331 208.002 100.889 209.272 102.342C212.624 106.178 215.451 110.432 218.272 114.677C218.587 115.151 218.902 115.625 219.217 116.098C231.082 133.891 244.06 150.941 258.047 167.115C259.416 168.698 260.891 170.649 260.356 172.672C259.751 174.963 256.734 175.852 254.51 175.041C252.286 174.23 250.705 172.282 249.239 170.422L200.851 108.974C199.889 107.754 198.899 106.473 198.581 104.952C198.236 103.298 198.787 101.485 199.994 100.303ZM239.218 136.176C238.244 134.916 237.201 133.677 235.877 132.793C235.238 132.366 234.517 131.999 233.797 131.631C231.954 130.69 230.115 129.751 229.665 127.836C229.522 127.227 229.554 126.602 229.586 125.974C229.611 125.484 229.637 124.993 229.579 124.509C229.484 123.714 229.168 122.963 228.823 122.241C226.21 116.757 221.722 112.191 216.288 109.488C215.387 109.04 215.946 107.477 216.932 107.283C217.919 107.089 218.86 107.729 219.646 108.358C227.417 114.573 233.096 122.787 238.793 131.025C242.269 136.052 245.752 141.088 249.72 145.686C250.101 146.128 250.489 146.568 250.876 147.008C253.035 149.46 255.211 151.931 256.507 154.913C254.804 155.217 253.329 156.555 252.86 158.221C250.024 155.548 248.31 151.984 246.606 148.44C246.169 147.531 245.732 146.623 245.278 145.732C243.561 142.367 241.529 139.163 239.218 136.176ZM247.279 139.334C247.101 139.509 246.88 139.66 246.631 139.67C246.206 139.687 245.885 139.307 245.635 138.964L234.266 123.365C233.829 122.765 234.134 121.832 234.771 121.451C235.408 121.07 236.241 121.16 236.902 121.497C237.563 121.834 238.087 122.385 238.588 122.932C241.643 126.269 244.38 129.897 246.748 133.752C247.279 134.615 247.799 135.512 247.993 136.507C248.188 137.501 248.002 138.625 247.279 139.334ZM248.944 137.806C249.148 137.005 248.802 136.175 248.444 135.43C245.871 130.067 242.26 125.207 237.869 121.198C237.159 120.549 236.233 119.877 235.32 120.178C234.983 120.289 234.709 120.518 234.433 120.748C234.272 120.882 234.111 121.016 233.937 121.128C233.464 121.432 232.712 121.494 232.443 121C232.235 120.618 232.452 120.139 232.743 119.815C233.742 118.697 235.501 118.544 236.907 119.063C238.313 119.582 239.442 120.642 240.503 121.702C244.324 125.518 247.888 129.817 249.558 134.956C250.303 137.249 250.539 140.064 248.864 141.798C248.725 141.942 248.57 142.079 248.38 142.145C247.782 142.354 247.157 141.716 247.142 141.082C247.128 140.447 247.519 139.881 247.926 139.393C247.969 139.342 248.013 139.29 248.057 139.238C248.426 138.801 248.804 138.355 248.944 137.806ZM224.273 116.579C225.82 118.831 227.165 121.223 228.286 123.715C228.44 124.058 228.582 124.485 228.352 124.782C228.186 124.998 227.841 125.047 227.622 124.884C224.397 120.963 221.49 116.78 218.941 112.389C219.17 112.471 219.505 112.349 219.484 112.107C221.535 112.944 223.017 114.752 224.273 116.579ZM235.575 135.59C235.291 135.178 235.05 134.521 235.479 134.263C237.37 135.119 238.663 136.885 239.841 138.594C241.56 141.086 243.22 143.618 244.822 146.187C245.205 146.802 245.536 147.724 244.947 148.147C243.943 147.692 243.268 146.743 242.641 145.835L235.575 135.59ZM254.363 158.951C254.212 158.885 254.107 158.744 254.036 158.595C253.607 157.698 254.543 156.498 255.517 156.697C255.559 157.571 255.316 158.456 254.833 159.186C254.784 159.07 254.656 159.036 254.527 159.002C254.471 158.988 254.414 158.973 254.363 158.951ZM256.567 161.055C256.27 161.379 255.692 161.378 255.395 161.054C255.081 160.232 255.46 159.205 256.233 158.785L256.567 161.055Z" fill="#00160A"/>
</svg>
