<svg width="276" height="280" viewBox="0 0 276 280" fill="none" xmlns="http://www.w3.org/2000/svg">
<path fill-rule="evenodd" clip-rule="evenodd" d="M129.987 219.643C91.0098 211.112 39.0767 194.184 47.6108 136.098C56.1449 78.0124 92.7276 55.616 137.987 55.616C183.245 55.616 234.665 89.7613 224.571 160.496C214.477 231.232 168.964 228.173 129.987 219.643ZM258.103 149.625C259.713 133.462 258.002 117.47 253.409 102.479L266.515 95.4577C268.724 94.275 269.555 91.5258 268.374 89.3172L250.48 55.9101C249.296 53.7015 246.546 52.8706 244.337 54.0533L231.23 61.0739C221.295 48.9459 208.929 38.6615 194.586 31.0451L198.885 16.8192C199.611 14.421 198.256 11.8895 195.856 11.1645L159.58 0.195326C157.181 -0.529705 154.651 0.826399 153.925 3.22459L149.626 17.4507C133.46 15.8416 121.684 21.765 106.692 26.3561L99.6707 13.249C98.4881 11.0405 95.7389 10.2094 93.5307 11.3922L60.1236 29.2873C57.9149 30.47 57.0836 33.2192 58.2667 35.4274L65.2874 48.5346C53.1593 58.4705 38.6613 66.6221 31.0452 80.9685L16.8188 76.6667C14.421 75.942 11.8891 77.2978 11.1641 79.6956L0.195309 115.972C-0.529679 118.37 0.826423 120.902 3.22419 121.627L17.4506 125.929C15.8416 142.091 17.5516 158.083 22.1425 173.074L9.03568 180.096C6.82718 181.278 5.99602 184.027 7.17887 186.236L25.0737 219.643C26.2568 221.851 29.006 222.683 31.2142 221.5L44.3215 214.478C54.2569 226.607 66.6222 236.892 80.9682 244.508L76.6668 258.734C75.9417 261.132 77.298 263.664 79.6953 264.389L115.973 275.356C118.368 276.082 120.901 274.726 121.628 272.327L125.927 258.103C142.089 259.712 158.083 258.001 173.074 253.41L180.093 266.517C181.278 268.726 184.028 269.555 186.237 268.374L219.644 250.479C221.849 249.296 222.684 246.547 221.499 244.339L214.476 231.232C226.607 221.296 236.889 208.93 244.508 194.584L258.733 198.886C261.132 199.611 263.665 198.255 264.388 195.857L275.356 159.581C276.083 157.183 274.726 154.651 272.327 153.926L258.103 149.625Z" fill="#D7FF9D"/>
<path fill-rule="evenodd" clip-rule="evenodd" d="M187.915 68.0664L186.651 68.0234L186.616 69.1459C186.556 71.1653 186.584 73.3259 186.614 75.6812C186.635 77.3227 186.657 79.059 186.651 80.9087L186.442 84.5603C186.447 87.9626 186.471 92.6984 186.514 98.7673L186.651 116.044C185.722 116.351 185.025 117.153 184.885 118.128C184.119 118.245 183.531 118.895 183.531 119.678C183.531 120.232 183.826 120.719 184.27 120.999L183.729 122.305C183.489 122.885 183.093 123.381 182.583 123.74C180.351 125.31 179.037 127.854 179.068 130.544C179.069 130.615 179.07 130.687 179.073 130.757C179.083 131.016 179.304 131.214 179.568 131.207C179.831 131.198 180.036 130.981 180.027 130.723C180.024 130.66 180.023 130.596 180.022 130.533C179.994 128.148 181.581 125.891 183.561 124.499C184.217 124.037 184.727 123.4 185.035 122.656L185.197 121.246H185.875C185.875 121.246 186.11 122.515 186.11 123.506C186.11 124.498 185.875 126.462 185.875 126.462H185.093C184.198 126.462 183.469 127.176 183.469 128.053C183.469 128.93 184.198 129.643 185.093 129.643H185.205C186.1 129.643 186.407 129.185 186.407 128.053C186.407 127.46 186.473 127.036 187.441 127.036C188.408 127.036 188.159 128.053 188.159 128.053C188.159 128.93 188.887 129.643 189.783 129.643H189.895C190.791 129.643 191.519 128.93 191.519 128.053C191.519 127.176 190.009 126.434 189.113 126.434C189.113 126.434 188.875 124.649 188.875 123.74C188.875 122.973 189.113 121.406 189.113 121.406H188.159C188.159 121.406 188.358 122.869 188.358 123.761C188.358 124.654 188.159 126.434 188.159 126.434C188.159 126.434 187.633 126.529 187.382 126.534C187.131 126.539 186.829 126.462 186.829 126.462C186.829 126.462 186.62 124.637 186.62 123.761C186.62 122.886 186.829 121.246 186.829 121.246H188.159H189.113H189.792L190.374 122.655C190.667 123.363 191.543 123.985 192.212 124.458L192.296 124.518C194.232 125.893 194.966 128.11 194.966 130.448C194.966 132.423 194.175 134.275 192.739 135.662C191.302 137.048 189.401 138.218 187.382 138.188C185.781 138.165 184.144 137.283 182.865 136.327C181.626 135.402 180.022 132.87 179.755 132.285C179.487 131.701 179.362 132.623 179.44 132.87C179.954 134.5 181.006 135.971 182.401 137.014C183.844 138.092 185.562 138.676 187.368 138.702C189.645 138.734 191.789 137.891 193.409 136.327C195.028 134.764 195.921 132.676 195.921 130.448C195.921 127.811 194.618 125.311 192.435 123.761C191.903 123.384 191.497 122.88 191.259 122.305L190.719 120.999C191.162 120.72 191.457 120.232 191.457 119.678C191.457 118.896 190.869 118.245 190.103 118.128C189.945 117.029 189.078 116.15 187.971 115.951H187.91L187.178 99.8851C187.134 93.7699 187.706 81.547 187.706 81.547C187.717 76.8466 187.774 72.7255 187.88 69.1846L187.915 68.0664ZM189.783 128.709C189.414 128.709 189.113 128.414 189.113 128.053V127.036C189.113 127.036 190.565 127.327 190.565 128.053C190.565 128.719 190.312 128.715 189.985 128.71H189.984C189.955 128.709 189.925 128.709 189.895 128.709H189.783ZM184.058 128.053C184.12 128.966 186.015 129.365 185.875 128.053V127.036C185.875 127.036 183.996 127.139 184.058 128.053ZM185.858 118.109C186.033 117.383 186.7 116.842 187.494 116.842C188.288 116.842 188.955 117.384 189.13 118.109H185.858ZM189.856 119.044H189.652H185.336H185.132C184.775 119.044 184.485 119.328 184.485 119.678C184.485 120.027 184.775 120.312 185.132 120.312H189.856C190.213 120.312 190.503 120.027 190.503 119.678C190.503 119.328 190.213 119.044 189.856 119.044ZM198.032 123.113H198.865C199.101 123.113 199.291 122.924 199.291 122.692C199.291 122.459 199.101 122.271 198.865 122.271H198.032C197.797 122.271 197.606 122.459 197.606 122.692C197.606 122.924 197.797 123.113 198.032 123.113ZM197.369 126.096L198.171 126.434C198.398 126.529 198.507 126.799 198.417 127.036C198.326 127.273 198.069 127.388 197.843 127.293L197.04 126.955C196.814 126.86 196.704 126.59 196.795 126.353C196.864 126.173 197.03 126.063 197.205 126.063C197.26 126.063 197.315 126.073 197.369 126.096ZM196.653 119.225L197.405 118.622C197.617 118.452 197.67 118.115 197.523 117.869C197.432 117.717 197.287 117.636 197.139 117.636C197.047 117.636 196.955 117.667 196.873 117.732L196.122 118.335C195.91 118.505 195.857 118.842 196.004 119.088C196.15 119.334 196.441 119.395 196.653 119.225ZM176.535 123.113H175.701C175.466 123.113 175.275 122.924 175.275 122.692C175.275 122.459 175.466 122.271 175.701 122.271H176.535C176.77 122.271 176.961 122.459 176.961 122.692C176.961 122.924 176.77 123.113 176.535 123.113ZM177.198 126.096L176.395 126.434C176.169 126.529 176.059 126.799 176.15 127.036C176.241 127.273 176.497 127.388 176.724 127.293L177.526 126.955C177.752 126.86 177.862 126.59 177.771 126.353C177.702 126.173 177.537 126.063 177.362 126.063C177.307 126.063 177.251 126.073 177.198 126.096ZM177.913 119.225L177.162 118.622C176.95 118.452 176.897 118.115 177.044 117.869C177.134 117.717 177.28 117.636 177.428 117.636C177.519 117.636 177.612 117.667 177.693 117.732L178.445 118.335C178.657 118.505 178.71 118.842 178.563 119.088C178.416 119.333 178.126 119.395 177.913 119.225Z" fill="#FFB61D"/>
<path d="M125.671 185.717C130.318 186.94 132.703 189.851 134.717 192.562C136.735 195.273 132.299 193.983 129.851 193.005C127.403 192.026 121.508 188.407 121.508 188.407L101.967 182.497V173.458L107.811 173.117C107.811 173.117 121.019 184.493 125.671 185.717Z" fill="white"/>
<path d="M105.422 119.521C109.602 135.339 111.759 150.475 112.1 164.994C112.1 164.994 116.015 165.483 115.526 168.908C115.037 172.333 104.761 181.629 104.761 181.629L101.201 169.828L99.8691 126.341L105.422 119.521Z" fill="white"/>
<path fill-rule="evenodd" clip-rule="evenodd" d="M106.849 127.615L104.449 126.023C104.295 125.922 104.093 126.001 104.038 126.184L103.201 128.963C103.131 129.195 103.339 129.412 103.556 129.333L106.792 128.145C107.013 128.064 107.047 127.746 106.849 127.615ZM106.558 128.075L103.609 128.928L104.487 126.4L106.558 128.075Z" fill="#FFB61D"/>
<path fill-rule="evenodd" clip-rule="evenodd" d="M105.796 147.629L103.396 146.037C103.243 145.935 103.041 146.015 102.985 146.197L102.149 148.977C102.079 149.209 102.287 149.425 102.503 149.346L105.74 148.159C105.96 148.078 105.994 147.76 105.796 147.629ZM105.505 148.088L102.556 148.942L103.434 146.414L105.505 148.088Z" fill="#FFB61D"/>
<path fill-rule="evenodd" clip-rule="evenodd" d="M104.533 158.872L104.712 155.998C104.723 155.814 104.553 155.678 104.368 155.722L101.542 156.387C101.307 156.443 101.223 156.731 101.399 156.879L104.046 159.088C104.227 159.239 104.518 159.109 104.533 158.872ZM103.99 158.85L101.776 156.722L104.405 156.218L103.99 158.85Z" fill="#FFB61D"/>
<path fill-rule="evenodd" clip-rule="evenodd" d="M109.082 156.752L106.208 156.574C106.024 156.562 105.888 156.732 105.932 156.918L106.597 159.744C106.653 159.979 106.941 160.062 107.089 159.886L109.298 157.239C109.449 157.059 109.319 156.767 109.082 156.752ZM109.06 157.296L106.932 159.509L106.429 156.881L109.06 157.296Z" fill="#FFB61D"/>
<path fill-rule="evenodd" clip-rule="evenodd" d="M106.862 171.404L104.284 172.687C104.119 172.769 104.087 172.983 104.217 173.122L106.206 175.237C106.372 175.413 106.664 175.342 106.703 175.115L107.293 171.718C107.333 171.486 107.075 171.298 106.862 171.404ZM107.115 171.886L106.379 174.866L104.629 172.842L107.115 171.886Z" fill="#FFB61D"/>
<path fill-rule="evenodd" clip-rule="evenodd" d="M108.126 163.399L105.548 164.682C105.383 164.764 105.35 164.979 105.481 165.118L107.47 167.232C107.636 167.408 107.928 167.337 107.967 167.11L108.557 163.713C108.597 163.482 108.339 163.294 108.126 163.399ZM108.379 163.881L107.643 166.861L105.893 164.837L108.379 163.881Z" fill="#FFB61D"/>
<path d="M91.4092 129.032L88.5741 137.593C82.0927 157.197 78.9011 167.147 78.8054 168.08C78.7456 168.66 79.097 169.093 79.6393 169.24C79.9645 169.329 80.3631 169.324 80.8578 169.251C81.6275 169.136 82.6564 168.848 83.8989 168.419C84.8592 168.087 85.8969 167.688 86.9486 167.258L87.3905 167.076C87.5342 167.016 87.6741 166.957 87.8093 166.9L88.5117 166.597L88.7123 166.509L88.829 166.323C89.0363 165.993 89.3312 165.41 89.6223 164.611C89.8781 163.908 90.082 163.156 90.216 162.361L90.2628 162.061C90.3045 161.769 90.7052 161.094 91.5314 159.94L92.1074 159.152C92.5797 158.515 93.4885 157.299 93.5799 157.176L94.1142 156.452C94.6248 155.756 95.0706 155.134 95.5063 154.507C97.6909 151.362 99.2346 148.609 100.146 145.959C100.918 143.712 101.189 141.629 100.883 139.715C100.415 136.793 100.594 134.001 101.278 131.38C101.846 129.203 100.049 127.194 97.4583 126.456C94.7811 125.693 92.2304 126.557 91.4092 129.032Z" fill="white"/>
<path d="M96.1558 116.374C97.7354 118.05 99.0601 119.328 100.131 120.208C101.935 121.691 104.521 123.28 107.889 124.976C97.5871 127.361 91.2966 127.833 89.0176 126.39C89.0176 126.39 89.9668 121.923 91.3307 120.01C92.3465 118.585 96.1558 116.374 96.1558 116.374Z" fill="white"/>
<path d="M112.542 94.8377C110.401 102.967 104.553 111.454 98.326 109.815C92.0987 108.175 88.6522 97.0645 90.7925 88.9353C92.9329 80.8061 99.7164 75.5449 105.944 77.1839C112.171 78.8229 114.682 86.709 112.542 94.8377Z" fill="white"/>
<path d="M113.966 97.4305C111.544 106.733 104.926 116.446 97.8786 114.57C90.831 112.694 86.9307 99.9787 89.3529 90.6757C91.7752 81.3722 99.4519 75.3513 106.499 77.2271C113.547 79.1029 116.389 88.1278 113.966 97.4305Z" fill="white"/>
<path fill-rule="evenodd" clip-rule="evenodd" d="M102.721 78.2988C107.523 78.5714 111.028 80.1493 112.993 82.9293L113.214 83.2508C114.186 84.653 115.003 85.5357 115.36 88.1896L115.394 88.4719C115.599 90.2179 115.659 92.06 115.554 92.6714C115.497 92.9296 115.386 93.0194 115.247 92.9924C114.929 92.93 114.107 91.4697 112.78 88.6105L111.667 89.9133C111.062 90.6131 109.777 91.2729 109.015 91.7684C108.254 92.2643 102.721 78.2988 102.721 78.2988Z" fill="#E7EAEE"/>
<path fill-rule="evenodd" clip-rule="evenodd" d="M107.568 104.706C110.242 105.822 112.274 107.27 112.813 106.668C113.351 106.065 111.514 104.231 110.087 101.739C108.593 99.2616 107.174 96.1403 106.908 94.8709L106.229 91.6611C104.242 94.1689 102.382 102.582 107.568 104.706Z" fill="white"/>
<path d="M138.657 257.907L138.513 266.831H133.437L131.916 256.592L138.657 257.907Z" fill="white"/>
<path d="M83.0653 210.45C83.0653 210.45 116.002 209.722 126.356 208.229C137.85 206.571 144.135 202.653 146.635 203.116C147.807 203.333 154.72 204.559 169.146 206.093C175.248 206.742 191.085 206.841 191.085 206.841L197.232 193.758C197.232 193.758 153.976 185.074 140.3 188.833C135.999 190.015 126.683 191.721 115.607 191.098C106.03 190.559 79.9824 185.5 79.9824 185.5C79.9824 185.5 69.4655 189.275 71.3691 198.559C73.2727 207.843 83.0653 210.45 83.0653 210.45Z" fill="white"/>
<path fill-rule="evenodd" clip-rule="evenodd" d="M193.706 199.357L195.731 193.494C195.731 193.494 152.548 185.439 138.872 189.198C134.571 190.38 130.683 192.329 119.607 191.707C115.368 191.468 108.118 190.475 97.8594 188.729C92.6703 187.846 91.8365 188.173 95.915 190.84C105.373 197.026 126.412 195.568 145.5 192.781C180.978 187.601 193.706 199.357 193.706 199.357Z" fill="#E7EAEE"/>
<path d="M132.928 259.934C130.779 262.308 127.931 266.218 129.397 270.132L154.841 277.96C154.841 277.96 155.819 275.024 154.353 272.58C152.882 270.132 139 260.474 139 260.474L132.928 259.934Z" fill="white"/>
<path fill-rule="evenodd" clip-rule="evenodd" d="M144.672 265.237C144.841 265.191 145.014 265.291 145.06 265.459C145.105 265.628 145.006 265.801 144.837 265.847C144.009 266.071 143.463 266.595 143.271 267.258C143.022 268.115 142.995 268.992 143.277 270.395C143.311 270.566 143.2 270.733 143.029 270.767C142.858 270.802 142.691 270.691 142.657 270.52C142.356 269.019 142.386 268.039 142.664 267.082C142.918 266.204 143.633 265.518 144.672 265.237Z" fill="#E7EAEE"/>
<path fill-rule="evenodd" clip-rule="evenodd" d="M130.661 270.554L155.693 277.919C155.693 277.919 158.872 277.251 155.585 276.783C152.207 276.303 132.433 267.249 130.258 268.898C129.949 269.132 130.47 270.042 130.661 270.554Z" fill="#E7EAEE"/>
<path d="M68.2891 208.585C68.2891 208.585 79.5842 212.15 88.68 213.486C97.7757 214.823 115.919 215.583 115.919 215.583C115.919 215.583 121.583 218.663 121.948 220.088C122.091 220.644 122.949 227.983 125.322 237.359C126.439 241.769 132.404 261.713 132.404 261.713L140.3 258.218C140.3 258.218 139.983 221.561 134.942 209.403C129.902 197.245 78.094 185.436 78.094 185.436C78.094 185.436 67.0988 183.447 64.1053 192.439C61.1117 201.431 68.2891 208.585 68.2891 208.585Z" fill="white"/>
<path fill-rule="evenodd" clip-rule="evenodd" d="M133.668 260.447L141.564 256.952C141.352 232.514 139.567 216.242 136.206 208.137C136.206 208.137 139.64 251.286 133.668 260.447Z" fill="#E7EAEE"/>
<path d="M202.518 199.837C204.483 202.366 207.839 205.85 211.948 205.085L224.076 181.386C224.076 181.386 220.955 180.006 218.294 181.026C215.628 182.049 203.905 194.283 203.905 194.283L202.518 199.837Z" fill="white"/>
<path fill-rule="evenodd" clip-rule="evenodd" d="M149.841 269.445C149.967 269.325 150.167 269.329 150.288 269.455C150.409 269.581 150.404 269.781 150.278 269.901C149.544 270.605 149.408 271.784 149.829 272.496C149.918 272.646 149.868 272.839 149.718 272.928C149.568 273.017 149.374 272.967 149.285 272.817C148.717 271.858 148.891 270.356 149.841 269.445Z" fill="#E7EAEE"/>
<path fill-rule="evenodd" clip-rule="evenodd" d="M147.26 267.361C147.387 267.242 147.587 267.248 147.707 267.375C147.826 267.502 147.82 267.702 147.693 267.822L147.522 267.986C146.193 269.294 145.812 270.437 146.982 271.663C147.102 271.79 147.097 271.99 146.971 272.11C146.845 272.231 146.645 272.226 146.524 272.1C145.66 271.193 145.482 270.214 145.865 269.234C146.13 268.559 146.589 267.991 147.26 267.361Z" fill="#E7EAEE"/>
<path fill-rule="evenodd" clip-rule="evenodd" d="M135.098 266.946C135.823 268.332 139.675 267.763 139.004 263.928C138.687 262.114 133.089 263.105 135.098 266.946Z" fill="#E7EAEE"/>
<path fill-rule="evenodd" clip-rule="evenodd" d="M209.545 205.527C214.634 199.712 217.559 186.632 221.75 182.131C223.229 180.543 225.148 180.187 223.083 183.947C219.304 190.829 212.041 205.527 212.041 205.527C211.657 205.719 211.181 205.527 210.752 205.527H209.545Z" fill="#E7EAEE"/>
<path d="M125.672 185.716C130.319 186.939 132.704 189.85 134.718 192.561C136.736 195.272 132.299 193.982 129.851 193.004C127.403 192.025 122.721 188.312 122.721 188.312L125.672 185.716Z" fill="white"/>
<path d="M83.3401 174.707C83.3401 174.707 109.501 185.946 113.187 185.96C116.87 185.976 125.907 190.364 126.396 193.789C126.99 197.955 111.228 191.832 111.228 191.832C111.228 191.832 76.0004 191.832 70.1313 185.96C64.2583 180.089 68.1721 167.857 68.1721 167.857L83.3401 174.707Z" fill="white"/>
<path d="M76.9786 122.356C76.9786 122.356 83.3407 126.27 84.3182 138.991C85.2957 151.712 81.3815 166.88 81.3815 166.88C81.3815 166.88 83.8295 168.837 84.3182 170.794C84.8069 172.751 83.3196 175.334 83.3196 175.334C83.3196 175.334 68.6623 182.536 67.6835 183.026C66.7052 183.515 62.791 182.047 62.791 178.133C62.791 174.219 64.2589 170.794 64.2589 170.794C64.9613 144.972 60.8339 119.909 76.9786 122.356Z" fill="white"/>
<path fill-rule="evenodd" clip-rule="evenodd" d="M102.894 95.286C104.399 93.2708 107.58 92.6144 108.428 95.7959C108.428 95.7959 109.081 97.7154 107.766 98.9015C103.739 102.535 101.389 97.3009 102.894 95.286Z" fill="white"/>
<path fill-rule="evenodd" clip-rule="evenodd" d="M111.297 97.4727C112.726 95.5581 115.748 94.935 116.555 97.9572C116.555 97.9572 117.174 99.7807 115.925 100.908C112.1 104.359 109.867 99.3872 111.297 97.4727Z" fill="white"/>
<path d="M99.5904 121.978C99.5904 121.978 99.5904 145.497 99.9359 158.639C100.281 171.782 97.2688 184.731 91.5134 194.858C85.758 204.985 86.5413 219.472 82.2989 220.549C48.7418 229.066 57.7764 124.834 70.1927 118.173C82.6085 111.513 86.7102 110.102 86.7102 110.102" fill="white"/>
<path fill-rule="evenodd" clip-rule="evenodd" d="M82.3799 128.577L79.4883 132.894C79.2482 133.253 79.4293 133.74 79.8448 133.856L83.7038 134.922C84.1525 135.047 84.5763 134.659 84.4942 134.201L83.5272 128.817C83.427 128.257 82.6964 128.104 82.3799 128.577ZM83.0086 129.241L83.8723 134.313L80.5168 132.894L83.0086 129.241Z" fill="#FFB61D"/>
<path fill-rule="evenodd" clip-rule="evenodd" d="M73.0764 124.359L69.6682 129.83C69.4504 130.179 69.6198 130.64 70.0116 130.766L75.9621 132.673C76.4576 132.832 76.9223 132.358 76.7525 131.866L74.2102 124.488C74.037 123.985 73.3574 123.908 73.0764 124.359ZM73.8845 125.026L75.6254 131.866L70.4662 129.83L73.8845 125.026Z" fill="#FFB61D"/>
<path fill-rule="evenodd" clip-rule="evenodd" d="M70.9755 165.746L73.2941 174.458C73.4365 174.994 74.1498 175.1 74.4418 174.629L77.8883 169.072C78.0796 168.764 77.9726 168.358 77.6549 168.184L71.8898 165.03C71.4023 164.763 70.8326 165.21 70.9755 165.746ZM71.5864 166.005L76.9302 168.739L73.9046 174.296L71.5864 166.005Z" fill="#FFB61D"/>
<path fill-rule="evenodd" clip-rule="evenodd" d="M66.3345 197.737L67.5985 203.709C67.7143 204.256 68.4327 204.394 68.7428 203.928L72.1577 198.79C72.4097 198.411 72.1906 197.898 71.7423 197.818L67.0634 196.984C66.6222 196.905 66.2413 197.298 66.3345 197.737ZM67.4371 197.643L71.492 199.08L67.9932 203.075L67.4371 197.643Z" fill="#FFB61D"/>
<path fill-rule="evenodd" clip-rule="evenodd" d="M77.2895 196.472L78.5535 202.444C78.6694 202.992 79.3878 203.13 79.6979 202.663L83.1128 197.525C83.3647 197.146 83.1456 196.633 82.6973 196.553L78.0184 195.719C77.5773 195.64 77.1964 196.033 77.2895 196.472ZM77.8743 196.992L82.595 196.861L78.7103 201.852L77.8743 196.992Z" fill="#FFB61D"/>
<path fill-rule="evenodd" clip-rule="evenodd" d="M71.3911 184.253L72.6551 190.225C72.771 190.773 73.4893 190.911 73.7994 190.444L77.2143 185.306C77.4663 184.927 77.2472 184.414 76.7989 184.334L72.12 183.5C71.6789 183.422 71.298 183.815 71.3911 184.253ZM72.0092 184.123L76.2668 185.378L72.8519 189.673L72.0092 184.123Z" fill="#FFB61D"/>
<path fill-rule="evenodd" clip-rule="evenodd" d="M211.297 203.577C210.979 204.197 210.459 204.457 209.764 204.495C207.29 204.633 205.328 203.541 203.579 201.951C202.915 201.348 202.327 200.662 201.662 200.061C201.195 199.639 200.693 199.363 199.964 199.625C199.405 199.825 198.749 199.749 198.138 199.812C196.76 199.953 195.385 200.136 194.005 200.237C193.124 200.301 193.103 201.051 192.896 201.57C192.429 202.741 192.08 203.962 191.708 205.17C191.564 205.639 191.334 205.825 190.807 205.818C188.175 205.786 185.543 205.788 182.911 205.81C181.712 205.82 180.513 205.963 179.316 205.936C177.064 205.885 174.81 205.813 172.565 205.641C170.394 205.474 168.234 205.161 166.067 204.929C164.545 204.767 163.013 204.681 161.498 204.476C159.735 204.236 157.988 203.887 156.229 203.617C155.349 203.482 154.454 203.442 153.573 203.313C152.063 203.09 150.553 202.859 149.051 202.58C147.659 202.32 146.348 202.589 145.038 203.022C142.485 203.865 139.927 204.688 137.366 205.507C136.911 205.652 136.777 205.772 136.982 206.324C137.736 208.354 138.443 210.405 139.056 212.48C139.49 213.945 139.79 215.454 140.067 216.958C140.408 218.801 140.693 220.656 140.947 222.513C141.141 223.932 141.264 225.362 141.391 226.789C141.553 228.603 141.706 230.418 141.828 232.235C141.95 234.044 142.052 235.855 142.121 237.667C142.238 240.745 142.325 243.823 142.417 246.901C142.473 248.764 142.508 250.629 142.57 252.492C142.588 253.033 142.761 253.588 142.679 254.108C142.617 254.499 142.338 255.047 142.019 255.17C141.196 255.488 140.959 256.099 140.966 256.942C140.975 258.019 141.11 259.096 141.082 260.17C141.064 260.854 141.326 261.332 141.824 261.695C144.085 263.344 146.369 264.963 148.629 266.614C149.701 267.398 150.759 268.204 151.788 269.045C152.889 269.946 153.968 270.876 155.018 271.835C156.064 272.792 156.62 273.962 156.797 275.421C156.934 276.551 156.788 277.602 156.6 278.678C156.502 279.239 156.182 279.468 155.599 279.278C153.151 278.479 150.708 277.665 148.248 276.904C144.185 275.646 140.111 274.425 136.041 273.19C134.59 272.749 133.139 272.31 131.687 271.875C130.797 271.609 130.609 270.811 130.444 270.088C129.975 268.035 130.581 266.165 131.664 264.443C132.327 263.389 133.1 262.404 133.825 261.389C134.417 260.56 134.264 259.711 133.971 258.814C133.017 255.894 132.079 252.968 131.177 250.031C130.286 247.133 129.404 244.23 128.598 241.307C127.745 238.218 126.971 235.107 126.192 231.998C125.77 230.316 125.372 228.626 125.031 226.926C124.775 225.655 124.631 224.362 124.43 223.079C124.191 221.548 124.046 219.989 123.652 218.498C123.482 217.856 122.859 217.269 122.316 216.804C121.133 215.791 119.775 215.036 118.299 214.521C117.934 214.393 117.539 214.305 117.154 214.291C115.323 214.221 113.49 214.203 111.658 214.13C109.87 214.057 108.082 213.958 106.296 213.838C104.454 213.714 102.613 213.565 100.775 213.4C98.8065 213.223 96.8313 213.083 94.8775 212.801C92.8063 212.502 90.7539 212.067 88.6983 211.665C88.03 211.534 87.5417 211.94 87.4381 212.882C87.2114 214.943 86.5111 216.858 85.6794 218.733C85.0794 220.086 83.9477 220.762 82.5519 220.992C81.5554 221.157 80.5345 221.314 79.5322 221.276C76.6789 221.168 74.1345 220.227 71.8715 218.418C69.0009 216.122 67.3215 213.056 65.8915 209.787C65.2506 208.322 64.4257 206.924 63.9226 205.416C63.3765 203.778 63.1002 202.05 62.7197 200.357C62.4235 199.04 62.1218 197.724 61.8728 196.398C61.6756 195.349 61.5518 194.286 61.4022 193.229C61.2033 191.824 61.0074 190.419 60.8182 189.013C60.7559 188.548 60.6939 188.08 60.6745 187.612C60.6134 186.147 60.5831 184.68 60.5212 183.215C60.434 181.16 60.2713 179.106 60.2439 177.051C60.1976 173.535 60.2022 170.018 60.2444 166.502C60.2629 164.958 60.3935 163.413 60.5325 161.874C60.6901 160.124 60.929 158.382 61.1035 156.633C61.2277 155.385 61.2669 154.128 61.4098 152.882C61.62 151.055 61.8501 149.228 62.1425 147.412C62.4901 145.253 62.8874 143.1 63.3079 140.954C64.1029 136.891 65.0282 132.853 66.5424 128.993C67.5077 126.534 68.5147 124.024 70.4844 122.168C71.3368 121.365 72.5216 120.902 73.5808 120.331C76.4884 118.766 79.4117 117.228 82.3201 115.665C82.4562 115.592 82.5729 115.38 82.5952 115.218C82.6724 114.657 82.6382 114.073 82.7756 113.532C82.8653 113.179 83.1131 112.791 83.4059 112.578C84.3872 111.862 85.4148 111.21 86.4382 110.554C86.6215 110.436 86.8806 110.333 87.082 110.366C88.1606 110.54 88.702 109.876 89.072 109.059C89.5725 107.953 90.0297 106.821 90.4181 105.672C91.0615 103.767 91.7104 101.857 92.197 99.9099C92.3651 99.2379 92.1068 98.4365 91.9552 97.7131C91.6463 96.2401 91.3902 94.7401 90.8934 93.3287C90.5753 92.4262 89.9323 91.6075 89.318 90.8462C87.7292 88.8769 86.895 86.6716 87.1621 84.1449C87.2779 83.0477 87.7486 82.0251 88.5693 81.228C89.535 80.2897 90.5252 79.3766 91.4942 78.4417C92.2004 77.76 92.1498 77.2388 91.2301 76.5722C89.9429 75.6398 88.7088 74.632 87.4777 73.6254C86.426 72.7655 85.9735 71.5369 85.695 70.2775C85.3162 68.5644 85.2707 66.8356 85.9693 65.1634C87.0871 62.4887 88.6974 60.2818 91.6455 59.4497C94.2438 58.7161 96.8363 58.7658 99.168 60.2388C101.287 61.577 102.633 63.5703 103.225 66.0309C103.919 68.9183 103.129 71.5167 101.669 73.9882C101.547 74.1951 101.535 74.4668 101.471 74.7087C101.688 74.7495 101.904 74.8174 102.122 74.8275C104.929 74.9552 107.719 75.2669 110.232 76.6047C113.531 78.3604 115.607 81.1433 116.522 84.7655C116.659 85.3077 116.658 85.8904 116.676 86.4559C116.737 88.3843 116.742 90.3153 116.856 92.2399C116.88 92.6419 117.187 93.1353 117.516 93.3923C119.093 94.6281 119.63 97.6532 118.163 99.4439C118.016 99.6234 117.891 99.8201 117.747 100.002C117.183 100.711 116.366 101.055 115.552 100.911C114.859 100.787 114.8 101.021 114.571 101.532C114.083 102.624 113.498 103.68 112.867 104.698C112.021 106.063 111.157 107.426 110.18 108.696C109.589 109.462 108.791 110.08 108.043 110.713C107.136 111.481 106.176 112.188 105.253 112.937C104.792 113.31 104.287 113.503 103.698 113.418C103.088 113.33 102.744 113.674 102.565 114.168C102.22 115.123 101.908 116.092 101.635 117.07C101.578 117.276 101.7 117.576 101.824 117.782C102.914 119.574 103.996 121.373 105.134 123.135C106.057 124.564 107.108 125.914 108.001 127.361C108.554 128.256 108.92 129.267 109.368 130.226C110.149 131.9 110.947 133.567 111.693 135.257C111.846 135.604 111.888 136.05 111.835 136.429C111.757 136.982 111.212 137.158 110.621 136.801C109.935 136.387 109.289 135.903 108.647 135.421C108.249 135.122 107.891 134.771 107.513 134.446C107.469 134.408 107.411 134.388 107.359 134.359C107.351 134.425 107.328 134.493 107.337 134.557C107.443 135.3 107.527 136.047 107.669 136.784C107.816 137.544 108.04 138.29 108.194 139.049C108.501 140.557 108.798 142.068 109.072 143.582C109.381 145.285 109.678 146.991 109.946 148.7C110.084 149.579 110.131 150.472 110.25 151.355C110.429 152.689 110.655 154.017 110.823 155.353C110.915 156.082 110.935 156.821 110.975 157.557C111.031 158.559 111.067 159.563 111.125 160.565C111.267 163.039 111.41 165.512 111.566 167.984C111.605 168.597 111.965 169.068 112.517 169.244C114.087 169.743 115.184 171.575 114.92 173.106C114.859 173.461 114.78 173.829 114.623 174.15C114.247 174.919 114.738 175.356 115.225 175.757C116.015 176.406 116.84 177.017 117.666 177.622C119.627 179.06 121.601 180.479 123.562 181.916C125.339 183.218 127.299 184.123 129.402 184.764C131.091 185.28 132.527 186.256 133.878 187.382C134.541 187.934 135.115 188.753 136.165 188.551C137.652 188.265 139.134 187.955 140.617 187.65C141.064 187.557 141.503 187.423 141.952 187.345C143.516 187.076 144.44 185.969 145.36 184.824C146.046 183.972 146.809 183.184 147.522 182.354C148.925 180.72 150.312 179.074 151.714 177.44C152.41 176.628 153.128 175.833 153.831 175.027C155.814 172.755 157.786 170.473 159.781 168.211C160.827 167.026 161.917 165.879 162.981 164.71C163.268 164.395 163.574 164.088 163.801 163.733C164.145 163.192 164.497 163.026 165.17 163.244C166.642 163.72 166.615 163.629 165.586 164.758C163.743 166.78 161.961 168.858 160.147 170.905C159.259 171.906 158.343 172.881 157.463 173.889C155.919 175.656 154.398 177.444 152.857 179.215C151.763 180.471 150.656 181.716 149.548 182.961C148.692 183.924 147.824 184.877 146.97 185.843C146.895 185.927 146.836 186.161 146.863 186.177C147.071 186.308 147.307 186.501 147.526 186.493C149.315 186.423 151.101 186.286 152.89 186.225C154.229 186.18 155.571 186.179 156.91 186.226C158.626 186.284 160.344 186.359 162.052 186.523C163.956 186.705 165.849 186.998 167.747 187.238C169.692 187.485 171.645 187.688 173.583 187.981C175.521 188.273 177.443 188.667 179.377 188.989C180.978 189.255 182.591 189.453 184.19 189.731C186.229 190.086 188.259 190.499 190.295 190.873C191.725 191.136 193.16 191.365 194.59 191.627C195.968 191.881 197.339 192.175 198.72 192.42C199.589 192.574 200.467 192.73 201.346 192.766C201.714 192.781 202.183 192.581 202.457 192.321C204.547 190.332 206.573 188.276 208.673 186.297C211.023 184.083 213.48 181.992 216.13 180.134C217.342 179.284 218.7 179.432 220.021 179.547C220.79 179.613 221.535 179.984 222.289 180.224C222.908 180.42 222.963 180.803 222.688 181.343C221.438 183.796 220.21 186.261 218.959 188.714C217.878 190.834 216.777 192.945 215.649 195.096C214.174 197.948 212.738 200.764 211.297 203.577ZM95.6052 185.484C96.2625 183.584 96.8393 181.652 97.3575 179.708C97.6941 178.446 97.8854 177.142 98.1016 175.85C98.324 174.523 98.5099 173.189 98.6893 171.855C98.8983 170.306 99.2227 168.756 99.248 167.202C99.2986 164.082 99.1697 160.959 99.1351 157.837C99.114 155.93 99.1031 154.02 99.1406 152.114C99.1697 150.613 98.2967 149.495 97.6604 148.264C97.237 147.445 96.79 146.618 96.5195 145.744C96.0231 144.14 95.6195 142.504 95.2353 140.869C94.9719 139.75 94.7785 138.613 94.6053 137.476C94.4052 136.161 93.9729 134.925 93.4113 133.732C93.3641 133.631 92.9697 133.558 92.9272 133.615C92.7009 133.918 92.5324 134.265 92.3495 134.599C92.0243 135.195 91.53 135.762 91.4171 136.397C91.1913 137.664 90.6073 138.752 90.0103 139.839C89.6387 140.516 89.0126 140.534 88.5778 139.913C88.1105 139.245 87.6057 138.571 87.3074 137.824C86.6063 136.067 85.9786 134.278 85.3946 132.479C84.6273 130.114 83.9039 127.733 83.215 125.344C82.8552 124.097 82.4971 122.83 82.3458 121.547C82.1979 120.29 82.3151 119.001 82.3113 117.727C82.3108 117.613 82.2759 117.499 82.2573 117.385C82.2055 117.426 82.1583 117.474 82.1014 117.505C80.7654 118.24 79.4374 118.991 78.0887 119.702C76.7509 120.407 75.4065 121.103 74.0375 121.745C72.5376 122.448 71.0322 123.173 70.1634 124.647C69.2234 126.241 68.125 127.76 67.5587 129.557C66.9747 131.409 66.3145 133.24 65.8064 135.112C65.2865 137.027 64.933 138.987 64.4644 140.917C64.1653 142.15 63.6723 143.346 63.476 144.591C63.1764 146.491 62.9914 148.416 62.884 150.338C62.7922 151.987 62.7989 153.64 62.5764 155.282C62.4037 156.558 62.2861 157.841 62.1307 159.119C61.8935 161.064 61.4679 163.006 61.4372 164.954C61.3697 169.267 61.5475 173.584 61.5273 177.899C61.5168 180.16 61.8543 182.371 62.1206 184.6C62.4163 187.074 62.5912 189.563 62.8735 192.039C63.0652 193.722 63.2573 195.415 63.6163 197.067C64.2007 199.756 64.8285 202.443 65.6088 205.081C66.5825 208.372 68.0116 211.473 70.0243 214.285C71.282 216.042 72.8178 217.482 74.7129 218.516C77.2827 219.919 80.0386 219.797 82.7996 219.369C83.2521 219.299 83.8382 218.951 84.032 218.565C84.5755 217.484 85.0504 216.344 85.3596 215.176C85.7995 213.517 85.9937 211.793 86.4252 210.131C87.1364 207.39 88.0309 204.696 88.7012 201.947C89.2532 199.682 90.3052 197.638 91.2191 195.532C91.892 193.983 92.6874 192.487 93.501 190.893C94.208 189.092 94.9736 187.311 95.6052 185.484ZM119.86 213.459C121.19 214.272 122.494 215.134 123.759 216.044C124.549 216.612 125.116 217.437 125.289 218.392C125.69 220.602 125.956 222.837 126.344 225.05C126.616 226.604 127.007 228.136 127.33 229.68C127.594 230.937 127.837 232.199 128.087 233.459C128.332 234.698 128.571 235.937 128.819 237.175C129.009 238.118 129.204 239.06 129.404 240.002C129.727 241.524 129.983 243.064 130.401 244.56C130.811 246.034 131.429 247.449 131.88 248.913C132.63 251.349 133.561 253.708 134.639 256.016C134.895 256.564 135.325 256.454 135.58 256.354C137.193 255.722 138.785 255.033 140.366 254.323C140.865 254.099 141.13 253.665 141.107 253.072C141.045 251.461 141.001 249.849 140.957 248.237C140.904 246.309 140.859 244.38 140.81 242.452C140.762 240.564 140.751 238.674 140.653 236.789C140.557 234.947 140.376 233.109 140.224 231.271C140.034 228.98 139.857 226.688 139.632 224.401C139.477 222.822 139.335 221.233 139.036 219.677C138.519 216.984 137.884 214.313 137.301 211.632C136.621 208.508 135.308 205.786 132.711 203.741C130.734 202.184 128.66 200.794 126.417 199.682C123.936 198.453 121.427 197.257 118.851 196.246C115.907 195.092 113.048 193.633 109.806 193.367C108.249 193.239 106.704 192.966 105.149 192.801C103.902 192.669 102.644 192.631 101.397 192.494C99.4237 192.278 97.4582 191.991 95.483 191.797C95.2062 191.77 94.7891 192.03 94.6193 192.281C94.2287 192.856 93.935 193.501 93.63 194.131C92.6782 196.099 91.5633 198.011 90.8391 200.06C89.8822 202.768 89.2329 205.585 88.4568 208.356C88.0174 209.926 88.0077 209.996 89.377 210.283C90.9608 210.616 92.5699 210.836 94.1747 211.057C95.2243 211.201 96.2882 211.241 97.3415 211.362C99.3378 211.591 101.329 211.866 103.327 212.081C104.598 212.218 105.876 212.301 107.152 212.377C109.06 212.49 110.969 212.596 112.879 212.666C114.023 212.708 115.169 212.673 116.461 212.673C117.66 212.652 118.832 212.831 119.86 213.459ZM177.174 204.34C178.405 204.398 179.636 204.458 180.867 204.484C183.722 204.545 186.577 204.593 189.432 204.628C190.002 204.634 190.515 204.398 190.669 203.812C191.496 200.654 193.122 197.725 193.331 194.385C193.384 193.537 193.017 192.939 192.152 192.787C191.25 192.629 190.359 192.408 189.459 192.236C188.327 192.021 187.19 191.831 186.057 191.623C185.039 191.436 184.023 191.242 183.007 191.046C182.264 190.902 181.523 190.743 180.779 190.603C179.355 190.333 177.929 190.07 176.503 189.809C175.528 189.63 174.554 189.447 173.576 189.29C172.817 189.168 172.051 189.091 171.291 188.981C169.684 188.746 168.078 188.503 166.472 188.262C165.554 188.125 164.639 187.974 163.72 187.85C162.494 187.685 161.264 187.405 160.037 187.412C156.958 187.429 153.88 187.564 150.802 187.685C149.331 187.742 147.856 187.824 146.394 187.989C145.575 188.081 144.787 188.341 144.194 189.03C143.226 190.154 142.188 191.216 141.21 192.331C140.593 193.036 140.016 193.777 139.452 194.525C138.705 195.514 137.795 196.115 136.494 196.015C134.364 195.85 132.23 195.729 130.098 195.565C129.308 195.505 128.521 195.387 127.734 195.277C126.4 195.09 125.071 194.873 123.736 194.699C122.459 194.532 121.178 194.393 119.898 194.261C119.536 194.224 119.167 194.245 118.802 194.265C118.73 194.269 118.663 194.393 118.595 194.462C118.669 194.496 118.745 194.527 118.818 194.565C119.459 194.9 120.083 195.273 120.743 195.564C122.678 196.419 124.675 197.15 126.561 198.099C129.301 199.477 131.858 201.159 134.182 203.182C134.903 203.809 135.595 204.275 136.777 204.118C138.651 203.868 140.402 203.406 142.084 202.588C144.347 201.487 146.649 200.584 149.251 201.123C150.757 201.436 152.27 201.709 153.774 202.031C154.726 202.236 155.655 202.572 156.615 202.715C157.805 202.891 159.017 202.923 160.219 203.027C162.405 203.218 164.589 203.42 166.775 203.609C168.259 203.738 169.744 203.854 171.301 204.049C173.259 204.147 175.217 204.248 177.174 204.34ZM101.026 162.11C101.048 162.694 101.024 163.28 101.034 163.864C101.08 166.596 101.123 169.329 101.184 172.061C101.201 172.854 101.166 173.671 101.348 174.432C101.716 175.971 102.198 177.484 102.668 178.997C102.869 179.645 103.149 180.262 103.881 180.519C104.518 180.741 105.136 181.022 105.774 181.242C106.722 181.567 107.012 181.444 107.63 180.577C107.834 180.29 108.07 180.025 108.3 179.757C109.78 178.031 111.305 176.341 112.731 174.571C113.783 173.264 113.601 171.162 111.839 170.487C111.649 170.415 111.461 170.328 111.264 170.287C110.223 170.071 110.271 170.074 110.237 169.09C110.113 165.575 110.526 162.05 109.973 158.539C109.753 157.137 109.844 155.688 109.641 154.282C109.325 152.094 108.889 149.923 108.488 147.748C108.11 145.692 107.73 143.634 107.315 141.584C107.005 140.054 106.633 138.537 106.299 137.012C106.045 135.849 105.845 134.672 105.538 133.523C105.455 133.213 105.069 132.983 104.823 132.717C104.534 132.995 104.029 133.249 103.994 133.556C103.817 135.115 103.577 136.703 103.714 138.25C103.871 140.026 104.138 141.787 103.798 143.55C103.412 145.56 102.769 147.49 101.68 149.248C101.077 150.223 100.626 151.234 100.729 152.44C100.83 153.633 100.863 154.834 100.88 156.032C100.904 157.737 100.886 159.442 100.886 161.294C100.935 161.566 101.016 161.837 101.026 162.11ZM93.3582 101.731C93.2352 101.921 93.0645 102.096 92.9967 102.305C92.3023 104.43 91.6678 106.576 90.9254 108.684C90.4784 109.954 89.7764 111.088 88.6161 111.886C87.773 112.466 86.9864 113.128 86.1614 113.735C85.7548 114.034 85.8408 114.293 86.0944 114.657C86.8537 115.744 87.6559 116.815 88.2896 117.975C89.1643 119.575 89.9134 121.245 90.6916 122.897C91.45 124.507 92.2421 126.105 92.8985 127.757C93.4568 129.159 93.7568 130.666 94.3311 132.061C94.8497 133.322 95.4067 134.565 95.5946 135.915C95.6587 136.374 95.8074 136.378 96.1554 136.377C98.2465 136.37 100.266 136.093 102.029 134.848C102.18 134.742 102.307 134.523 102.336 134.339C102.406 133.895 102.393 133.439 102.446 132.991C102.482 132.675 102.688 132.334 102.614 132.058C102.34 131.035 101.974 130.036 101.655 129.024C101.044 127.091 100.244 125.179 100.189 123.14C100.133 121.065 100.32 118.98 100.462 116.904C100.52 116.057 100.686 115.208 100.9 114.384C101.152 113.419 101.092 113.155 100.22 112.684C98.7863 111.909 97.55 110.867 96.6665 109.523C95.2239 107.329 94.1158 104.968 93.7206 102.239C93.5996 102.07 93.4791 101.9 93.3582 101.731ZM114.161 101.084C114.2 101.005 114.555 100.758 114.028 100.67C113.495 100.58 112.892 100.321 112.526 99.9394C111.808 99.1907 111.214 98.3185 110.611 97.4678C110.44 97.2268 110.38 97.0806 110.139 97.3697C109.987 97.5529 109.789 97.6983 109.637 97.8816C108.318 99.4751 106.421 100.152 104.644 99.7089C102.515 99.178 101.216 96.9075 101.187 94.9377C101.176 94.1524 100.927 93.4942 100.3 93.0426C99.2565 92.2909 98.1825 91.5797 97.1098 90.8693C96.5089 90.4716 95.9368 90.6014 95.7817 91.2287C95.3979 92.7813 94.9201 94.3378 94.7861 95.9186C94.6205 97.874 94.6993 99.8488 95.1662 101.8C95.9528 105.088 96.9741 108.212 99.6571 110.529C101.387 112.023 103.524 112.359 105.584 111.455C107.625 110.559 108.879 108.902 110.099 107.177C111.125 105.727 112.147 104.275 113.243 102.751C113.554 102.197 113.875 101.65 114.161 101.084ZM202.561 198.732C203.979 200.537 205.629 202.044 207.886 202.772C209.28 203.223 209.791 203.143 210.563 201.672C212.137 198.672 213.693 195.661 215.244 192.649C215.863 191.446 216.436 190.218 217.057 189.016C218.269 186.667 219.497 184.326 220.726 181.985C220.951 181.558 220.737 181.172 220.407 181.127C219.261 180.974 218.05 180.647 216.985 181.355C215.581 182.289 214.168 183.229 212.876 184.307C210.917 185.942 209.03 187.668 207.171 189.418C206.329 190.212 205.617 191.148 204.867 192.038C204.275 192.741 203.516 193.333 203.29 194.294C203.082 195.182 202.877 196.071 202.67 197.106C202.427 197.636 202.155 198.215 202.561 198.732ZM154.262 277.184C154.596 277.211 155.24 277.059 155.244 276.969C155.287 275.711 155.525 274.377 154.396 273.395C152.928 272.118 151.506 270.782 149.975 269.586C147.506 267.655 144.964 265.817 142.452 263.941C141.554 263.271 140.661 262.56 139.518 262.385C138.495 262.229 137.452 262.208 136.426 262.071C135.56 261.955 134.971 262.331 134.445 262.954C133.17 264.465 132.243 266.145 131.893 268.108C131.617 269.646 132.112 270.493 133.354 270.859C135.718 271.555 138.065 272.308 140.425 273.02C142.116 273.53 143.822 273.989 145.51 274.51C147.97 275.27 150.42 276.064 153.021 276.844C153.434 276.964 153.842 277.151 154.262 277.184ZM104.615 182.412C102.983 181.766 101.36 181.095 99.7233 180.459C99.24 180.271 98.8284 180.215 98.6687 180.96C98.4959 181.768 98.1269 182.534 97.8601 183.323C97.2682 185.076 96.6737 186.828 96.1133 188.591C96.0097 188.917 95.8521 189.374 96.4959 189.436C97.3339 189.517 98.1673 189.657 99.007 189.718C100.646 189.837 102.287 189.954 103.929 190.008C106.369 190.089 108.811 190.118 111.252 190.161C112.031 190.174 112.811 190.16 113.591 190.165C113.781 190.165 113.982 190.152 114.158 190.207C116.271 190.868 118.377 191.552 120.492 192.206C122.62 192.864 124.751 193.51 127.024 193.383C127.814 193.339 127.959 193.191 127.668 192.465C127.51 192.069 127.29 191.665 126.998 191.359C125.575 189.867 123.836 188.826 121.976 187.969C120.495 187.287 119.046 186.525 117.38 186.354C116.6 186.274 115.814 186.161 115.056 185.966C113.853 185.654 112.659 185.293 111.482 184.892C110.011 184.391 108.561 183.829 106.955 183.293C106.175 183 105.39 182.719 104.615 182.412ZM86.2554 117.884C85.5711 116.823 84.8511 115.786 84.1436 114.74C84.0455 114.595 83.938 114.455 83.8348 114.313C83.7666 114.552 83.6705 114.788 83.6351 115.032C83.518 115.839 83.4522 116.655 83.3136 117.458C83.0393 119.047 82.8898 120.609 83.9203 122.022C83.9852 122.111 84.0366 122.219 84.0661 122.326C84.4449 123.703 84.8169 125.082 85.1949 126.459C85.2905 126.808 85.3904 127.156 85.505 127.499C85.9975 128.974 86.595 130.423 86.9662 131.927C87.3475 133.473 87.6399 135.027 88.432 136.439C88.6595 136.844 88.7332 137.334 88.9013 137.776C88.9515 137.908 89.1166 138.121 89.1689 138.104C89.3366 138.052 89.5569 137.941 89.6134 137.797C90.2673 136.117 90.5825 134.283 91.8233 132.872C92.8775 131.674 92.6588 130.45 92.012 129.171C91.7597 128.671 91.6034 128.123 91.3775 127.609C90.89 126.496 90.4232 125.372 89.8776 124.287C89.4006 123.34 88.8234 122.444 88.2984 121.521C87.9293 120.872 87.5741 120.214 87.1397 119.488C86.8469 118.952 86.5857 118.395 86.2554 117.884ZM125.756 184.969C123.62 183.59 121.455 182.249 119.386 180.775C117.653 179.541 116.047 178.13 114.363 176.825C113.908 176.473 113.387 176.356 112.922 176.887C112.17 177.747 111.403 178.594 110.652 179.455C110.092 180.096 109.555 180.756 108.994 181.397C108.556 181.897 108.602 182.166 109.243 182.357C111.304 182.973 113.38 183.54 115.434 184.176C118.238 185.044 121.04 185.926 123.819 186.871C124.708 187.174 125.492 187.784 126.38 188.091C127.282 188.403 128.246 188.565 129.196 188.698C130.294 188.851 131.406 188.912 132.513 188.981C132.69 188.992 132.877 188.834 133.059 188.754C132.951 188.604 132.869 188.422 132.731 188.309C130.975 186.872 128.878 186.13 126.698 185.339C126.382 185.219 126.034 185.149 125.756 184.969ZM97.9482 146.468C98.2196 147.498 98.8646 147.998 99.8581 148.092C100.716 148.172 100.968 147.702 101.177 147.075C101.476 146.177 101.773 145.279 102.054 144.375C102.679 142.368 102.589 140.346 102.215 138.306C102.094 137.64 102.122 136.947 102.092 136.266C102.087 136.167 102.138 136.066 102.163 135.965C102.063 135.995 101.958 136.015 101.862 136.055C101.26 136.304 100.681 136.649 100.054 136.79C98.8819 137.053 97.6861 137.227 96.4929 137.38C96.032 137.438 95.759 137.487 95.9052 138.051C96.0434 138.583 96.0986 139.137 96.2085 139.677C96.4453 140.842 96.6939 142.004 96.9379 143.314C97.2791 144.364 97.6672 145.402 97.9482 146.468ZM110.445 135.472C110.559 135.568 110.686 135.649 110.806 135.738C110.805 135.574 110.85 135.394 110.796 135.25C110.48 134.409 110.184 133.554 109.798 132.744C108.973 131.014 108.215 129.236 107.208 127.615C106.219 126.022 104.886 124.644 103.834 123.084C103.081 121.967 102.548 120.701 101.905 119.508C101.806 119.325 101.643 119.176 101.509 119.011C101.448 119.205 101.329 119.4 101.334 119.592C101.365 120.838 101.381 122.087 101.486 123.328C101.557 124.174 101.7 125.027 101.927 125.844C102.18 126.752 102.638 127.604 102.874 128.514C103.15 129.58 103.656 130.254 104.688 130.823C106.399 131.767 108.165 132.748 109.368 134.543C109.727 134.854 110.084 135.165 110.445 135.472ZM102.828 94.168C102.267 94.9853 103.308 97.85 103.874 98.0632C107.837 99.5547 108.967 97.0023 109.019 96.3016C109.122 94.9103 109.294 93.5001 107.979 92.3727C104.51 91.6825 103.736 92.8462 102.828 94.168ZM118.003 95.3258C117.471 93.999 116.665 93.1336 115.261 93.4361C114.545 93.5907 113.914 94.1587 113.255 94.5573C111.84 95.413 111.655 95.8815 112.149 97.3992C112.644 98.9181 113.799 99.7881 115.269 100.083C116.485 100.328 117.354 99.5737 117.997 98.4386C118.158 97.4021 118.425 96.3762 118.003 95.3258ZM112.755 93.6101C113.326 93.2039 113.946 92.6023 114.562 92.5799C115.629 92.5416 115.455 91.8902 115.34 91.3775C115.019 89.9445 114.599 88.5322 114.189 87.1207C113.908 86.1542 113.671 86.0986 112.99 86.7795C111.824 87.9453 110.643 89.0888 109.178 89.8939C108.72 90.1459 108.656 90.7257 108.984 91.1828C109.106 91.3526 109.272 91.4988 109.363 91.6825C109.813 92.5884 110.222 93.5157 110.703 94.4047C110.809 94.6011 110.729 95.2963 111.416 94.7844C111.859 94.3891 112.274 93.9527 112.755 93.6101ZM198.814 198.47C199.808 198.284 200.874 198.03 201.028 196.706C201.054 196.484 201.156 196.271 201.206 196.051C201.52 194.683 201.164 194.244 199.795 194.097C198.505 193.959 197.224 193.728 195.943 193.521C195.257 193.411 195.131 193.539 195.055 194.237C194.95 195.203 194.8 196.167 194.619 197.123C194.461 197.96 194.695 198.623 195.431 198.787C196.56 198.689 197.705 198.676 198.814 198.47ZM139.095 260.743C139.234 260.737 139.471 260.461 139.476 260.303C139.511 259.257 139.485 258.21 139.497 257.164C139.504 256.576 139.053 256.556 138.73 256.659C138.026 256.884 137.356 257.218 136.676 257.517C136.185 257.733 135.634 257.908 135.693 258.616C135.735 259.116 135.735 259.627 135.85 260.111C136.041 260.914 136.734 260.532 137.3 260.692C137.899 260.716 138.499 260.769 139.095 260.743ZM100.144 175.712C100.102 175.593 99.9293 175.52 99.8164 175.426C99.7342 175.543 99.5914 175.655 99.58 175.779C99.5114 176.531 99.4528 177.284 99.4296 178.039C99.4069 178.775 99.9289 179.253 100.678 179.185C100.805 179.174 101.03 178.95 101.014 178.86C100.903 178.261 100.74 177.672 100.521 177.007C100.399 176.574 100.294 176.135 100.144 175.712ZM141.347 189.521C141.428 189.36 141.598 188.912 141.102 189.005C140.346 189.147 139.602 189.362 138.858 189.565C138.722 189.602 138.611 189.729 138.488 189.815C138.63 189.882 138.771 190.002 138.915 190.007C139.522 190.029 140.13 190.017 140.81 189.943C140.996 189.806 141.254 189.705 141.347 189.521ZM84.873 112.837C84.7563 112.905 84.6396 112.972 84.5233 113.04C84.6147 113.142 84.6901 113.284 84.8043 113.332C84.873 113.361 85.023 113.262 85.1018 113.186C85.5517 112.75 85.9937 112.306 86.4332 111.858C86.5208 111.769 86.5849 111.656 86.6599 111.553C86.512 111.583 86.3262 111.564 86.2229 111.648C85.7839 112.004 85.3693 112.389 84.873 112.837Z" fill="#00160A"/>
<path fill-rule="evenodd" clip-rule="evenodd" d="M100.545 104.322C99.8595 103.952 99.1815 103.648 99.0391 102.822C98.7627 101.219 99.3404 99.3292 101.431 99.4392C103.315 99.5382 104.511 101.103 103.844 102.871C103.353 104.175 102.16 104.821 100.545 104.322Z" fill="#FFB61D"/>
<path fill-rule="evenodd" clip-rule="evenodd" d="M109.836 98.3393C109.874 98.0933 109.911 97.9213 109.949 97.749C110.008 97.899 110.085 98.0448 110.124 98.1999C110.418 99.3505 111.35 102.215 110.24 103.533C110.148 103.643 109.68 103.66 109.388 103.641C108.815 103.605 108.147 102.76 108.253 102.215C108.269 102.133 109.652 103.475 109.949 102.749C110.444 101.537 109.836 98.7556 109.836 98.3393Z" fill="#00160A"/>
<path fill-rule="evenodd" clip-rule="evenodd" d="M102.036 106.732C101.979 106.703 101.899 106.711 101.83 106.714C101.66 106.721 101.427 106.416 101.526 106.287C101.675 106.092 101.845 105.896 102.047 105.768C102.168 105.692 102.367 105.939 102.352 106.048C102.341 106.13 102.418 106.258 102.493 106.313C103.639 107.154 104.91 107.699 106.301 107.961C106.392 107.979 106.472 108.061 106.558 108.113C106.473 108.172 106.388 108.287 106.302 108.282C104.785 108.193 103.03 107.237 102.036 106.732Z" fill="#00160A"/>
<path fill-rule="evenodd" clip-rule="evenodd" d="M65.066 172.603L63.6246 178.758C63.5134 179.234 63.9612 179.651 64.4281 179.506L69.4314 177.948C69.8523 177.817 70.0133 177.306 69.7432 176.957L66.1808 172.359C65.8551 171.939 65.1873 172.085 65.066 172.603ZM65.6815 173.589L68.8222 177.344L64.2402 178.902L65.6815 173.589Z" fill="#FFB61D"/>
<path fill-rule="evenodd" clip-rule="evenodd" d="M69.5374 137.088C69.0108 137.04 68.6623 137.622 68.9531 138.064L72.6187 143.637C72.8656 144.013 73.415 144.017 73.6686 143.646L77.0422 138.705C77.3144 138.307 77.0578 137.762 76.5771 137.719L69.5374 137.088ZM70.0334 137.719L76.3357 138.944L72.6187 142.835L70.0334 137.719Z" fill="#FFB61D"/>
<path fill-rule="evenodd" clip-rule="evenodd" d="M92.7674 179.698H87.5972C87.1688 179.698 86.8646 180.116 86.9956 180.524L88.7323 185.922C88.8962 186.432 89.58 186.519 89.8674 186.068L93.3008 180.669C93.5684 180.249 93.2659 179.698 92.7674 179.698ZM92.3461 180.752L89.7553 185.728L88.0186 180.33L92.3461 180.752Z" fill="#FFB61D"/>
<path fill-rule="evenodd" clip-rule="evenodd" d="M75.8271 208.95L75.5907 213.63C75.5658 214.12 76.0853 214.451 76.5189 214.22L82.5305 211.017C83.0395 210.746 82.9489 209.99 82.3898 209.847L76.615 208.37C76.2278 208.271 75.8473 208.551 75.8271 208.95ZM76.2838 209.397L81.8083 210.164L76.5189 213.29L76.2838 209.397Z" fill="#FFB61D"/>
<path fill-rule="evenodd" clip-rule="evenodd" d="M67.8557 151.473L63.221 154.685C62.8292 154.957 62.8679 155.549 63.2926 155.767L68.7165 158.551C69.1698 158.784 69.6982 158.412 69.6316 157.906L68.8424 151.909C68.7809 151.441 68.2446 151.203 67.8557 151.473ZM68.0419 152.589L69.0051 157.989L63.5812 155.205L68.0419 152.589Z" fill="#FFB61D"/>
<path fill-rule="evenodd" clip-rule="evenodd" d="M89.1221 165.233L86.2304 169.551C85.9814 169.923 86.187 170.428 86.6248 170.521L90.006 171.236C90.424 171.324 90.807 170.982 90.7657 170.557L90.2765 165.523C90.2188 164.933 89.4524 164.74 89.1221 165.233ZM89.9095 166.098V170.722L87.0023 169.551L89.9095 166.098Z" fill="#FFB61D"/>
<path fill-rule="evenodd" clip-rule="evenodd" d="M89.6703 144.89C90.5117 144.341 91.2499 144.472 90.6491 145.68C90.6491 145.68 86.2626 156.801 84.9518 156.933C83.7093 157.058 83.1093 155.451 81.3738 150.855L81.3001 150.659C81.2933 150.642 81.2879 150.625 81.2828 150.607L81.2735 150.571L81.2622 150.551L81.2382 150.495L81.0304 149.933C80.7856 149.264 80.1684 148.159 79.8423 147.776C79.4947 147.367 80.2704 147.114 80.8434 147.114C81.9127 147.114 83.2214 147.412 85.2792 146.819C87.6896 146.123 88.5167 145.643 89.6703 144.89ZM87.8046 150.604L87.7469 150.642C87.1347 151.018 86.4585 151.308 85.7195 151.51C84.8355 151.751 83.553 151.781 82.7229 151.601L82.5843 151.568L82.6357 151.696C83.1038 152.863 83.5201 154.212 83.8829 154.899L84.0097 155.132C84.2372 155.541 84.4369 155.838 84.5983 156.017L84.6488 156.069L84.7116 155.993C84.9821 155.647 85.9449 154.346 86.6139 153.047L86.6839 152.91C86.9704 152.348 87.2826 151.71 87.6209 150.995L87.8046 150.604ZM89.61 146.175L89.5085 146.233C88.5567 146.763 86.9826 147.643 85.6297 148.033C84.0101 148.5 82.6374 148.667 81.5078 148.518L81.4387 148.508L81.4783 148.619C81.5862 148.921 82.0437 150.351 82.2055 150.571C82.8611 151.176 83.6646 151.234 84.6488 150.995L84.79 150.959C88.3136 150.278 89.61 146.175 89.61 146.175Z" fill="#FFB61D"/>
<path fill-rule="evenodd" clip-rule="evenodd" d="M213.357 185.057C213.498 184.953 213.695 184.983 213.799 185.123C214.529 186.113 215.763 186.162 217.405 185.25C217.558 185.165 217.75 185.22 217.835 185.373C217.92 185.525 217.865 185.718 217.712 185.803C215.823 186.851 214.242 186.789 213.29 185.498C213.187 185.358 213.217 185.161 213.357 185.057Z" fill="#E7EAEE"/>
<path fill-rule="evenodd" clip-rule="evenodd" d="M210.969 187.587C211.098 187.47 211.298 187.479 211.415 187.608C212.522 188.826 213.992 188.895 215.188 188.256C215.342 188.174 215.533 188.232 215.615 188.386C215.698 188.54 215.639 188.732 215.485 188.814C214.057 189.576 212.274 189.492 210.947 188.034C210.83 187.904 210.84 187.704 210.969 187.587Z" fill="#E7EAEE"/>
<path fill-rule="evenodd" clip-rule="evenodd" d="M208.381 190.096C208.508 189.976 208.708 189.982 208.828 190.109C209.894 191.242 212.062 191.796 213.545 191.01C213.699 190.928 213.891 190.987 213.973 191.141C214.054 191.295 213.995 191.487 213.841 191.568C212.085 192.499 209.616 191.868 208.367 190.542C208.247 190.415 208.254 190.215 208.381 190.096Z" fill="#E7EAEE"/>
<path fill-rule="evenodd" clip-rule="evenodd" d="M210.39 200.006C212.608 198.932 210.315 194.955 208.168 196.565C206.791 197.598 208.301 201.017 210.39 200.006Z" fill="#E7EAEE"/>
</svg>
