<svg width="373" height="286" viewBox="0 0 373 286" fill="none" xmlns="http://www.w3.org/2000/svg">
<path fill-rule="evenodd" clip-rule="evenodd" d="M288.461 1.73619C296.324 9.87678 302.53 19.6116 306.592 30.1759C306.871 30.9014 307.142 31.7075 306.876 32.4376C304.826 38.0618 300.871 42.7498 296.992 47.3085L289.559 56.0479C287.193 58.829 284.827 61.6101 282.381 64.3212C269.929 78.1239 255.216 90.1938 238.175 97.6196C237.533 97.9003 236.843 98.1797 236.15 98.0677C235.457 97.9557 234.809 97.2836 234.99 96.6055C237.097 88.7289 239.216 80.4937 237.527 72.5171C237.119 70.5928 236.664 68.1704 238.253 67.0129C251.123 57.6395 260.389 44.2414 269.269 31.0254C271.502 27.7022 273.729 24.3697 275.705 20.8878C279.214 14.7055 281.916 8.06584 283.721 1.19078C283.969 0.246632 285.159 -0.178104 286.103 0.0692672C287.047 0.316639 287.783 1.03475 288.461 1.73619ZM282.959 11.8458C282.16 11.515 281.423 12.4092 281.016 13.172C280.575 13.9981 280.135 14.8255 279.694 15.653C271.548 30.9574 263.277 46.4971 250.862 58.5516C249.689 59.6905 248.378 61.066 248.594 62.6869C249.288 67.8824 246.514 73.3686 241.92 75.8903C239.835 77.0358 239.86 79.9902 240.165 82.3499C240.288 83.2947 240.644 84.4789 241.594 84.559C244.378 84.7937 247.049 86.1645 248.864 88.2889C249.436 88.959 250.521 88.5402 251.268 88.0708C270.048 76.2623 284.478 58.8197 298.567 41.6823C299.053 41.0909 299.57 40.3461 299.317 39.624C297.185 33.5498 297.526 26.646 300.248 20.8118C298.642 17.616 296.729 14.5755 294.542 11.7451C290.903 13.3246 286.624 13.362 282.959 11.8458ZM238.413 94.5005C239.154 94.8885 240.05 94.5198 240.792 94.1324C242.74 93.1156 244.616 91.9614 246.402 90.6812C246.874 90.3425 247.014 89.6671 246.848 89.111C246.68 88.5549 246.263 88.1062 245.8 87.7548C244.356 86.6586 242.338 86.3706 240.644 87.0187C240.332 87.1387 240.021 87.2947 239.806 87.5508C239.553 87.8515 239.46 88.2509 239.38 88.6349C238.97 90.5746 238.648 92.5322 238.413 94.5005ZM291.153 7.80113C289.877 5.30541 287.909 3.16841 285.527 1.69152C284.699 2.42163 284.537 3.5318 284.373 4.66331V4.66398C284.261 5.4401 284.147 6.22688 283.814 6.90832C283.706 7.13036 283.573 7.34239 283.441 7.55442C283.19 7.95715 282.939 8.35854 282.859 8.82195C282.736 9.52806 283.333 10.4135 284.011 10.1802C284.562 9.99013 285.139 10.1122 285.722 10.2355C286.029 10.3002 286.338 10.3655 286.645 10.3855C288.433 10.5009 289.917 9.09933 291.153 7.80113ZM301.267 22.7581C299.9 25.4778 300.116 28.6897 300.365 31.7235L300.722 36.0748C300.761 36.5529 301.021 37.199 301.482 37.0663C301.768 36.2648 302.314 35.6034 302.86 34.9406C303.339 34.3612 303.818 33.7798 304.126 33.1024C305.17 30.8073 304.012 28.1629 302.87 25.9152L301.267 22.7581ZM240.074 71.0475C240.132 71.899 241.015 72.5358 241.868 72.5118C242.72 72.4878 243.488 71.9363 243.986 71.2442C244.484 70.5515 244.757 69.7273 245.024 68.9165L245.902 66.2408C246.147 65.4947 246.162 64.3538 245.382 64.2665C245.1 64.2345 244.832 64.3839 244.601 64.5479C243.726 65.17 243.09 66.0628 242.47 66.9389L240.781 69.3246C240.415 69.842 240.032 70.4154 240.074 71.0475ZM38.6831 63.9051C32.7512 53.0421 28.964 41.0122 27.6034 28.709C27.5194 27.9522 26.6854 27.4622 25.9247 27.4888C25.1641 27.5148 24.4741 27.9169 23.8268 28.3183C14.6443 34.0125 6.82784 41.8937 1.2093 51.1245C0.640648 52.0586 0.0799984 53.0508 0.00800011 54.1423C-0.0626649 55.2131 0.346659 56.2526 0.767982 57.2394C6.96584 71.763 17.3016 84.0815 27.7934 95.8814C35.8738 104.97 44.5243 114.17 55.792 118.745C57.6127 119.484 60.2579 119.785 61.0299 117.977C61.2546 117.451 61.2426 116.86 61.2313 116.288L61.2306 116.266C61.1066 110.138 61.8026 103.994 63.2952 98.0497C63.6399 96.6742 63.8199 94.8192 62.5332 94.2231C57.6953 91.9808 54.3801 87.4594 51.2795 83.1201C46.8236 76.8851 42.3564 70.6315 38.6831 63.9051ZM49.1555 111.391C48.4889 111.568 47.8236 111.148 47.2669 110.74C37.0125 103.226 29.0653 93.0549 21.2575 83.0207L7.47849 65.3133C9.80377 63.8318 10.0991 60.6126 10.1498 57.8548C10.2158 54.2703 10.2638 50.5804 8.96913 47.2372C8.6818 46.4944 9.05646 45.671 9.45778 44.9822C11.1777 42.0297 13.5637 39.4673 16.3863 37.5417C16.6596 37.355 16.9489 37.1703 17.2763 37.1236C18.1409 37.0016 18.8042 37.8424 19.2662 38.5832C21.0902 41.509 23.5975 44.8182 27.0367 44.5775C28.346 44.4854 29.0727 46.0283 29.4546 47.2845C34.2052 62.9056 43.125 76.9951 53.5854 89.5304C54.9447 91.1593 55.2854 93.3583 55.6234 95.5366C56 97.9663 56.3734 100.371 58.15 101.932C59.6673 103.267 59.386 105.662 58.976 107.64C58.8926 108.045 58.7926 108.478 58.4853 108.754C58.2573 108.959 57.9487 109.045 57.652 109.124L49.1555 111.391ZM24.8448 40.9589C22.9635 39.644 21.3382 37.9644 20.0869 36.0401C19.8162 35.6241 19.5536 35.1573 19.6009 34.6633C19.6522 34.1259 20.0569 33.6958 20.4589 33.3357C21.4522 32.4469 22.5748 31.7028 23.7801 31.1341C24.2214 30.9254 24.7914 30.7567 25.1581 31.0787C25.3741 31.2681 25.4427 31.5715 25.4987 31.8535L27.236 40.5448C27.3387 41.0583 26.8 41.521 26.2767 41.5363C25.7527 41.551 25.2741 41.2589 24.8448 40.9589ZM7.64982 57.7695C7.61316 59.4044 7.48849 61.2394 6.26319 62.3222C6.00719 62.3522 5.83653 62.0708 5.73653 61.8335C4.85388 59.7438 3.95924 57.6035 3.81991 55.3398C3.68125 53.0754 4.4399 50.6237 6.28985 49.3115C6.53985 49.1335 6.90717 48.9868 7.12784 49.2002C7.2165 49.2855 7.2545 49.4095 7.28716 49.5289C7.78982 51.3772 7.75049 53.3235 7.70715 55.2378L7.64982 57.7695ZM57.5693 112.148C57.866 112.391 57.898 112.826 57.906 113.21L57.994 117.412C56.2707 116.457 54.6194 115.37 53.0594 114.166C52.7641 113.938 52.4388 113.568 52.6201 113.241C52.7101 113.079 52.8968 113.001 53.0701 112.937C54.1854 112.526 55.3387 112.217 56.51 112.017C56.872 111.955 57.2847 111.915 57.5693 112.148ZM57.6687 95.596C57.6527 95.4059 57.6527 95.1993 57.7653 95.0459C58.0633 94.6412 58.7086 95.0079 58.982 95.4293C59.6393 96.4448 59.7846 97.775 59.362 98.9085C58.396 98.0804 57.774 96.8635 57.6687 95.596ZM314.381 63.6891C316.098 61.5254 319.23 61.214 321.991 61.2814C322.637 61.2967 323.301 61.328 323.888 61.5961C325.522 62.3409 325.868 64.4759 325.924 66.2708C325.974 67.9037 325.965 69.5586 325.568 71.1436C325.171 72.7285 324.35 74.2554 323.037 75.2282C322.447 75.6656 321.763 75.9843 321.039 76.1056C319.919 76.293 318.774 76.0056 317.711 75.6096C316.293 75.0822 314.949 74.3574 313.729 73.4632C313.133 73.0265 312.518 72.4551 312.499 71.7163C312.455 70.0127 312.645 68.3038 313.064 66.6515C313.331 65.596 313.703 64.5419 314.381 63.6891ZM318.835 74.4647C321.041 75.0982 323.387 73.3919 324.223 71.2542C325.058 69.1172 324.749 66.7162 324.289 64.4678C324.113 63.6044 323.191 63.1223 322.341 62.8916C321.024 62.5342 319.625 62.4869 318.287 62.7543C317.623 62.887 316.944 63.115 316.478 63.6064C316.223 63.8744 316.048 64.2058 315.875 64.5319L314.583 66.9742C314.356 67.4043 314.127 67.8377 313.993 68.3044C313.594 69.702 314.122 71.2542 315.097 72.3311C316.073 73.4086 317.438 74.064 318.835 74.4647ZM289.316 99.1612C291.339 99.8666 293.172 101.108 294.578 102.724C295.786 104.114 296.707 105.917 296.453 107.741C296.36 108.411 296.113 109.049 295.831 109.663C294.765 111.991 292.929 114.222 290.409 114.672C289.088 114.908 287.725 114.625 286.453 114.192C284.983 113.692 283.581 112.991 282.299 112.113C281.62 111.648 280.945 111.095 280.647 110.327C280.442 109.798 280.435 109.215 280.443 108.647C280.462 107.242 280.555 105.814 281.044 104.498C281.664 102.832 282.875 101.458 284.161 100.231C284.677 99.7373 285.225 99.2512 285.889 98.9865C286.975 98.5538 288.212 98.7758 289.316 99.1612ZM291.384 111.402C292.845 109.956 293.696 107.859 293.465 105.815C293.233 103.771 291.85 101.854 289.916 101.156C289.112 100.866 288.221 100.785 287.397 101.013C286.953 101.136 286.536 101.346 286.147 101.593C284.482 102.652 283.313 104.458 283.029 106.411C282.746 108.364 283.352 110.429 284.647 111.918C285.475 112.872 286.829 113.281 288.082 113.122C289.335 112.964 290.485 112.291 291.384 111.402ZM106.796 87.114C106.728 86.1505 105.44 85.8985 104.474 85.9265C99.4064 86.0759 94.3445 86.4552 89.3113 87.0647C88.484 87.1647 88.4173 88.4976 89.0806 89.0016C89.7446 89.5051 90.6686 89.4117 91.4932 89.2937L106.796 87.114ZM90.5939 93.6297C90.6379 93.1336 91.2612 92.9542 91.7559 92.8982L121.607 89.5171C122.147 89.4557 122.723 89.4004 123.208 89.6437C123.694 89.8864 124.007 90.5519 123.69 90.9933C123.456 91.318 123.008 91.384 122.609 91.4227L92.0765 94.3865C91.4419 94.4478 90.5379 94.2651 90.5939 93.6297ZM157.516 98.6591C155.846 99.0259 154.132 98.4231 152.53 97.8243C147.351 95.8887 142.192 93.899 137.054 91.8567C134.98 91.0319 132.704 92.2668 130.839 93.4923C125.44 97.0395 120.243 100.892 115.279 105.026C114.005 106.088 112.043 105.343 110.757 104.294C110.485 104.073 110.217 103.836 109.949 103.599C108.947 102.713 107.933 101.817 106.638 101.633C104.646 101.35 102.895 102.86 101.452 104.261L92.1472 113.299C90.8959 114.515 89.5786 116.461 90.6926 117.804C91.4272 118.69 92.7765 118.645 93.9198 118.513C99.889 117.821 105.828 116.85 111.766 115.88C121.58 114.277 131.388 112.675 141.314 112.331C143.513 112.255 145.714 112.241 147.915 112.227C149.293 112.218 150.672 112.209 152.05 112.185C158.265 112.077 164.474 111.658 170.648 110.931C170.947 110.896 171.287 110.834 171.441 110.576C171.558 110.382 171.529 110.136 171.496 109.912L168.881 92.1161C168.748 91.212 168.516 90.1671 167.69 89.7764C166.855 89.3817 165.872 89.8904 165.187 90.5099C164.115 91.478 163.289 92.7649 162.474 94.0337C161.138 96.1154 159.831 98.1497 157.516 98.6591ZM115.051 108.396C120.636 103.803 126.459 99.5006 132.49 95.5113C133.728 94.6925 135.233 93.8537 136.617 94.3911L151.239 100.075C153.68 101.023 156.349 101.984 158.854 101.224C161.767 100.339 163.508 97.4409 164.975 94.7738C165.26 94.2544 166.09 94.3145 166.501 94.7405C166.911 95.1673 167.015 95.794 167.1 96.3801L168.17 103.801C168.335 104.941 168.496 106.123 168.167 107.226C167.837 108.329 166.87 109.331 165.719 109.309C146.897 108.946 128.038 110.498 109.528 113.935C108.957 114.041 108.387 114.148 107.816 114.256H107.814L107.814 114.257H107.813H107.812L107.811 114.258H107.81H107.809H107.808C103.386 115.093 98.9477 115.931 94.4538 115.946C96.6238 112.872 99.3737 110.261 102.104 107.672C103.603 106.25 105.478 104.717 107.49 105.182C108.577 105.434 109.411 106.214 110.24 106.992C110.506 107.24 110.771 107.489 111.045 107.721C112.171 108.671 113.913 109.331 115.051 108.396ZM356.529 160.163C356.03 160.349 355.472 160.222 354.964 160.062C351.523 158.98 348.727 156.559 345.98 154.181C345.608 153.859 345.237 153.538 344.865 153.22C340.313 149.337 335.373 145.908 330.142 143.003C329.61 142.707 329.052 142.397 328.726 141.882C328.4 141.368 328.41 140.585 328.913 140.242C331.258 138.64 332.78 135.892 332.891 133.054C332.921 132.297 333.776 131.793 334.53 131.854C335.284 131.914 335.942 132.368 336.559 132.806L360.459 149.774C360.924 150.104 361.426 150.488 361.54 151.047C361.632 151.503 361.442 151.965 361.249 152.389C360.218 154.664 359.033 156.869 357.704 158.983C357.402 159.462 357.059 159.965 356.529 160.163ZM332.618 140.033C332.337 140.529 332.094 141.246 332.549 141.588L352.053 156.276C353.121 157.08 354.78 157.834 355.621 156.794C356.587 155.601 357.489 154.356 358.322 153.066C358.55 152.713 358.782 152.309 358.7 151.897C358.626 151.521 358.309 151.249 358.012 151.007C350.854 145.202 343.275 139.917 335.356 135.205L332.618 140.033ZM322.912 149.015C323.227 148.475 323.609 147.883 324.22 147.751C324.688 147.649 325.163 147.849 325.594 148.059C327.942 149.199 330.093 150.745 331.923 152.607C332.363 153.056 332.418 153.777 332.222 154.374C332.026 154.971 331.622 155.473 331.226 155.961C330.59 156.745 329.912 157.561 328.973 157.933C327.96 158.334 326.781 158.141 325.821 157.624C324.862 157.107 324.092 156.299 323.413 155.446C322.528 154.334 321.735 152.999 321.873 151.585C321.963 150.657 322.443 149.82 322.912 149.015ZM327.019 155.243C328.496 155.817 329.441 155.362 329.48 154.393C329.504 153.782 328.971 153.311 328.486 152.937L327.019 151.809C326.534 151.436 326 151.045 325.389 151.049C324.777 151.053 324.154 151.684 324.405 152.242C324.367 152.512 325.543 154.668 327.019 155.243ZM321.19 167.168C321.55 167.366 321.932 167.558 322.342 167.567C322.753 167.576 323.198 167.343 323.299 166.945C323.535 166.011 324.154 165.236 324.759 164.477C324.825 164.395 324.891 164.312 324.956 164.229C325.618 163.39 326.258 162.44 326.276 161.371C326.294 160.301 325.409 159.162 324.349 159.308C323.515 159.423 322.739 158.876 322.133 158.29C322.036 158.197 321.94 158.102 321.844 158.006C321.337 157.5 320.821 156.985 320.148 156.766C319.347 156.505 318.256 156.92 318.193 157.76C318.065 159.452 316.659 160.726 315.355 161.812C314.964 162.136 315.317 162.76 315.682 163.112C317.326 164.702 319.184 166.07 321.19 167.168ZM321.45 163.945L318.881 162.206C318.228 161.764 318.281 160.682 318.863 160.15C319.445 159.618 320.351 159.577 321.093 159.844C321.835 160.11 322.453 160.632 323.053 161.144C323.449 161.483 323.505 162.1 323.323 162.59C323.141 163.079 322.771 163.471 322.411 163.848C322.287 163.978 322.149 164.115 321.972 164.138C321.784 164.162 321.607 164.051 321.45 163.945ZM341.815 164.059L343.071 161.389C343.455 160.572 343.828 159.561 343.309 158.822C343.129 158.565 342.863 158.384 342.603 158.209L338.033 155.128C337.54 154.796 337.006 154.451 336.412 154.461C335.708 154.472 335.117 154.974 334.617 155.471C333.868 156.213 333.168 157.005 332.522 157.84C332.031 158.474 331.628 159.519 332.299 159.96L339.292 164.549C339.844 164.911 340.544 165.283 341.123 164.967C341.464 164.783 341.649 164.409 341.815 164.059ZM340.265 162.169C339.972 162.237 339.665 162.162 339.376 162.075C337.611 161.543 335.995 160.524 334.754 159.16C334.341 158.707 334.574 157.906 335.099 157.588C335.624 157.27 336.306 157.343 336.871 157.58C337.236 157.734 337.57 157.948 337.905 158.162C338.088 158.278 338.272 158.396 338.46 158.504C338.664 158.619 338.875 158.725 339.087 158.831C339.688 159.132 340.289 159.434 340.699 159.955C341.253 160.661 341.139 161.968 340.265 162.169ZM342.627 165.151C343.433 164.959 343.679 164.137 343.935 163.283C344.146 162.577 344.365 161.849 344.911 161.436C345.851 160.725 347.183 161.319 348.195 161.922L351.417 163.839C351.93 164.144 352.455 164.46 352.824 164.931C353.192 165.401 353.373 166.068 353.115 166.606C352.943 166.966 352.619 167.205 352.291 167.445C352.023 167.642 351.753 167.84 351.564 168.108C351.322 168.451 351.232 168.881 351.143 169.306C351.031 169.839 350.921 170.365 350.514 170.7C349.773 171.311 348.67 170.822 347.85 170.32L343.311 167.546C342.854 167.267 342.371 166.96 342.146 166.472C341.921 165.985 342.105 165.275 342.627 165.151ZM348.577 167.905C349.226 167.683 349.749 167.201 350.25 166.732C350.613 166.392 350.127 165.832 349.693 165.587L346.913 164.022C346.623 163.859 346.219 163.71 345.995 163.955C345.271 164.745 345.165 166.036 345.752 166.933C346.338 167.83 347.562 168.251 348.577 167.905ZM316.675 167.808C316.053 167.632 315.419 167.454 314.911 167.106C314.121 166.568 313.022 166.699 312.193 167.175C311.365 167.65 310.747 168.414 310.149 169.159C309.818 169.573 309.476 170.004 309.35 170.519C309.223 171.034 309.374 171.658 309.838 171.916L314.686 174.619C315.053 174.824 315.463 175.036 315.873 174.945C316.282 174.854 316.564 174.491 316.81 174.153L318.057 172.436C318.752 171.48 319.477 170.262 318.97 169.195C318.563 168.341 317.632 168.078 316.675 167.808ZM315.14 172.255C314.887 172.322 314.626 172.2 314.392 172.08L311.089 170.4C311.724 169.5 312.932 169.155 314.027 169.264C315.123 169.373 316.139 169.86 317.13 170.34L315.612 171.916C315.476 172.058 315.33 172.204 315.14 172.255ZM292.257 105.023C292.768 105.803 292.608 106.845 292.269 107.714C291.821 108.859 291.065 109.92 289.998 110.529C288.931 111.138 287.528 111.227 286.488 110.572C285.447 109.918 284.925 108.462 285.483 107.366C285.612 107.113 285.787 106.888 285.963 106.664C286.132 106.449 286.3 106.234 286.427 105.994C286.511 105.836 286.577 105.668 286.642 105.5C286.736 105.258 286.83 105.017 286.979 104.806C287.508 104.056 288.551 103.909 289.469 103.922C290.51 103.937 291.685 104.152 292.257 105.023ZM289.933 105.518C288.508 105.5 287.172 106.695 287.031 108.113C286.973 108.692 287.219 109.412 287.796 109.492C288.228 109.551 288.607 109.218 288.897 108.892C289.512 108.203 290.039 107.438 290.465 106.618C290.607 106.343 290.733 105.99 290.545 105.744C290.409 105.564 290.158 105.521 289.933 105.518ZM323.999 68.3631C323.889 67.0589 323.016 65.7761 321.749 65.4487C320.139 65.0339 318.578 66.1674 317.3 67.2309C316.922 67.5457 316.527 67.8837 316.367 68.3491C316.095 69.1386 316.584 69.97 317.065 70.6515C317.617 71.4323 318.206 72.217 319.01 72.7331C319.815 73.2492 320.887 73.4499 321.731 73.0012C322.161 72.7725 322.496 72.3991 322.787 72.0084C323.569 70.9582 324.108 69.6673 323.999 68.3631ZM320.428 71.7076C319.882 71.789 319.316 71.5689 318.915 71.1909C318.313 70.6241 318.074 69.7127 318.285 68.9132C318.506 68.0718 319.212 67.3763 320.057 67.1689C320.903 66.9609 321.851 67.2496 322.437 67.8931C322.415 68.0684 322.397 68.2451 322.378 68.4218C322.316 69.0219 322.253 69.6227 322.046 70.1854C321.777 70.9148 321.197 71.5923 320.428 71.7076ZM277.094 275.181C280.062 264.678 285.666 255.146 291.213 245.746C292.15 244.158 293.312 242.408 295.132 242.107C295.849 241.988 296.228 241.208 296.472 240.523C299.48 232.084 299.77 222.698 297.289 214.089C296.581 211.631 297.452 209.026 298.315 206.619L304.996 187.98C304.301 186.778 302.987 186.25 301.656 185.715C300.543 185.268 299.417 184.816 298.632 183.96C296.415 181.543 298.088 177.699 299.825 174.916L330.274 126.145C331.517 124.153 334.246 123.528 336.533 124.059C338.82 124.59 340.773 126.029 342.654 127.435L364.862 144.025C368.834 146.993 373.22 150.784 372.991 155.738C372.865 158.48 371.296 160.917 369.779 163.203L352.179 189.728C349.903 193.158 349.627 197.328 349.35 201.517C349.225 203.412 349.099 205.31 348.788 207.146C347.271 216.101 341.307 223.518 335.594 230.623L335.238 231.067C335.129 231.202 335.02 231.338 334.912 231.472C328.999 238.838 323.083 247.063 322.751 256.503C322.355 267.754 317.011 278.743 308.405 286L315.893 267.831C317.674 263.509 319.323 258.134 316.343 254.534C314.995 252.905 312.957 252.043 311 251.241L299.37 246.468C298.568 246.139 297.742 245.804 296.875 245.799C294.173 245.783 292.566 248.714 291.471 251.184C287.681 259.729 282.84 267.809 277.094 275.181ZM315.335 250.506C317.329 251.244 320.137 251.693 321.081 249.787C325.655 240.566 330.354 231.168 337.634 223.893C341.829 219.7 344.401 214.104 345.857 208.353C347.312 202.601 347.724 196.645 348.13 190.726C346.363 191.369 346.21 193.754 346.217 195.634C346.234 199.779 345.509 203.926 344.088 207.82C343.791 208.635 343.391 209.516 342.595 209.86C341.799 210.203 340.625 209.513 340.893 208.687C342.947 202.354 343.713 195.605 343.129 188.972C342.949 186.915 342.566 184.715 341.104 183.258C341.263 186.505 341.421 189.767 341.092 193.001C340.523 198.597 338.517 203.933 336.528 209.194C336.27 209.878 335.958 210.622 335.302 210.943C334.646 211.264 333.628 210.756 333.8 210.046L336.778 197.734C338.415 190.965 340.025 183.684 337.49 177.197C336.214 177.111 335.913 178.937 336.027 180.211C336.808 188.941 334.395 197.605 332.006 206.038C331.727 207.023 330.74 208.253 329.973 207.577C329.642 207.285 329.627 206.781 329.654 206.341C329.804 203.861 330.484 201.46 331.163 199.062C331.374 198.318 331.584 197.574 331.779 196.828C333.574 189.951 334.032 182.727 333.12 175.678C331.547 177.695 330.88 180.252 330.25 182.731L326.512 197.445C324.823 204.097 322.664 211.409 316.805 214.982C316.339 215.267 315.798 215.532 315.266 215.405C314.605 215.248 314.231 214.566 313.955 213.945C310.216 205.522 309.749 195.695 312.672 186.955C312.849 186.425 312.31 185.871 311.753 185.827C311.195 185.783 310.673 186.086 310.216 186.409C305.42 189.794 303.582 195.926 302.056 201.596L300.028 209.135C299.731 210.236 299.433 211.347 299.372 212.486C299.277 214.216 299.729 215.91 300.179 217.594C300.283 217.984 300.387 218.374 300.484 218.764C302.436 226.596 301.554 235.104 298.038 242.369C297.52 243.44 298.888 244.415 300.004 244.828L315.335 250.506ZM322.913 178.555C322.113 178.004 321.256 177.375 321.009 176.436C320.629 174.995 322.001 173.548 323.478 173.354C324.954 173.161 326.399 173.873 327.623 174.722C329.346 175.918 331.528 174.095 332.819 172.441C331.078 171.398 329.417 169.781 329.348 167.754C329.28 165.725 331.745 163.794 333.386 164.987C334.022 165.451 334.793 165.734 335.554 166.014C336.696 166.434 337.818 166.847 338.444 167.846C339.156 168.983 338.902 170.52 338.178 171.649C337.453 172.778 336.338 173.588 335.248 174.371C336.812 174.526 338.334 175.084 339.627 175.975L341.037 171.866C341.146 171.548 341.265 171.214 341.515 170.99C341.999 170.556 342.751 170.69 343.369 170.886C344.993 171.402 346.585 172.206 347.656 173.53C348.727 174.854 349.174 176.778 348.425 178.307C347.677 179.838 345.564 180.653 344.132 179.731C343.835 179.54 343.537 179.284 343.238 179.028C342.44 178.344 341.642 177.66 340.872 178.207C343.224 180.04 344.839 182.791 345.293 185.739C352.698 174.457 360.024 163.123 367.269 151.739C367.961 150.652 368.519 148.939 367.392 148.314C362.58 145.644 358.328 142.068 354.085 138.501C348.729 133.999 343.39 129.51 336.964 126.873C336.556 126.706 336.11 126.545 335.684 126.657C335.236 126.775 334.922 127.164 334.641 127.53C322.675 143.152 311.934 159.715 302.552 177.013C301.244 179.427 302.996 182.303 304.671 184.478C305.508 185.565 307.125 186.713 308.038 185.689C309.189 184.399 311.076 183.662 312.705 184.238C314.335 184.814 315.349 186.933 314.463 188.418C313.822 189.491 315.077 190.685 316.173 191.285C318.365 192.486 320.612 193.583 322.906 194.572C323.225 194.71 323.596 194.845 323.907 194.689C324.202 194.541 324.322 194.189 324.415 193.871L326.956 185.125C327.374 183.687 327.653 181.821 326.42 180.971L322.913 178.555ZM368.373 154.039C368.035 153.923 367.728 154.261 367.529 154.558L348.501 183.045C347.989 183.812 347.465 184.609 347.315 185.519C347.167 186.428 347.501 187.485 348.328 187.89C349.699 188.561 351.132 187.152 352.011 185.905L369.691 160.844C371.003 158.983 369.892 156.439 368.769 154.458C368.671 154.288 368.559 154.103 368.373 154.039ZM314.8 192.081C314.465 191.837 313.964 191.982 313.683 192.287C313.403 192.592 313.289 193.01 313.183 193.411C312.923 194.397 312.661 195.393 312.623 196.413C312.584 197.432 312.769 198.446 312.954 199.449L314.776 209.356C314.853 209.77 314.942 210.212 315.237 210.514C315.531 210.817 316.105 210.883 316.343 210.534C319.04 206.589 321.775 202.567 323.186 198.001C323.361 197.434 323.412 196.636 322.856 196.426C319.992 195.349 317.274 193.882 314.8 192.081ZM335.842 167.638C334.929 166.768 333.722 166.212 332.467 166.084C331.323 165.967 330.663 167.574 331.185 168.599C331.708 169.624 332.861 170.131 333.928 170.56C334.682 170.862 335.596 171.146 336.252 170.67C337.196 169.984 336.687 168.443 335.842 167.638ZM328.33 179.118C328.702 178.853 328.751 178.311 328.647 177.866C328.254 176.189 326.416 175.332 324.765 174.842C324.127 174.652 323.333 174.519 322.883 175.01C322.507 175.42 322.587 176.1 322.911 176.552C323.235 177.004 323.743 177.283 324.232 177.546L326.781 178.919C327.266 179.18 327.882 179.437 328.33 179.118ZM342.835 173.074C342.295 173.797 342.351 174.848 342.801 175.63C343.251 176.411 344.031 176.954 344.854 177.323C345.136 177.451 345.446 177.562 345.749 177.501C346.01 177.449 346.233 177.273 346.393 177.061C346.981 176.274 346.695 175.088 346.021 174.373C345.346 173.658 344.386 173.3 343.462 172.965C343.303 172.907 343.117 172.851 342.971 172.939C342.958 172.947 342.945 172.956 342.933 172.966C342.896 172.997 342.865 173.035 342.835 173.074ZM87.17 238.595C87.5226 235.986 88.0173 233.115 90.0666 231.462C91.7012 230.145 93.9445 229.935 96.0431 229.894C102.918 229.762 109.815 230.879 116.297 233.173C118.347 233.899 120.493 234.855 121.615 236.72C122.828 238.738 122.533 241.284 122.197 243.615L116.991 279.788C120.581 269.313 123.158 258.49 124.674 247.52C125.382 242.403 125.629 236.53 122.058 232.797C116.483 226.97 116.635 218.67 116.79 210.23C116.923 202.947 117.059 195.559 113.516 189.568C112.36 187.613 114.937 185.595 117.081 184.844C126.527 181.537 136.597 180.018 146.599 180.395C148.433 194.883 148.929 209.54 148.079 224.118C147.888 227.388 152.524 228.231 155.779 227.87L268.685 215.348C269.25 215.286 269.861 215.202 270.261 214.798C270.729 214.328 270.752 213.588 270.745 212.924C270.479 186.466 269.718 160.013 268.462 133.583C268.413 132.551 268.282 131.367 267.428 130.786C266.788 130.351 265.946 130.408 265.175 130.483L184.587 138.297C189.882 113.323 195.206 87.8808 192.791 62.4662C175.174 74.214 152.442 74.126 131.304 72.8818C130.426 72.8305 129.546 72.7778 128.664 72.7251C108.322 71.5089 87.11 70.2414 68.8231 79.0421C78.3982 104.433 88.0826 132.149 80.1235 158.093C79.4195 160.388 78.5815 162.642 77.7442 164.896C76.4529 168.371 75.1629 171.843 74.365 175.458C73.0496 181.417 73.247 188.088 76.7729 193.069C81.8788 200.281 85.936 208.481 86.862 217.269C87.74 225.609 85.7774 233.879 83.8174 242.141C81.7694 250.773 79.7242 259.395 80.9235 268.074C81.1268 269.542 81.4928 271.122 82.6428 272.058L87.17 238.595ZM95.1578 133.798C97.2931 133.873 98.1417 136.554 98.4144 138.674L100.576 155.456C96.3558 153.268 90.4179 156.982 90.5392 161.736C86.982 154.87 86.442 147.001 85.9073 139.211C85.7907 137.517 85.6747 135.826 85.528 134.15C83.9574 116.229 78.5575 98.8952 73.191 81.7252C72.4257 79.2768 75.7309 77.6892 78.2682 77.3165C94.9211 74.8748 111.775 75.2122 128.636 75.5496C136.28 75.7023 143.924 75.8549 151.552 75.7496C165.106 75.5616 179.448 74.278 190.443 66.3481C192.914 82.8253 189.555 99.4492 186.239 115.864C185.79 118.085 185.342 120.301 184.91 122.513C181.28 141.077 178.809 160.864 185.754 178.457C186.047 179.199 185.049 179.758 184.269 179.921C178.557 181.113 172.651 181.369 166.856 180.678C164.371 180.381 161.912 179.912 159.452 179.443C157.599 179.09 155.746 178.736 153.882 178.457C139.847 176.35 125.198 178.537 112.389 184.649C111.876 184.894 111.265 184.779 110.728 184.593C108.134 183.695 106.284 181.298 105.36 178.712C104.437 176.126 104.305 173.336 104.182 170.593L103.665 159.089C103.646 158.676 103.754 158.115 104.168 158.102C126.606 157.401 149.018 155.888 171.346 153.567C170.402 148.283 170.309 142.848 171.07 137.535C171.551 134.181 168.397 131.123 165.039 130.674C161.681 130.225 158.36 131.746 155.572 133.671C154.529 134.391 153.527 135.173 152.526 135.955C150.852 137.262 149.179 138.569 147.315 139.582C146.096 140.244 144.629 140.779 143.349 140.244C141.782 139.589 141.257 137.724 140.787 136.06C140.758 135.955 140.729 135.852 140.699 135.749C140.088 133.605 139.079 131.472 137.304 130.123C135.53 128.775 132.852 128.44 131.1 129.817C129.602 130.995 129.128 133.036 128.877 134.925C128.855 135.093 128.833 135.261 128.812 135.431C128.589 137.168 128.359 138.963 127.322 140.356C126.185 141.885 123.646 142.541 122.399 141.1C119.931 138.251 115.601 137.654 111.968 138.654C108.334 139.653 105.226 141.962 102.211 144.224C100.392 141.378 100.242 137.545 101.832 134.565L101.858 134.515C102.158 133.956 102.501 133.313 102.236 132.743C102.073 132.39 101.712 132.174 101.354 132.02C99.2164 131.103 96.4851 131.887 95.1578 133.798ZM159.404 181.903C160.599 182.142 162.068 182.675 162.142 183.892C162.847 195.497 172.069 205.927 183.406 208.495C194.744 211.064 207.31 205.87 213.92 196.306C220.531 186.742 221.049 173.455 215.628 163.17C209.814 152.139 195.687 146.281 183.775 149.962C183.222 147.525 183.284 144.95 183.954 142.543C184.079 142.095 184.241 141.628 184.602 141.336C184.954 141.051 185.431 140.986 185.881 140.932L219.435 136.89C222.385 136.534 225.343 136.178 228.313 136.154C241.09 136.049 253.857 134.774 266.403 132.352C268.352 158.534 269.27 184.792 269.152 211.045C269.147 212.29 268.768 213.946 267.523 213.982C246.406 214.597 225.455 217.375 204.495 220.155C190.414 222.022 176.329 223.89 162.186 225.103C159.034 225.373 155.861 225.611 152.711 225.31C152.14 225.256 151.497 225.139 151.187 224.657C150.999 224.366 150.979 224.002 150.963 223.656L149.08 181.665C149.055 181.122 149.089 180.468 149.558 180.196C149.869 180.015 150.259 180.08 150.612 180.15L159.404 181.903ZM101.629 172.182C101.295 174.363 100.92 176.817 102.348 178.467C107.677 184.622 113.213 191.197 114.629 199.215C115.29 202.959 115.006 206.812 114.723 210.65C114.367 215.484 114.012 220.293 115.551 224.828C115.591 224.946 115.633 225.065 115.675 225.183C115.957 225.991 116.245 226.816 116.154 227.66C116.049 228.628 115.209 229.602 114.249 229.437L103.11 227.515C99.4204 226.878 95.5231 226.259 92.0185 227.576C91.3412 227.831 90.5612 227.384 90.1986 226.758C89.8353 226.132 89.7879 225.378 89.7559 224.655C89.7179 223.782 89.6899 222.902 89.6613 222.021C89.4813 216.474 89.2979 210.824 86.7307 205.964L78.5415 190.458C77.3322 188.169 76.0949 185.778 76.0116 183.19C75.9556 181.463 76.4222 179.765 76.8849 178.099L80.9701 163.38C81.8301 160.281 82.7401 157.083 84.7774 154.595C89.7259 162.992 90.2139 173.855 86.0387 182.663C85.6527 183.478 86.8327 184.316 87.674 183.992C88.5146 183.667 88.9419 182.745 89.2386 181.894C90.4259 178.483 90.8426 174.888 91.2592 171.286C91.5972 168.373 91.9345 165.456 92.6819 162.631C93.1392 160.9 93.7998 159.134 95.1358 157.942C96.4718 156.751 98.6511 156.343 100.051 157.458C101.122 158.312 101.471 159.771 101.675 161.125C102.212 164.699 102.21 168.355 101.668 171.928C101.655 172.012 101.642 172.096 101.629 172.182ZM120.85 143.123C122.492 144.38 124.1 145.61 126.07 145.382C128.574 145.093 130.135 142.515 130.862 140.1C131.022 139.572 131.163 139.031 131.305 138.489C131.812 136.555 132.322 134.605 133.649 133.15C134.034 132.727 134.59 132.334 135.138 132.5C135.581 132.634 135.84 133.083 136.046 133.498C136.338 134.087 136.614 134.685 136.89 135.284C137.669 136.973 138.449 138.662 139.581 140.129C141.114 142.116 143.5 143.679 145.995 143.406C148.225 143.161 149.969 141.582 151.667 140.042C152.015 139.725 152.362 139.411 152.71 139.111C156.802 135.582 162.132 133.517 167.533 133.368C166.804 135.189 167.29 137.176 167.767 139.125C167.881 139.594 167.995 140.061 168.092 140.524C168.855 144.169 168.469 148.047 167.004 151.471L130.929 154.249C122.507 154.898 114.064 155.547 105.623 155.25C105.09 155.23 104.543 155.205 104.052 154.995C103.126 154.599 102.575 153.61 102.376 152.621C101.928 150.406 102.95 148.099 104.497 146.451C106.044 144.804 108.064 143.694 110.047 142.612C112.112 141.486 114.404 140.322 116.706 140.803C118.238 141.123 119.555 142.13 120.85 143.123ZM189.162 195.682C183.697 195.569 178.962 191.11 177.339 185.889C177.008 184.823 177.697 183.654 178.647 183.068C179.598 182.483 180.748 182.345 181.857 182.22L189.864 181.321C187.43 176.586 185.695 171.492 184.735 166.256C184.648 165.781 184.569 165.281 184.719 164.823C184.982 164.017 185.851 163.592 186.654 163.322C193.161 161.135 200.973 163.79 204.799 169.49C208.625 175.19 208.123 183.428 203.633 188.62C201.689 190.868 199.141 192.527 196.457 193.804C194.169 194.892 191.696 195.734 189.162 195.682ZM215.096 167.543C216.069 170.755 216.35 174.133 216.484 177.487C214.3 177.156 212.094 176.968 209.886 176.925C209.454 171.285 205.701 166.19 200.767 163.425C195.833 160.661 189.877 160.063 184.302 161.01C184.254 160.215 184.109 159.385 183.964 158.556C183.582 156.367 183.2 154.178 184.615 152.623C185.47 151.685 186.772 151.309 188.02 151.077C193.704 150.018 199.765 151.127 204.706 154.132C209.647 157.137 213.421 162.008 215.096 167.543ZM175.014 185.32C175.005 185.424 174.997 185.527 174.992 185.624C174.955 186.403 175.318 187.118 175.677 187.826C175.774 188.016 175.87 188.205 175.958 188.394C176.375 189.292 176.577 190.474 175.88 191.177C174.195 192.878 172.707 194.773 171.453 196.812C171.143 197.316 170.379 197.358 169.869 197.057C169.359 196.756 169.043 196.219 168.749 195.706C166.885 192.456 164.974 189.056 164.742 185.316C164.713 184.85 164.764 184.288 165.176 184.071C165.358 183.976 165.572 183.973 165.777 183.972L174.114 183.947C174.313 183.946 174.523 183.948 174.695 184.046C175.105 184.279 175.058 184.819 175.014 185.32Z" fill="#00160A"/>
</svg>
