<svg width="283" height="395" viewBox="0 0 283 395" fill="none" xmlns="http://www.w3.org/2000/svg">
<path d="M159.197 81.5106C159.353 80.8047 162.575 81.3588 163.481 82.5641L163.76 82.9377C164.605 84.0565 165.119 84.4098 166.209 84.4098C167.6 84.4098 168.075 84.1606 168.866 83.1241L169.077 82.8395C169.996 81.5813 173.237 80.6679 173.483 81.3477C173.728 82.0269 173.377 82.7774 172.697 83.0234C172.188 83.2072 171.898 83.4493 171.402 84.1004L171.168 84.4144C169.81 86.2739 168.68 87.027 166.209 87.027C164.202 87.027 163.039 86.2753 161.799 84.6814L161.389 84.137L161.203 83.8956C160.795 83.378 160.545 83.1686 160.256 83.0862L160.193 83.0705C159.487 82.9148 159.041 82.2166 159.197 81.5106Z" fill="#121212"/>
<path d="M161.74 62.0542C160.181 61.5772 158.759 61.4405 157.937 61.5406C157.052 61.6479 155.934 62.1039 154.902 62.5247C154.076 62.8616 153.305 63.1763 152.755 63.2706C152.208 63.3648 151.387 63.334 150.587 63.3046C149.576 63.2666 148.599 63.2306 148.251 63.4479C147.626 63.8378 148.558 64.4679 149.104 64.5399C150.989 64.7892 152.362 64.8487 153.272 64.7035C154.079 64.5739 154.807 64.3508 155.797 63.9707L156.831 63.5781C157.518 63.3222 157.694 63.281 157.937 63.2758L158.107 63.2764C158.799 63.2935 159.819 63.5009 161.142 63.9052C161.667 64.0655 162.227 63.7816 162.391 63.2706C162.556 62.7595 162.265 62.2152 161.74 62.0542Z" fill="#121212"/>
<path d="M165.598 76.0973C166.336 73.9414 166.764 63.3182 165.951 63.3097C165.138 63.3011 164.472 63.9535 164.464 64.7668C164.452 65.9098 164.459 67.0064 164.466 68.0343C164.486 71.1194 164.502 73.5881 163.986 74.8502L163.876 75.1106C163.209 76.7647 163.023 78.1714 164.804 78.5012C165.867 78.6975 170.643 75.9893 170.367 75.2245C170.093 74.4589 169.249 74.0618 168.484 74.3366L168.284 74.4079C167.829 74.5675 167.235 75.0648 166.7 75.5123C166.225 75.9095 165.797 76.2681 165.555 76.3165L165.517 76.323L165.598 76.0973Z" fill="#121212"/>
<path d="M171.641 62.0542C173.2 61.5772 174.622 61.4405 175.444 61.5406C176.328 61.6479 177.447 62.1039 178.479 62.5247C179.305 62.8616 180.076 63.1763 180.626 63.2706C181.173 63.3648 181.993 63.334 182.794 63.3046C183.805 63.2666 184.781 63.2306 185.13 63.4479C185.755 63.8378 184.823 64.4679 184.277 64.5399C182.392 64.7892 181.019 64.8487 180.109 64.7035C179.302 64.5739 178.573 64.3508 177.583 63.9707L176.55 63.5781C175.863 63.3222 175.687 63.281 175.444 63.2758L175.274 63.2764C174.582 63.2935 173.561 63.5009 172.239 63.9052C171.714 64.0655 171.154 63.7816 170.989 63.2706C170.825 62.7595 171.116 62.2152 171.641 62.0542Z" fill="#121212"/>
<path d="M180.065 69.4512C180.476 68.7498 180.241 67.8475 179.539 67.4366C179.292 67.2914 179.096 67.5668 178.798 67.9843C178.252 68.7498 177.365 69.9936 175.196 69.9936C173.01 69.9936 172.114 68.738 171.568 67.9745C171.277 67.5675 171.087 67.2999 170.853 67.4366C170.152 67.8475 169.916 68.7498 170.328 69.4512C171.365 71.2211 173.053 72.1417 175.196 72.1417C177.34 72.1417 179.027 71.2211 180.065 69.4512Z" fill="#121212"/>
<path d="M161.273 67.47C161.956 67.9097 162.153 68.8212 161.713 69.5043C160.586 71.2545 158.785 72.1424 156.494 72.1424C154.187 72.1424 152.404 71.2382 151.355 69.4539C150.942 68.7525 150.784 67.807 151.877 67.4386C152.355 67.277 152.839 67.7435 153.438 68.32C154.209 69.062 155.169 69.9871 156.549 69.9871C159.16 69.9871 160.086 68.6785 160.613 67.932C160.879 67.5558 161.044 67.3222 161.273 67.47Z" fill="#121212"/>
<path fill-rule="evenodd" clip-rule="evenodd" d="M165.935 0.312939C157.687 1.78439 151.368 8.03434 150.134 17.2675C150.075 17.7065 150.036 18.1344 150.018 18.5519C148.589 19.0001 144.354 20.3676 144.47 20.7942C144.578 21.1913 148.334 20.2982 150.027 19.8742C150.272 23.9224 152.559 26.8248 156.413 28.6006C157.393 29.0521 158.448 29.4237 159.568 29.7227C155.586 30.977 151.515 33.2717 148.299 36.4247C142.356 42.2506 139.602 50.4673 141.069 60.9093C141.082 61.0035 141.095 61.0977 141.109 61.1919C136.369 59.7316 133.485 61.6696 133.485 66.7934C133.485 71.9336 141.002 74.8223 144.181 72.7325C147.385 81.2188 152.376 89.0638 157.393 93.6053C157.241 93.9338 157.209 94.3192 157.333 94.6901C157.701 95.7953 157.813 96.6295 157.713 97.1614L157.692 97.2589C157.579 97.7268 157.253 98.3954 156.706 99.2303L156.602 99.3874L156.295 99.4835C130.026 107.92 119.973 132.369 126.043 172.27L126.065 172.383L126.177 172.854C129.105 184.987 134.649 192.066 141.555 193.901C141.554 193.934 141.554 193.967 141.555 194.001C142.762 234.869 143.817 267.432 144.72 291.692L145.048 300.307L145.375 308.472C145.837 319.695 146.252 328.324 146.62 334.36L146.855 338.066C147.259 344.128 147.495 345.462 148.36 346.073L148.444 346.13L148.509 346.169C148.695 346.277 148.924 346.373 149.198 346.459C148.876 346.458 148.553 346.458 148.229 346.458L141.84 346.452C133.2 346.427 124.929 346.308 113.949 346.073L86.9404 345.459C78.8571 345.29 74.3104 345.238 69.2435 345.246L65.1456 345.263C53.4932 345.356 44.3336 345.875 36.5782 346.968C17.9326 349.596 6.84685 355.77 1.93567 367.413C-0.570952 373.357 0.636229 378.495 5.23923 382.496C9.19185 385.931 15.6217 388.528 24.3736 390.43L24.8617 390.535C39.834 393.713 61.0916 394.863 88.0494 394.458L89.7067 394.432C102.371 394.214 115.355 393.694 130.985 392.853L146.546 391.971C152.013 391.656 157.645 391.332 159.651 391.225L162.363 391.085C168.123 390.799 171.836 390.692 174.127 390.763L176.697 390.861C213.846 392.221 242.837 390.363 261.488 385.984C269.996 383.987 276.083 381.51 279.487 378.691C283.174 375.638 283.81 371.964 281.077 368.719C272.551 358.596 258.557 352.877 235.947 349.829L234.779 349.673C218.581 347.572 198.979 346.726 165.421 346.514L165.606 346.501C166.44 346.445 167.097 345.768 167.129 344.932L169.557 276.83C169.626 276.832 169.696 276.83 169.769 276.825C172.941 276.606 175.089 274.646 179.002 267.272L179.468 266.386L180 265.354C180.954 263.592 183.488 260.856 185.66 258.51C187.086 256.972 188.356 255.6 188.92 254.784C190.091 255.013 191.791 255.193 194.02 255.323L194.299 255.338L192.53 259.635L192.496 259.727C192.275 260.399 192.633 261.137 193.314 261.371C216.663 269.401 229.356 263.134 232.634 246.26C237.31 222.194 224.655 210.102 195.494 210.41L195.955 195.005C197.747 194.752 199.424 194.031 200.929 192.81C205.186 189.355 207.669 182.194 208.159 171.351C209.823 134.512 199.07 111.319 175.827 102.15L175.036 101.846L174.961 101.637C174.552 100.479 174.278 99.5411 174.139 98.8351L174.109 98.6768C173.963 97.8484 173.963 96.4646 174.126 94.5711C174.147 94.3355 174.11 94.1078 174.028 93.9017C179.754 89.2686 185.342 80.9459 188.07 72.338L188.139 72.3615C188.168 72.3713 188.197 72.3818 188.227 72.3929L189.484 72.8391C190.308 73.1166 190.998 73.2952 191.704 73.3881C195.577 73.8965 197.934 71.3722 197.934 65.5149C197.934 63.3008 196.868 61.769 194.876 61.4196C193.572 61.1913 191.936 61.4936 189.904 62.2853C190.873 49.5533 187.891 40.4461 181.811 34.7543C179.52 32.6102 176.839 31.0392 174.057 30.0244C176.644 29.3321 179.236 28.1616 181.251 26.5585C185.874 22.882 187.332 17.3525 184.68 10.1709L193.696 8.15904L193.769 8.13398C194.071 8.00875 194.147 7.25768 194.147 6.69668C194.147 6.13562 193.687 5.4929 193.339 5.59157L184.114 8.76865C181.148 2.18129 173.67 -1.06685 165.935 0.312939ZM151.866 348.425L152.308 348.426C154.433 348.43 156.507 348.438 158.533 348.452C158.377 350.23 158.34 352.396 158.494 353.981H152.333C152.273 352.713 152.115 350.366 151.866 348.425ZM150.059 348.424C149.918 349.546 149.804 350.812 149.701 351.95C149.62 352.844 149.547 353.658 149.473 354.261C149.423 354.301 149.374 354.345 149.33 354.393C145.885 358.052 142.321 360.434 138.639 361.563L138.039 361.743C134.89 362.663 128.993 364.114 129.11 364.081C126.54 364.814 125.295 365.658 124.858 367.421C124.138 370.323 127.074 371.596 134.691 371.646L135.271 371.647C136.521 371.646 137.625 371.519 140.056 371.134L141.947 370.832C143.853 370.536 144.981 370.409 146.015 370.399L146.462 370.402C147.004 370.416 147.564 370.472 148.79 370.629L150.286 370.823C151.153 370.934 151.764 371.002 152.412 371.056C155.089 371.276 157.134 371.091 158.847 370.27C163.28 368.143 163.819 362.852 160.917 354.844C160.914 354.835 160.911 354.825 160.907 354.816C160.922 354.727 160.93 354.636 160.93 354.542V348.471C197.941 348.797 218.561 350.785 235.51 353.071L236.812 353.251C257.92 356.239 270.836 361.639 278.575 370.827C281.699 374.536 276.064 379.201 260.741 382.799C242.226 387.147 213.108 388.979 175.679 387.549L174.542 387.504C171.863 387.398 167.356 387.542 159.887 387.937L153.02 388.322C150.407 388.472 147.398 388.646 144.554 388.809C140.304 389.054 136.42 389.278 134.767 389.37L130.812 389.586C115.868 390.39 103.352 390.9 91.2299 391.133L89.6505 391.161C62.1352 391.634 40.5165 390.514 25.5415 387.335C8.15414 383.644 -0.115563 377.594 3.64143 368.685C7.97486 358.411 19.2098 351.496 36.5082 348.974L37.0349 348.899C42.2052 348.17 48.0422 348.284 54.8803 348.418C58.2827 348.484 61.933 348.555 65.8719 348.53L69.2474 348.517C74.7265 348.509 111.247 347.978 111.247 347.978C124.033 348.262 133.133 348.398 142.852 348.417L150.059 348.424ZM171.825 95.4949C169.651 96.8755 167.508 97.6594 165.546 97.6594C164.005 97.6594 162.352 97.0953 160.656 96.0753C160.716 96.6615 160.701 97.204 160.607 97.7038C160.406 98.773 159.776 100.667 158.728 102.147C158.698 102.187 158.667 102.226 158.635 102.264C160.039 103.06 162.211 103.887 165.21 103.467C168.513 103.004 170.339 101.83 171.447 100.918C171.275 99.1649 171.497 97.0855 171.825 95.4949ZM171.808 102.672C170.438 104.465 168.126 106.411 165.21 106.411C160.815 106.411 157.929 105.321 156.991 103.007C132.688 110.898 121.979 132.851 127.472 170.662L127.637 171.768L127.725 172.145C131.097 186.146 139.05 192.296 146.881 191.337L147.121 191.305C154.132 190.319 160.967 183.57 162.796 175.878L163.067 174.721C164.432 168.784 165.26 163.536 165.26 159.222L165.256 157.432C165.21 148.036 164.808 141.081 164.303 138.014L164.267 137.805L164.211 137.956C163.997 138.534 163.769 139.242 163.529 140.076L163.456 140.33C162.352 144.248 161.056 150.616 159.582 159.464C158.499 165.967 141.108 174.129 140.847 173.359C140.766 173.118 142.191 172.138 144.217 170.742L144.219 170.741L144.227 170.736C145.016 170.192 145.896 169.586 146.813 168.936C146.781 168.876 146.748 168.812 146.714 168.744C144.152 163.604 142.573 159.094 141.99 155.196C141.413 151.343 142.759 135.835 143.614 135.839L143.721 135.843C144.152 135.873 144.057 137.883 143.917 140.862C143.764 144.109 143.556 148.507 143.917 152.749C144.307 157.355 146.349 161.995 147.768 165.218C148.16 166.108 148.504 166.89 148.753 167.533C152.502 164.752 156.259 161.497 156.678 158.98L157.012 156.998C158.338 149.236 159.519 143.508 160.558 139.763L160.622 139.531C161.192 137.513 161.722 136.072 162.246 135.155C163.069 133.715 164.317 132.965 165.628 134.007C167.084 135.165 167.812 140.148 168.08 149.231C168.303 145.163 168.674 141.87 169.175 139.403C169.595 137.342 170.105 135.85 170.742 134.907C171.647 133.567 173.061 133.11 174.348 134.01L174.434 134.073C177.196 136.188 179.059 146.448 179.168 159.79L179.173 160.906L179.2 161.062C180.887 167.439 184.384 171.156 187.557 173.383C194.031 162.773 190.263 143.118 188.664 134.781C188.204 132.378 187.923 130.915 188.12 130.88C189.009 130.719 189.86 131.309 190.021 132.199C192.067 143.511 193.12 151.875 193.177 157.332C193.235 162.852 192.31 168.671 190.41 174.784C190.383 174.872 190.348 174.956 190.308 175.037C191.276 175.534 192.126 175.893 192.767 176.165C193.594 176.515 194.074 176.718 194.012 176.881C193.721 177.64 181.988 177.64 176.248 161.27C176.228 161.213 176.228 161.131 176.229 161.058V161.032C176.229 154.204 175.761 148.115 174.94 143.47C174.566 141.355 174.128 139.608 173.661 138.325L173.599 138.157C173.39 137.606 173.186 137.176 173.011 136.877L173.003 136.864L172.967 136.936C172.659 137.572 172.343 138.603 172.061 139.99L172.014 140.221C171.872 140.953 171.693 141.764 171.498 142.654C170.657 146.487 169.499 151.761 169.472 158.332L169.47 159.313C169.47 170.775 177.528 184.655 186.688 190.094C196.206 195.745 204.36 190.19 205.217 171.218C206.863 134.787 196.804 110.377 173.386 104.375C172.622 104.179 172.118 103.546 171.808 102.672ZM168.049 162.824C167.715 166.893 166.865 171.495 165.66 176.56C163.561 185.387 155.792 193.06 147.53 194.221C146.103 194.422 144.712 194.434 143.365 194.258C143.448 195.459 143.543 197.191 143.647 199.375C143.942 199.334 144.251 199.373 144.542 199.504C146.698 200.473 158.63 201.812 168.995 202.02L169.765 202.033C182.095 202.218 190.924 200.848 192.582 198.331L192.682 194.972C190.687 194.671 188.602 193.877 186.493 192.625C177.374 187.211 169.435 174.485 168.049 162.824ZM136.43 66.7934C136.174 62.9808 139.262 63.2307 141.541 63.6652C142.027 66.0809 142.702 68.5194 143.528 70.9227L143.412 70.9194C140.88 70.8494 136.693 70.7329 136.43 66.7934ZM189.723 64.2829C189.677 64.7232 189.626 65.1681 189.57 65.617C189.37 67.239 189.04 68.8832 188.6 70.5262C191.55 70.8756 196.489 71.0679 195.567 64.5164C195.207 61.9647 191.919 63.3485 189.723 64.2829ZM165.106 28.6575C166.364 28.5829 167.669 28.6274 168.989 28.7936C172.33 28.7524 177.331 27.2279 179.622 24.5106C188.609 13.8494 176.148 1.77138 166.469 3.3326C159.281 4.49189 152.499 9.53916 151.42 17.6143C150.901 21.493 153.434 27.6702 165.106 28.6575ZM145.882 260.324C147.249 300.422 148.721 343.59 149.385 344.745C149.497 344.947 151.203 344.963 152.556 344.976H152.558H152.565C152.919 344.979 153.25 344.983 153.52 344.989L154.248 345L155.075 345.001C157.078 344.991 159.604 344.897 162.648 344.719L163.917 344.642L168.919 225.43C168.781 222.718 166.28 219.618 164.598 217.535C163.597 216.294 162.886 215.414 163.137 215.189C163.802 214.595 169.002 220.425 169.961 222.487C169.978 222.557 169.999 222.651 170.022 222.765C170.612 221.218 171.443 219.595 172.525 217.908C172.915 217.299 177.863 210.436 174.333 217.512C166.774 232.666 175.336 238.825 190.282 238.879L190.337 238.88H190.343C190.468 238.88 190.559 238.881 190.763 238.855C196.583 238.115 202.898 238.458 207.873 239.106C212.762 239.744 221.214 244.505 211.647 247.193C209.361 247.836 205.688 247.448 201.447 246.526L200.297 246.335L193.561 259.961L194.725 260.212C215.139 266.704 226.978 260.646 229.974 246.215L230.065 245.761C234.338 223.767 225.165 210.154 195.458 211.606L195.419 212.899C195.393 213.802 194.638 214.511 193.735 214.484C192.832 214.456 192.122 213.702 192.15 212.799L192.179 211.819C181.777 212.583 188.589 211.277 192.213 210.694L192.459 202.474C188.175 204.653 180.283 205.466 169.79 205.305L168.93 205.29C158.764 205.087 147.39 203.867 143.8 202.711C144.343 215.157 145.095 237.229 145.882 260.321V260.324ZM197.384 247.845L194.957 253.741C193.274 253.485 192.114 253.188 191.243 252.965C190.955 252.89 190.698 252.825 190.465 252.771C190.148 250.428 190.157 248.729 190.452 247.726C190.709 246.854 191.08 246.363 191.564 246.141C192.608 246.482 193.836 246.853 195.249 247.255L196.312 247.552L197.384 247.845ZM188.253 252.935C188.381 252.851 188.516 252.787 188.656 252.743C188.303 250.857 188.301 247.988 188.596 246.986C188.797 246.304 188.967 245.767 189.197 245.334C188.861 245.219 188.349 244.957 187.719 244.635C184.82 243.151 179.416 240.385 177.036 244.725C173.021 252.049 169.493 275.057 170.519 275.064C171.98 275.073 175.692 269.88 178.136 265.268L178.244 265.062L178.874 263.836C180.792 260.116 183.857 255.819 188.253 252.935ZM199.714 244.887C199.191 244.794 198.673 245.028 198.391 245.461C198.279 245.393 198.156 245.341 198.023 245.308L188.962 243.071L188.763 242.957C181.873 239.063 177.419 239.394 174.31 243.731C173.208 245.269 172.656 247.203 172.391 249.768L172.359 250.092L172.321 250.535C172.285 250.98 172.257 251.439 172.229 252.006L172.118 254.372L172.097 254.731C172.063 255.287 172.029 255.651 171.98 255.992L171.948 256.196L171.848 256.745L171.787 257.028C171.751 257.181 171.709 257.356 171.653 257.574L171.492 258.186L170.51 261.733C170.334 262.542 170.169 263.305 170.014 264.02L171.067 234.48C174.376 238.589 181.409 240.753 191.458 240.128L192.285 240.081C192.674 240.061 193.067 240.04 193.463 240.019L193.475 240.019L193.547 240.015L193.562 240.013C197.938 239.779 202.687 239.523 206.989 240.479C217.717 242.862 213.329 245.052 212.384 245.523L212.328 245.551L212.299 245.566L212.176 245.625C210.665 246.297 207.119 246.161 200.419 245.01L199.714 244.887ZM129.47 366.049L129.827 365.944C129.654 365.997 142.594 364.164 149.52 356.96C150.826 355.601 158.759 356.599 158.759 356.599L158.767 356.619C161.752 361.563 162.184 366.704 158.438 368.22C157.115 368.755 154.882 369.288 152.627 369.102L152.299 369.073L151.837 369.027C151.519 368.993 151.178 368.952 150.777 368.902L148.549 368.615C147.375 368.471 146.858 368.436 146.149 368.436C144.911 368.436 138.962 369.31 138.962 369.31C137.147 369.588 136.223 369.683 135.267 369.685C131.443 369.69 129.035 368.75 127.85 368.268L127.737 368.22C127.631 368.171 127.545 368.125 127.478 368.08L127.404 368.029L127.398 368.051C127.536 367.498 127.999 366.497 129.47 366.049ZM187.356 65.617C187.73 62.5882 187.853 59.7577 187.754 57.1261C183.221 58.9261 178.682 58.5957 174.825 56.3246C171.656 54.4586 168.802 51.4933 166.251 47.4438L166.157 47.294L166.073 47.4569C164.012 51.3689 161.354 54.4932 158.099 56.8147L157.772 57.0437C153.686 59.8552 148.894 61.1102 143.442 60.8118L143.463 60.9093C146.573 74.5953 157.379 95.6821 165.725 96.1872C168.916 96.3809 173.549 91.225 177.844 85.6359C182.481 79.6007 186.505 72.5126 187.356 65.617ZM179.799 36.9037C183.882 40.7261 186.765 46.5657 187.563 54.3722C187.515 54.3872 187.467 54.4056 187.42 54.4265C183.412 56.2239 179.483 56.6845 176.153 54.7235C172.855 52.7816 169.858 48.7354 167.182 43.8674C166.658 42.9128 165.265 42.9795 164.834 43.9799C164.748 44.1782 164.655 44.402 164.552 44.6473C163.37 47.4752 160.993 53.1591 155.837 56.1604C152.083 58.3444 146.544 58.898 143.809 59.1708H143.806L143.802 59.1715C143.558 59.1957 143.336 59.2179 143.14 59.2389C143.039 58.6022 142.962 57.9689 142.909 57.3407C146.033 56.7748 152.601 54.6123 155.241 52.9537C158.591 50.8501 159.616 48.7027 161.321 45.1335C161.634 44.4792 161.969 43.7771 162.346 43.0188C162.671 42.3638 163.442 38.0009 161.614 41.3189C161.503 41.5204 161.385 41.7403 161.259 41.9765L161.258 41.9778L161.258 41.9791C159.356 45.5339 155.492 52.7574 142.833 56.0518C142.587 48.7216 145.549 42.1538 149.882 37.9067C153.928 33.9397 160.048 31.3166 164.697 30.8658C169.589 30.3914 175.503 32.883 179.799 36.9037Z" fill="#121212"/>
</svg>
