<svg width="348" height="185" viewBox="0 0 348 185" fill="none" xmlns="http://www.w3.org/2000/svg">
<path fill-rule="evenodd" clip-rule="evenodd" d="M309.037 127.251C309.037 56.9719 252.065 0 181.786 0C111.508 0 49.1526 57.0917 54.5356 127.251C60.9516 210.871 309.037 194.944 309.037 127.251Z" fill="#D7FF9D"/>
<path d="M81.3315 125.641C81.7475 125.604 82.2907 125.647 82.4089 126.048C82.4126 126.531 81.7999 126.733 81.3197 126.792C78.7336 127.114 76.1468 127.435 73.5607 127.757C74.7631 128.777 74.8824 130.802 73.8654 132.007C72.848 133.212 70.9039 133.459 69.5731 132.614C69.1293 132.332 68.7508 131.949 68.284 131.707C67.8173 131.464 67.2008 131.392 66.7966 131.728C65.8834 132.489 64.5055 132.284 63.4121 131.817C62.3289 131.354 61.2596 130.563 61.0072 129.412C60.7575 128.272 61.3804 127.122 62.1172 126.216C62.8534 125.31 63.7436 124.49 64.1858 123.409C64.8354 121.824 66.7522 121.035 68.4503 121.259C70.1484 121.483 71.6353 122.517 72.8725 123.702C73.6687 124.465 74.9604 124.166 76.0132 123.837C77.0659 123.507 78.3882 123.264 79.1255 124.085" fill="white"/>
<path fill-rule="evenodd" clip-rule="evenodd" d="M230.658 121.19C230.658 109.322 239.43 106.588 244.997 106.728C250.563 106.867 255.872 110.451 257.938 115.449C260.004 120.447 258.716 126.573 254.807 130.405C250.897 134.237 242.643 134.284 240.263 133.562C237.883 132.839 230.658 127.814 230.658 121.19Z" fill="white"/>
<path fill-rule="evenodd" clip-rule="evenodd" d="M244.305 112.985C246.302 112.825 248.355 113.554 249.804 114.937C252.05 117.082 252.63 120.77 251.15 123.5C249.671 126.23 246.265 127.758 243.242 127.047C240.363 126.371 238.057 123.734 237.771 120.791C237.484 117.848 239.238 114.816 241.933 113.597C242.68 113.258 243.487 113.05 244.305 112.985ZM247.772 114.365C247.065 113.845 246.288 113.41 245.447 113.242C244.491 113.051 243.49 113.219 242.592 113.625C240.313 114.657 238.759 117.33 238.908 119.997C239.056 122.663 240.908 125.123 243.298 125.803C245.688 126.483 248.432 125.317 249.736 123.048C251.04 120.78 250.786 117.59 249.128 115.609C248.729 115.133 248.263 114.726 247.772 114.365Z" fill="#00160A"/>
<path fill-rule="evenodd" clip-rule="evenodd" d="M110.64 122.038C110.59 121.265 110.596 120.484 110.733 119.721C110.837 119.143 111.014 118.581 111.192 118.02C111.573 116.813 111.957 115.601 112.48 114.448C115.046 108.792 121.181 104.962 127.39 105.123C133.598 105.284 139.519 109.419 141.824 115.186C144.128 120.953 142.692 128.021 138.331 132.443C133.97 136.865 126.934 138.4 121.122 136.211C115.31 134.021 111.038 128.236 110.64 122.038Z" fill="white"/>
<path fill-rule="evenodd" clip-rule="evenodd" d="M127.294 52.1669C127.326 54.6221 126.699 57.2473 127.834 59.4239C129.939 63.4564 135.847 62.7068 140.193 61.3664C136.621 57.3008 133.049 53.2357 129.477 49.1701C136.877 41.6147 144.276 34.0593 151.676 26.504C152.293 25.8741 153.005 25.201 153.887 25.1839C154.904 25.1641 155.699 26.0142 156.35 26.7954C158.774 29.7029 161.197 32.6099 163.621 35.5174C165.618 37.9127 167.52 41.7922 165.075 43.7288C174.245 43.107 183.416 42.4846 192.586 41.8623C190.869 32.0543 194.024 19.9816 197.139 10.5244C197.45 9.58178 197.825 8.55628 198.687 8.06332C199.29 7.71792 200.02 7.70402 200.716 7.69921C217.458 7.58372 234.201 7.46824 250.943 7.35275C251.957 7.3458 253.027 7.35275 253.903 7.86335C254.655 8.30125 255.162 9.05246 255.637 9.78228C269.801 31.5576 278.644 58.9064 281.187 84.7586C281.505 88.0013 285.661 111.224 281.187 111.912C259.878 115.192 264.054 95.8796 241.548 98.7048C223.057 101.026 226.551 111.912 215.863 114.033C206.263 115.939 173.517 116.412 162.901 116.944C148.34 117.673 147.311 95.6594 125.134 96.5533C102.958 97.4478 103.466 122.628 91.5192 119.745C91.0214 119.625 85.6122 116.479 85.4903 116.102C83.7296 110.662 82.4095 90.7474 82.4095 90.7474L78.2397 89.8208C78.2397 89.8208 77.9333 79.5408 78.2397 79.2125C78.7792 78.6334 88.2326 79.6718 92.3239 79.2125C91.1155 70.8188 89.9066 62.4256 88.6978 54.0318C88.5935 53.3068 88.5031 52.5107 88.8972 51.8932C89.3351 51.2072 90.2146 50.9799 91.0118 50.8131C101.673 48.5857 112.523 47.2571 123.406 46.8454C125.86 46.7523 127.263 49.7117 127.294 52.1669Z" fill="white"/>
<path fill-rule="evenodd" clip-rule="evenodd" d="M105.78 75.066L100.981 75.4082L98.2832 49.4437L102.486 48.7529L105.78 75.066Z" fill="#FFB61D"/>
<path fill-rule="evenodd" clip-rule="evenodd" d="M219.125 25.614C220.424 25.3643 245.358 42.6672 245.099 42.9479C244.841 43.2286 218.61 25.7129 219.125 25.614Z" fill="#E7EAEE"/>
<path fill-rule="evenodd" clip-rule="evenodd" d="M229.817 25.6131C230.825 25.4335 243.604 34.0731 243.249 34.5768C242.894 35.0799 229.173 25.7275 229.817 25.6131Z" fill="#E7EAEE"/>
<path fill-rule="evenodd" clip-rule="evenodd" d="M216.452 30.9608C215.967 30.1042 230.268 39.9998 229.883 39.9245C226.199 39.2043 216.594 31.2121 216.452 30.9608Z" fill="#E7EAEE"/>
<path fill-rule="evenodd" clip-rule="evenodd" d="M214.759 58.8773C215.073 59.1248 214.944 59.6878 214.59 59.8733C214.236 60.0589 213.785 59.9348 213.472 59.6867C212.529 58.9387 212.724 57.3535 213.55 56.4777C214.376 55.6019 215.602 55.2528 216.764 54.9405C217.247 54.8111 217.729 54.6812 218.211 54.5518C219.196 54.2877 220.242 54.023 221.218 54.3155C222.194 54.608 223.007 55.6901 222.629 56.6365C222.39 57.2316 221.76 57.5919 221.129 57.7058C220.498 57.8197 219.85 57.7331 219.211 57.6892C217.955 57.6037 216.687 57.686 215.452 57.9336C215.21 57.9822 214.954 58.0448 214.781 58.2207C214.607 58.3966 214.565 58.7238 214.759 58.8773Z" fill="#00160A"/>
<path fill-rule="evenodd" clip-rule="evenodd" d="M221.087 112.805C220.76 114.156 220.433 115.507 220.106 116.858C220.007 117.27 219.897 117.703 219.607 118.014C219.177 118.475 218.479 118.542 217.849 118.578C198 119.715 178.136 120.585 158.264 121.187C156.92 121.227 155.654 120.461 154.772 119.447C153.891 118.432 153.33 117.185 152.781 115.958C153.65 115.749 154.473 116.439 155.002 117.16C155.531 117.88 155.997 118.73 156.819 119.081C157.36 119.312 157.971 119.284 158.558 119.252C177.856 118.216 197.154 117.18 216.452 116.144C217.147 116.106 217.902 116.045 218.419 115.579C218.951 115.099 219.078 114.328 219.389 113.683C219.701 113.037 220.465 112.448 221.087 112.805Z" fill="#00160A"/>
<path fill-rule="evenodd" clip-rule="evenodd" d="M72.6057 124.345C71.6674 123.343 70.4815 122.574 69.1828 122.127C68.3017 121.824 67.2917 121.679 66.464 122.108C65.6364 122.536 65.175 123.72 65.7567 124.448C66.063 124.832 65.3717 125.195 64.8926 125.3C63.4608 125.614 62.3802 127.201 62.7861 128.61C63.1919 130.018 65.1621 130.753 66.2988 129.827C66.71 129.491 66.9859 129.002 67.4318 128.715C67.8777 128.426 68.6289 128.487 68.7663 129C69.055 130.081 70.041 130.94 71.1515 131.079C71.8765 131.169 72.7346 130.873 72.9592 130.178C73.3575 128.946 71.5407 127.67 72.1593 126.533C72.471 125.959 73.226 125.835 73.8761 125.777C76.3612 125.553 78.8464 125.33 81.3315 125.106C81.7475 125.069 82.2907 125.112 82.4083 125.513C82.4126 125.996 81.7999 126.197 81.3197 126.257C78.7336 126.579 76.1468 126.9 73.5607 127.222C74.7631 128.242 74.8824 130.267 73.8654 131.472C72.848 132.677 70.9039 132.924 69.5731 132.079C69.1293 131.796 68.7508 131.414 68.284 131.171C67.8173 130.929 67.2008 130.856 66.7966 131.193C65.8834 131.954 64.5055 131.749 63.4121 131.282C62.3289 130.818 61.2596 130.028 61.0072 128.877C60.7575 127.737 61.3804 126.587 62.1172 125.681C62.8534 124.775 63.7436 123.954 64.1858 122.874C64.8354 121.289 66.7522 120.5 68.4503 120.724C70.1484 120.948 71.6353 121.982 72.8725 123.167C73.6687 123.93 74.9604 123.63 76.0132 123.302C77.0659 122.972 78.3882 122.729 79.1255 123.55C77.6076 123.894 76.0896 124.239 74.5712 124.584C73.8959 124.737 73.0795 124.851 72.6057 124.345Z" fill="#E7EAEE"/>
<path fill-rule="evenodd" clip-rule="evenodd" d="M102.999 122.874C102.926 121.734 102.934 120.583 103.136 119.459C103.289 118.607 103.55 117.778 103.812 116.952C104.375 115.172 104.939 113.387 105.711 111.686C109.494 103.351 118.535 97.7054 127.686 97.9428C136.836 98.1807 145.564 104.275 148.96 112.775C152.357 121.275 150.24 131.692 143.813 138.209C137.386 144.726 127.014 146.989 118.448 143.762C109.882 140.536 103.586 132.009 102.999 122.874ZM107.799 114.347C107.393 115.429 107.075 116.563 107.077 117.718C107.08 121.26 107.359 124.855 108.562 128.187C111.09 135.191 117.903 140.434 125.318 141.111C132.733 141.789 140.371 137.88 144.182 131.484C147.995 125.088 147.805 116.528 143.738 110.291C139.67 104.055 131.931 100.433 124.533 101.277C117.135 102.121 110.42 107.378 107.799 114.347Z" fill="#00160A"/>
<path fill-rule="evenodd" clip-rule="evenodd" d="M252.599 101.258C260.356 104.518 265.755 112.726 265.678 121.14C265.6 129.554 260.05 137.662 252.235 140.778C244.419 143.895 234.813 141.831 228.967 135.78C223.121 129.729 221.39 120.058 224.774 112.354C225.574 110.533 226.658 108.793 228.196 107.531C231.684 104.672 235.294 101.751 239.608 100.436C243.843 99.1458 248.518 99.542 252.599 101.258ZM234.556 105.33C233.537 105.981 232.575 106.741 231.821 107.687C231.025 108.687 230.486 109.863 229.956 111.027C229.16 112.77 228.36 114.524 227.864 116.375C226.158 122.736 228.465 129.985 233.512 134.217C238.558 138.449 246.074 139.463 252.077 136.754C258.08 134.045 262.286 127.76 262.537 121.178C262.788 114.597 259.093 108.026 253.356 104.79C247.619 101.554 240.105 101.783 234.556 105.33Z" fill="#00160A"/>
<path fill-rule="evenodd" clip-rule="evenodd" d="M245.742 14.9003C232.289 15.1864 218.835 15.473 205.382 15.7596C205.046 15.7665 204.674 15.7884 204.438 16.028C204.286 16.183 204.221 16.4011 204.164 16.6102C201.181 27.4907 203.598 39.0186 205.625 50.1167C206.888 57.0364 207.996 63.9838 208.947 70.9532C209.632 75.9716 210.236 81.0183 210.194 86.0837C210.181 87.6941 211.312 89.1495 212.722 89.9274C214.132 90.7054 215.782 90.9155 217.391 90.9936C220.78 91.1582 224.194 90.7979 227.473 89.9296C228.084 89.7676 228.717 89.5869 229.338 89.7029C229.959 89.8194 230.557 90.3413 230.519 90.9716C230.476 91.7009 229.686 92.1201 228.998 92.365C224.668 93.9059 219.914 94.2369 215.412 93.3113C213.252 92.8676 211 92.0292 209.762 90.2044C209.057 89.1666 208.757 87.9144 208.483 86.69C205.725 74.3735 204.348 61.7949 203.003 49.2452C201.782 37.8397 200.581 26.3454 201.606 14.9207C201.637 14.5678 201.676 14.2005 201.863 13.8994C202.265 13.2541 203.152 13.1664 203.912 13.1477C218.143 12.7986 232.374 12.4489 246.604 12.0992C247.411 12.0794 248.278 12.0768 248.945 12.5328C249.435 12.8697 249.742 13.4092 250.032 13.9294C255.191 23.1909 260.35 32.4529 265.509 41.7144C266.541 43.5676 267.607 45.6961 266.965 47.7177C266.489 49.2169 265.131 50.3044 263.656 50.8524C262.182 51.4004 260.583 51.4897 259.012 51.5737C256.192 51.7239 253.373 51.8747 250.553 52.0249C243.587 52.3965 236.622 52.7686 229.656 53.1402C229.257 53.1616 228.81 53.167 228.514 52.897C228.083 52.5029 228.27 51.7335 228.73 51.3737C229.19 51.0139 229.808 50.9513 230.391 50.9021C240.902 50.0156 251.414 49.1292 261.925 48.2427C262.749 48.1732 263.321 47.3081 263.358 46.482C263.395 45.6565 263.037 44.8695 262.685 44.1215C258.131 34.444 253.2 24.9435 247.907 15.6494C247.509 14.9506 246.546 14.8832 245.742 14.9003Z" fill="#00160A"/>
<path fill-rule="evenodd" clip-rule="evenodd" d="M118.867 107.833C123.569 105.231 129.685 105.536 134.212 108.431C138.738 111.327 141.558 116.639 141.617 122.012C141.678 127.485 138.711 133.092 133.755 135.414C132.027 136.224 130.123 136.627 128.216 136.701C121.268 136.972 114.316 132.403 112.089 125.816C109.863 119.229 112.783 111.2 118.867 107.833ZM129.599 134.347C131.425 134.042 133.2 133.391 134.753 132.383C136.346 131.35 137.696 129.946 138.666 128.315C141.19 124.069 140.867 118.366 138.065 114.297C135.264 110.228 130.195 107.907 125.265 108.208C123.427 108.321 121.602 108.773 119.959 109.604C114.289 112.473 111.685 120.044 114.084 125.929C116.483 131.813 123.33 135.392 129.599 134.347Z" fill="#00160A"/>
<path fill-rule="evenodd" clip-rule="evenodd" d="M168.046 98.3665C167.228 97.6393 165.921 97.6762 165.123 96.9266C165.348 96.1134 166.098 95.5793 166.626 94.9206C167.871 93.3636 167.74 90.878 166.338 89.46C165.629 88.743 164.6 88.1939 164.412 87.2026C165.878 86.9508 167.36 86.4782 168.464 85.481C169.568 84.4844 170.208 82.8681 169.723 81.4619C169.574 81.0299 169.325 80.6177 169.319 80.1611C169.313 79.704 169.71 79.1987 170.15 79.3238C172.502 79.9948 175.251 78.4304 175.876 76.0661C176.144 75.0502 177.639 75.1502 178.578 75.6228C179.516 76.0955 180.711 76.6932 181.509 76.0094C182.183 75.4298 182.307 74.0851 183.197 74.1017C183.657 74.1103 183.983 74.53 184.304 74.8599C185.411 75.9982 187.254 76.343 188.698 75.6827C189.203 75.4517 189.67 75.108 190.219 75.0197C190.767 74.9315 191.443 75.24 191.478 75.7945C191.585 77.4712 193.417 78.8105 195.047 78.4026C195.669 78.247 196.725 78.2812 196.514 78.8864C195.871 80.7353 197.247 83.0002 199.184 83.2819C199.677 83.3536 200.201 83.3194 200.647 83.5413C201.093 83.7631 201.389 84.3962 201.053 84.7646C199.612 86.3466 200.22 89.2814 202.172 90.1599C202.698 90.3967 202.574 91.2175 202.176 91.635C201.778 92.0526 201.204 92.306 200.912 92.8038C200.406 93.6694 201.009 94.773 201.745 95.4542C202.481 96.1359 203.406 96.708 203.751 97.65C202.365 97.1207 200.649 97.6655 199.821 98.8969C198.994 100.128 199.139 101.923 200.153 103.006C199.618 103.968 198.188 103.585 197.09 103.682C195.756 103.799 194.588 104.955 194.456 106.288C194.398 106.868 194.512 107.476 194.306 108.022C194.099 108.566 193.346 108.96 192.933 108.548C191.4 107.016 188.468 107.324 187.287 109.142C187.006 109.573 186.73 110.125 186.217 110.172C185.41 110.245 185.152 109.079 184.495 108.604C183.681 108.016 182.524 108.683 181.952 109.508C181.379 110.334 181.022 111.365 180.178 111.912C178.578 110.737 179.063 107.409 177.095 107.137C176.246 107.019 175.498 107.65 174.693 107.947C173.889 108.244 172.649 107.847 172.799 107.003C173.045 105.621 172.837 103.78 171.48 103.422C170.142 103.068 168.429 104.461 167.505 103.429C168.506 101.865 169.434 99.6 168.046 98.3665ZM168.938 89.7648C168.324 90.878 168.435 92.2285 168.321 93.4946C168.206 94.7607 167.674 96.1904 166.459 96.5636C167.833 96.6614 169.118 97.5714 169.666 98.8349C170.215 100.099 170.002 101.659 169.134 102.729C170.26 101.886 171.977 102.132 172.999 103.098C174.021 104.065 174.387 105.59 174.179 106.981C175.337 106.153 176.97 106.049 178.225 106.721C179.48 107.394 180.295 108.812 180.247 110.235C180.593 108.973 181.585 107.869 182.851 107.537C184.117 107.205 185.601 107.745 186.239 108.888C186.297 108.027 187.11 107.417 187.91 107.09C189.623 106.39 191.63 106.451 193.297 107.254C193.094 104.566 195.905 102.099 198.543 102.65C197.718 101.788 197.764 100.386 198.223 99.2851C198.801 97.8965 200.155 96.6871 201.651 96.8464C200.782 96.5288 200.081 95.7851 199.815 94.8997C199.368 93.4139 200.182 91.7564 201.447 90.8598C199.85 90.524 199.335 88.5372 199.137 86.9166C199.034 86.0718 199.084 84.9656 199.89 84.694C198.227 84.2235 196.724 83.1996 195.677 81.8228C195.193 81.1861 194.847 80.1803 195.462 79.6687C194.186 79.6024 192.927 79.2196 191.831 78.5646C190.996 78.0657 190.174 77.152 190.491 76.2329C188.258 77.3364 185.444 77.1611 183.365 75.7891C182.737 76.7777 181.505 77.2568 180.333 77.2525C179.162 77.2482 178.033 76.8312 176.961 76.3601C177.088 77.1349 176.565 77.8636 175.998 78.4069C174.557 79.789 172.62 80.6418 170.627 80.7711C171.514 83.8193 169.151 87.3764 165.998 87.7421C166.76 88.6746 167.805 89.3574 168.938 89.7648Z" fill="#00160A"/>
<path fill-rule="evenodd" clip-rule="evenodd" d="M246.418 133.441C244.421 133.713 242.362 133.519 240.451 132.878C234.393 130.847 230.433 123.918 231.758 117.667C233.081 111.416 239.511 106.688 245.873 107.288C252.234 107.888 257.668 113.733 257.801 120.121C257.934 126.51 252.749 132.577 246.418 133.441ZM250.99 130.741C255.247 128.158 257.583 122.756 256.551 117.885C255.518 113.014 251.192 109.025 246.253 108.39C241.315 107.755 236.12 110.521 233.889 114.973C231.659 119.424 232.553 125.241 236.018 128.817C239.798 132.719 246.345 133.56 250.99 130.741Z" fill="#00160A"/>
<path fill-rule="evenodd" clip-rule="evenodd" d="M184.223 77.4589C189.655 77.3969 194.993 80.63 197.454 85.4719C199.914 90.3144 199.379 96.5321 196.127 100.883C192.875 105.233 187.063 107.507 181.722 106.517C177.005 105.643 172.818 102.297 170.926 97.8874C169.034 93.4786 169.494 88.1378 172.111 84.1166C174.729 80.0959 179.426 77.5134 184.223 77.4589ZM198.081 91.2228C197.945 89.0596 197.284 86.931 196.172 85.0709C192.779 79.3997 184.916 76.9167 178.882 79.612C172.848 82.3067 169.449 89.8188 171.409 96.1305C173.368 102.442 180.423 106.709 186.922 105.513C193.422 104.317 198.496 97.8185 198.081 91.2228Z" fill="#00160A"/>
<path fill-rule="evenodd" clip-rule="evenodd" d="M191.822 92.1495C190.796 93.3477 189.155 93.9888 187.589 93.8038C187.048 93.7396 186.212 93.8749 186.357 94.4004C188.209 95.0511 190.06 95.7018 191.911 96.3525C192.936 96.7129 193.23 98.1864 192.62 99.0857C192.01 99.985 190.804 100.321 189.725 100.189C188.646 100.056 187.659 99.537 186.699 99.0274C185.732 98.5131 184.764 97.9993 183.796 97.4855C185.102 96.969 186.518 97.7614 187.755 98.4249C188.993 99.0879 190.636 99.606 191.697 98.6869C191.857 98.5479 192 98.3693 192.028 98.1586C192.097 97.655 191.537 97.3197 191.066 97.1283C189.579 96.5231 188.092 95.9184 186.605 95.3131C185.854 95.0073 184.97 95.2725 184.326 95.7655C183.682 96.2584 183.225 96.9487 182.758 97.6117C181.77 99.0146 180.581 100.424 178.933 100.902C177.285 101.379 175.145 100.447 174.976 98.7398C174.869 97.6667 175.543 96.6626 176.341 95.9371C177.139 95.2115 178.088 94.6555 178.819 93.862C178.911 93.7621 179.004 93.6487 179.015 93.5129C179.039 93.2301 178.721 93.0558 178.454 92.9579C177.019 92.4281 175.583 91.8982 174.148 91.3684C173.526 91.139 173.913 90.067 174.57 89.9873C175.227 89.9076 175.803 90.383 176.328 90.7856C177.713 91.849 179.634 92.5938 181.182 91.7833C182.284 91.2058 182.919 89.852 182.658 88.6341C182.302 86.975 182.925 85.1427 184.218 84.044C185.511 82.9452 187.42 82.6271 189 83.2462C187.794 83.8135 187.244 85.4603 187.867 86.6392C188.489 87.8176 190.16 88.2903 191.308 87.6134C191.729 87.3653 192.289 86.9991 192.628 87.3509C192.722 87.4482 192.767 87.5824 192.804 87.7134C193.228 89.2324 192.847 90.9519 191.822 92.1495ZM184.076 87.5305C184.072 89.3457 185.09 91.2144 186.773 91.8923C188.457 92.5697 190.69 91.7309 191.239 90.0007C191.361 89.6157 191.152 88.9966 190.784 89.1634C189.781 89.6173 188.597 89.0923 187.75 88.3887C187.198 87.9299 186.697 87.3685 186.487 86.6825C186.276 85.9966 186.414 85.1689 186.964 84.7075C186.101 84.5145 185.14 84.8754 184.618 85.5886C184.214 86.1404 184.077 86.8472 184.076 87.5305ZM176.761 98.9681C178.952 101.135 180.256 98.2966 180.787 97.6876C182.016 96.275 183.319 94.9271 184.69 93.6508C184.959 93.4001 184.969 92.9595 184.813 92.6259C184.656 92.2928 184.37 92.042 184.091 91.8014C183.676 91.4432 183.009 91.5459 182.577 91.8827C182.144 92.219 174.57 96.8022 176.761 98.9681Z" fill="#FFB61D"/>
<path fill-rule="evenodd" clip-rule="evenodd" d="M126.143 114.054C128.14 113.894 130.193 114.623 131.642 116.007C133.888 118.151 134.468 121.839 132.988 124.569C131.509 127.299 128.102 128.827 125.08 128.117C122.201 127.44 119.895 124.803 119.609 121.86C119.322 118.917 121.076 115.885 123.771 114.666C124.518 114.328 125.325 114.12 126.143 114.054ZM129.61 116.302C128.903 115.822 128.125 115.42 127.285 115.264C126.329 115.087 125.327 115.243 124.43 115.618C122.151 116.573 120.597 119.047 120.745 121.514C120.894 123.981 122.746 126.258 125.136 126.887C127.526 127.516 130.269 126.437 131.574 124.337C132.878 122.238 132.624 119.287 130.966 117.454C130.567 117.013 130.101 116.637 129.61 116.302Z" fill="#00160A"/>
<path fill-rule="evenodd" clip-rule="evenodd" d="M127.292 48.9589C127.325 51.4141 126.697 54.0393 127.833 56.2159C129.937 60.2484 135.845 59.4988 140.191 58.1584C136.619 54.0928 133.047 50.0277 129.476 45.9621C136.875 38.4067 144.275 30.8513 151.674 23.296C152.291 22.6661 153.004 21.993 153.885 21.9759C154.902 21.9561 155.697 22.8062 156.348 23.5874C158.772 26.4949 161.196 29.4019 163.619 32.3094C165.617 34.7047 167.518 38.5842 165.074 40.5208C174.244 39.899 183.414 39.2766 192.584 38.6543C190.867 28.8463 194.023 18.9122 197.138 9.45506C197.448 8.51244 197.824 7.48694 198.685 6.99398C199.288 6.64859 200.018 6.63468 200.714 6.62987C217.457 6.51438 234.199 6.3989 250.942 6.28341C251.955 6.27646 253.025 6.28341 253.902 6.79402C254.653 7.23191 255.16 7.98312 255.635 8.71294C269.799 30.4883 278.642 55.6984 281.185 81.5506C281.504 84.7933 281.853 88.3366 284.142 90.6554C287.626 94.1858 288.001 100.338 284.971 104.265C287.2 105.883 286.649 109.616 284.609 111.464C282.568 113.312 279.669 113.785 276.944 114.178C273.328 114.699 269.394 115.165 266.233 113.333C271.41 112.12 276.594 110.935 281.785 109.779C279.483 94.6168 277.18 79.4541 274.878 64.2915C274.118 59.2913 273.355 54.2735 271.94 49.4182C270.416 44.1902 268.154 39.2119 265.899 34.2545C262.348 26.4468 258.797 18.639 255.246 10.8313C254.859 9.9801 254.44 9.08935 253.677 8.54933C252.753 7.89597 251.534 7.89757 250.402 7.9243C234.641 8.29964 218.879 8.67444 203.117 9.04977C202.209 9.0717 201.229 9.11714 200.516 9.68015C199.928 10.1426 199.63 10.8735 199.373 11.5755C193.167 28.5346 196.802 47.3212 200.503 64.9968C201.183 68.2438 196.772 69.9029 193.468 70.1926C155.736 73.5001 118.005 76.8081 80.2739 80.1161C79.8109 83.1075 79.6804 86.1503 79.8852 89.1707C82.3965 89.3915 84.9073 89.6117 87.4187 89.8326C86.622 90.1464 85.8259 90.4597 85.0292 90.773C86.514 98.5765 87.3347 106.506 87.4796 114.448C87.524 116.865 89.6188 118.854 91.9264 119.574C94.2341 120.295 96.7186 120.027 99.1204 119.752C96.5641 120.822 93.8999 121.913 91.1314 121.777C88.3634 121.641 85.465 119.896 84.9538 117.172C83.352 108.629 82.4291 99.9597 82.1976 91.2719C80.7428 91.3072 79.288 91.3425 77.8332 91.3783C77.3413 87.7426 77.1429 84.0672 77.2413 80.4C77.2627 79.6108 77.3268 78.7484 77.8652 78.1715C78.4052 77.593 79.2618 77.4705 80.0483 77.3823C84.1395 76.923 88.2308 76.4638 92.3221 76.0045C91.1137 67.6108 89.9049 59.2176 88.696 50.8238C88.5917 50.0988 88.5019 49.3027 88.8954 48.6852C89.3333 47.9992 90.2128 47.7719 91.01 47.6051C101.671 45.3777 112.521 44.0491 123.404 43.6374C125.858 43.5443 127.261 46.5037 127.292 48.9589ZM93.8662 75.157C93.8929 75.395 93.9341 75.6585 94.1218 75.8077C94.3041 75.9526 94.5618 75.9376 94.7938 75.9157C105.499 74.8988 116.204 73.8824 126.909 72.866C127.204 72.8382 127.541 72.7863 127.702 72.5372C127.829 72.3415 127.803 72.0886 127.772 71.8576C126.678 63.6441 125.584 55.43 124.49 47.2164C124.46 46.9908 124.423 46.7502 124.271 46.5812C124.065 46.3545 123.723 46.331 123.418 46.3246C112.84 46.0931 102.235 47.1704 91.92 49.5251C91.6393 49.5887 91.3319 49.6716 91.1715 49.9111C91.0207 50.1352 91.0458 50.4287 91.0763 50.6971C92.0061 58.8502 92.9359 67.0039 93.8662 75.157ZM193.463 42.3205C193.417 41.9398 193.338 41.5046 193.007 41.3105C192.796 41.187 192.535 41.1971 192.291 41.211C182.76 41.7489 173.23 42.2868 163.699 42.8252C163.489 42.837 163.263 42.8551 163.104 42.9931C162.872 43.1947 162.885 43.5518 162.918 43.8566C163.79 52.0856 164.662 60.3141 165.535 68.5427C165.562 68.802 165.6 69.0827 165.784 69.2666C166.021 69.5029 166.402 69.4885 166.736 69.458C176.625 68.5518 186.514 67.645 196.402 66.7382C195.423 58.5989 194.443 50.4597 193.463 42.3205ZM142.268 56.1844C142.406 56.3111 142.558 56.4432 142.745 56.4651C143.008 56.4961 143.239 56.2999 143.431 56.117C149.874 49.994 157.386 44.9404 163.828 38.8174C164.118 38.5415 164.431 38.2142 164.418 37.8143C164.409 37.5464 164.251 37.3085 164.099 37.0877C161.531 33.3509 157.733 28.6565 154.852 25.1555C154.569 24.8117 154.203 24.4348 153.762 24.4909C153.48 24.5268 153.254 24.7342 153.05 24.931C145.934 31.787 138.817 38.643 131.701 45.4991C131.542 45.6514 131.372 45.8306 131.375 46.0508C131.378 46.2711 131.554 46.446 131.717 46.5941C135.234 49.7908 138.751 52.9876 142.268 56.1844ZM162.861 59.5506C162.806 59.1978 162.728 58.8064 162.436 58.6C162.177 58.4172 161.831 58.4396 161.515 58.4695C151.664 59.4074 141.813 60.3452 131.961 61.2835C131.446 61.3322 130.843 61.4402 130.619 61.9064C130.495 62.163 130.526 62.4635 130.559 62.7463C130.892 65.5592 131.224 68.3727 131.557 71.1855C131.604 71.5823 131.679 72.0282 132.009 72.2533C132.273 72.4329 132.62 72.4126 132.939 72.3848C143.127 71.501 153.316 70.6177 163.504 69.7339C163.758 69.712 164.041 69.6751 164.201 69.4762C164.365 69.2719 164.333 68.9779 164.292 68.7186C163.816 65.6624 163.338 62.6068 162.861 59.5506ZM160.814 44.8596C160.79 44.6885 160.711 44.4693 160.539 44.4827C160.466 44.4885 160.406 44.5388 160.351 44.5864C155.283 49.014 150.216 53.4415 145.148 57.8691C150.417 57.4275 155.682 56.9249 160.94 56.3624C161.391 56.3138 161.913 56.2202 162.129 55.8208C162.27 55.5599 162.234 55.2428 162.193 54.9488C161.734 51.5857 161.274 48.2227 160.814 44.8596ZM283.11 92.2664C283.596 95.0675 284.081 97.8686 284.567 100.67C284.615 100.948 284.714 101.282 284.99 101.343C285.437 101.441 285.592 100.768 285.531 100.314C285.203 97.89 284.874 95.4663 284.545 93.0422C284.487 92.6086 284.401 92.1273 284.05 91.8648C283.7 91.6028 283.036 91.8349 283.11 92.2664Z" fill="#00160A"/>
<path fill-rule="evenodd" clip-rule="evenodd" d="M42.1237 147.798C32.7617 147.946 0.566822 150.332 0.0106618 149.137C-0.700819 147.608 34.4074 145.599 42.0601 145.478L44.4576 145.446C51.4157 145.37 42.1237 147.798 42.1237 147.798ZM113.63 144.873C115.903 144.873 117.683 145.609 116.153 146.146C114.622 146.684 109.669 147.815 101.375 148.006C93.0823 148.197 83.4695 148.394 69.2645 148.673C68.4411 148.69 67.7599 148.035 67.7439 147.211C67.7279 146.388 68.3823 145.707 69.2057 145.691L94.3591 145.178C101.995 145.013 106.775 144.873 113.63 144.873ZM227.248 143.999C228.072 143.986 228.75 144.644 228.763 145.467C228.776 146.291 228.119 146.97 227.295 146.982L223.8 147.025L213.105 147.099C210.953 147.121 123.876 147.677 122.696 146.401C121.515 145.124 123.327 144.893 124.151 144.873C124.151 144.873 213.076 144.113 215.402 144.096L224.295 144.037C225.329 144.027 226.265 144.015 227.248 143.999ZM323.922 141.13C323.922 141.13 326.6 140.667 346.153 142.131C346.975 142.193 347.591 142.909 347.529 143.73C347.468 144.552 337.799 144.137 324.58 144.114L320.945 144.12C311.239 144.163 302.223 144.425 287.258 145.041L268.37 145.839C260.31 146.169 255.501 146.33 249.654 146.468C248.83 146.487 248.147 145.835 248.127 145.012C248.108 144.188 248.76 143.505 249.583 143.486L254.279 143.363C259.865 143.201 265.605 142.977 275.782 142.542L286.573 142.084C303.446 141.386 312.829 141.13 323.922 141.13Z" fill="#00160A"/>
</svg>
