<svg width="377" height="286" viewBox="0 0 377 286" fill="none" xmlns="http://www.w3.org/2000/svg">
<path fill-rule="evenodd" clip-rule="evenodd" d="M20.1556 256.673C50.3071 289.444 166.904 270.619 243.679 270.619C276.799 270.619 387.948 287.194 342.05 173.365C191.559 -199.861 -75.38 152.837 20.1556 256.673Z" fill="#D7FF9D"/>
<path fill-rule="evenodd" clip-rule="evenodd" d="M292.461 1.73619C300.324 9.87678 306.53 19.6116 310.592 30.1759C310.871 30.9014 311.142 31.7075 310.876 32.4376C308.826 38.0618 304.871 42.7498 300.992 47.3085L293.559 56.0479C291.193 58.829 288.827 61.6101 286.381 64.3212C273.929 78.1239 259.216 90.1938 242.175 97.6196C241.533 97.9003 240.843 98.1797 240.15 98.0677C239.457 97.9557 238.809 97.2836 238.99 96.6055C241.097 88.7289 243.216 80.4937 241.527 72.5171C241.119 70.5928 240.664 68.1704 242.253 67.0129C255.123 57.6395 264.389 44.2414 273.269 31.0254C275.502 27.7022 277.729 24.3697 279.705 20.8878C283.214 14.7055 285.916 8.06584 287.721 1.19078C287.969 0.246632 289.159 -0.178104 290.103 0.0692672C291.047 0.316639 291.783 1.03475 292.461 1.73619ZM286.959 11.8458C286.16 11.515 285.423 12.4092 285.016 13.172C284.575 13.9981 284.135 14.8255 283.694 15.653C275.548 30.9574 267.277 46.4971 254.862 58.5516C253.689 59.6905 252.378 61.066 252.594 62.6869C253.288 67.8824 250.514 73.3686 245.92 75.8903C243.835 77.0358 243.86 79.9902 244.165 82.3499C244.288 83.2947 244.644 84.4789 245.594 84.559C248.378 84.7937 251.049 86.1645 252.864 88.2889C253.436 88.959 254.521 88.5402 255.268 88.0708C274.048 76.2623 288.478 58.8197 302.567 41.6823C303.053 41.0909 303.57 40.3461 303.317 39.624C301.185 33.5498 301.526 26.646 304.248 20.8118C302.642 17.616 300.729 14.5755 298.542 11.7451C294.903 13.3246 290.624 13.362 286.959 11.8458ZM242.413 94.5005C243.154 94.8885 244.05 94.5198 244.792 94.1324C246.74 93.1156 248.616 91.9614 250.402 90.6812C250.874 90.3425 251.014 89.6671 250.848 89.111C250.68 88.5549 250.263 88.1062 249.8 87.7548C248.356 86.6586 246.338 86.3706 244.644 87.0187C244.332 87.1387 244.021 87.2947 243.806 87.5508C243.553 87.8515 243.46 88.2509 243.38 88.6349C242.97 90.5746 242.648 92.5322 242.413 94.5005ZM295.153 7.80113C293.877 5.30541 291.909 3.16841 289.527 1.69152C288.699 2.42163 288.537 3.5318 288.373 4.66331V4.66398C288.261 5.4401 288.147 6.22688 287.814 6.90832C287.706 7.13036 287.573 7.34239 287.441 7.55442C287.19 7.95715 286.939 8.35854 286.859 8.82195C286.736 9.52806 287.333 10.4135 288.011 10.1802C288.562 9.99013 289.139 10.1122 289.722 10.2355C290.029 10.3002 290.338 10.3655 290.645 10.3855C292.433 10.5009 293.917 9.09933 295.153 7.80113ZM305.267 22.7581C303.9 25.4778 304.116 28.6897 304.365 31.7235L304.722 36.0748C304.761 36.5529 305.021 37.199 305.482 37.0663C305.768 36.2648 306.314 35.6034 306.86 34.9406C307.339 34.3612 307.818 33.7798 308.126 33.1024C309.17 30.8073 308.012 28.1629 306.87 25.9152L305.267 22.7581ZM244.074 71.0475C244.132 71.899 245.015 72.5358 245.868 72.5118C246.72 72.4878 247.488 71.9363 247.986 71.2442C248.484 70.5515 248.757 69.7273 249.024 68.9165L249.902 66.2408C250.147 65.4947 250.162 64.3538 249.382 64.2665C249.1 64.2345 248.832 64.3839 248.601 64.5479C247.726 65.17 247.09 66.0628 246.47 66.9389L244.781 69.3246C244.415 69.842 244.032 70.4154 244.074 71.0475ZM42.6831 63.9051C36.7512 53.0421 32.964 41.0122 31.6034 28.709C31.5194 27.9522 30.6854 27.4622 29.9247 27.4888C29.1641 27.5148 28.4741 27.9169 27.8268 28.3183C18.6443 34.0125 10.8278 41.8937 5.2093 51.1245C4.64065 52.0586 4.08 53.0508 4.008 54.1423C3.93734 55.2131 4.34666 56.2526 4.76798 57.2394C10.9658 71.763 21.3016 84.0815 31.7934 95.8814C39.8738 104.97 48.5243 114.17 59.792 118.745C61.6127 119.484 64.2579 119.785 65.0299 117.977C65.2546 117.451 65.2426 116.86 65.2313 116.288L65.2306 116.266C65.1066 110.138 65.8026 103.994 67.2952 98.0497C67.6399 96.6742 67.8199 94.8192 66.5332 94.2231C61.6953 91.9808 58.3801 87.4594 55.2795 83.1201C50.8236 76.8851 46.3564 70.6315 42.6831 63.9051ZM53.1555 111.391C52.4889 111.568 51.8236 111.148 51.2669 110.74C41.0125 103.226 33.0653 93.0549 25.2575 83.0207L11.4785 65.3133C13.8038 63.8318 14.0991 60.6126 14.1498 57.8548C14.2158 54.2703 14.2638 50.5804 12.9691 47.2372C12.6818 46.4944 13.0565 45.671 13.4578 44.9822C15.1777 42.0297 17.5637 39.4673 20.3863 37.5417C20.6596 37.355 20.9489 37.1703 21.2763 37.1236C22.1409 37.0016 22.8042 37.8424 23.2662 38.5832C25.0902 41.509 27.5975 44.8182 31.0367 44.5775C32.346 44.4854 33.0727 46.0283 33.4546 47.2845C38.2052 62.9056 47.125 76.9951 57.5854 89.5304C58.9447 91.1593 59.2854 93.3583 59.6234 95.5366C60 97.9663 60.3734 100.371 62.15 101.932C63.6673 103.267 63.386 105.662 62.976 107.64C62.8926 108.045 62.7926 108.478 62.4853 108.754C62.2573 108.959 61.9487 109.045 61.652 109.124L53.1555 111.391ZM28.8448 40.9589C26.9635 39.644 25.3382 37.9644 24.0869 36.0401C23.8162 35.6241 23.5536 35.1573 23.6009 34.6633C23.6522 34.1259 24.0569 33.6958 24.4589 33.3357C25.4522 32.4469 26.5748 31.7028 27.7801 31.1341C28.2214 30.9254 28.7914 30.7567 29.1581 31.0787C29.3741 31.2681 29.4427 31.5715 29.4987 31.8535L31.236 40.5448C31.3387 41.0583 30.8 41.521 30.2767 41.5363C29.7527 41.551 29.2741 41.2589 28.8448 40.9589ZM11.6498 57.7695C11.6132 59.4044 11.4885 61.2394 10.2632 62.3222C10.0072 62.3522 9.83653 62.0708 9.73653 61.8335C8.85388 59.7438 7.95924 57.6035 7.81991 55.3398C7.68125 53.0754 8.4399 50.6237 10.2899 49.3115C10.5398 49.1335 10.9072 48.9868 11.1278 49.2002C11.2165 49.2855 11.2545 49.4095 11.2872 49.5289C11.7898 51.3772 11.7505 53.3235 11.7072 55.2378L11.6498 57.7695ZM61.5693 112.148C61.866 112.391 61.898 112.826 61.906 113.21L61.994 117.412C60.2707 116.457 58.6194 115.37 57.0594 114.166C56.7641 113.938 56.4388 113.568 56.6201 113.241C56.7101 113.079 56.8968 113.001 57.0701 112.937C58.1854 112.526 59.3387 112.217 60.51 112.017C60.872 111.955 61.2847 111.915 61.5693 112.148ZM61.6687 95.596C61.6527 95.4059 61.6527 95.1993 61.7653 95.0459C62.0633 94.6412 62.7086 95.0079 62.982 95.4293C63.6393 96.4448 63.7846 97.775 63.362 98.9085C62.396 98.0804 61.774 96.8635 61.6687 95.596ZM318.381 63.6891C320.098 61.5254 323.23 61.214 325.991 61.2814C326.637 61.2967 327.301 61.328 327.888 61.5961C329.522 62.3409 329.868 64.4759 329.924 66.2708C329.974 67.9037 329.965 69.5586 329.568 71.1436C329.171 72.7285 328.35 74.2554 327.037 75.2282C326.447 75.6656 325.763 75.9843 325.039 76.1056C323.919 76.293 322.774 76.0056 321.711 75.6096C320.293 75.0822 318.949 74.3574 317.729 73.4632C317.133 73.0265 316.518 72.4551 316.499 71.7163C316.455 70.0127 316.645 68.3038 317.064 66.6515C317.331 65.596 317.703 64.5419 318.381 63.6891ZM322.835 74.4647C325.041 75.0982 327.387 73.3919 328.223 71.2542C329.058 69.1172 328.749 66.7162 328.289 64.4678C328.113 63.6044 327.191 63.1223 326.341 62.8916C325.024 62.5342 323.625 62.4869 322.287 62.7543C321.623 62.887 320.944 63.115 320.478 63.6064C320.223 63.8744 320.048 64.2058 319.875 64.5319L318.583 66.9742C318.356 67.4043 318.127 67.8377 317.993 68.3044C317.594 69.702 318.122 71.2542 319.097 72.3311C320.073 73.4086 321.438 74.064 322.835 74.4647ZM293.316 99.1612C295.339 99.8666 297.172 101.108 298.578 102.724C299.786 104.114 300.707 105.917 300.453 107.741C300.36 108.411 300.113 109.049 299.831 109.663C298.765 111.991 296.929 114.222 294.409 114.672C293.088 114.908 291.725 114.625 290.453 114.192C288.983 113.692 287.581 112.991 286.299 112.113C285.62 111.648 284.945 111.095 284.647 110.327C284.442 109.798 284.435 109.215 284.443 108.647C284.462 107.242 284.555 105.814 285.044 104.498C285.664 102.832 286.875 101.458 288.161 100.231C288.677 99.7373 289.225 99.2512 289.889 98.9865C290.975 98.5538 292.212 98.7758 293.316 99.1612ZM295.384 111.402C296.845 109.956 297.696 107.859 297.465 105.815C297.233 103.771 295.85 101.854 293.916 101.156C293.112 100.866 292.221 100.785 291.397 101.013C290.953 101.136 290.536 101.346 290.147 101.593C288.482 102.652 287.313 104.458 287.029 106.411C286.746 108.364 287.352 110.429 288.647 111.918C289.475 112.872 290.829 113.281 292.082 113.122C293.335 112.964 294.485 112.291 295.384 111.402ZM110.796 87.114C110.728 86.1505 109.44 85.8985 108.474 85.9265C103.406 86.0759 98.3445 86.4552 93.3113 87.0647C92.484 87.1647 92.4173 88.4976 93.0806 89.0016C93.7446 89.5051 94.6686 89.4117 95.4932 89.2937L110.796 87.114ZM94.5939 93.6297C94.6379 93.1336 95.2612 92.9542 95.7559 92.8982L125.607 89.5171C126.147 89.4557 126.723 89.4004 127.208 89.6437C127.694 89.8864 128.007 90.5519 127.69 90.9933C127.456 91.318 127.008 91.384 126.609 91.4227L96.0765 94.3865C95.4419 94.4478 94.5379 94.2651 94.5939 93.6297ZM161.516 98.6591C159.846 99.0259 158.132 98.4231 156.53 97.8243C151.351 95.8887 146.192 93.899 141.054 91.8567C138.98 91.0319 136.704 92.2668 134.839 93.4923C129.44 97.0395 124.243 100.892 119.279 105.026C118.005 106.088 116.043 105.343 114.757 104.294C114.485 104.073 114.217 103.836 113.949 103.599C112.947 102.713 111.933 101.817 110.638 101.633C108.646 101.35 106.895 102.86 105.452 104.261L96.1472 113.299C94.8959 114.515 93.5786 116.461 94.6926 117.804C95.4272 118.69 96.7765 118.645 97.9198 118.513C103.889 117.821 109.828 116.85 115.766 115.88C125.58 114.277 135.388 112.675 145.314 112.331C147.513 112.255 149.714 112.241 151.915 112.227C153.293 112.218 154.672 112.209 156.05 112.185C162.265 112.077 168.474 111.658 174.648 110.931C174.947 110.896 175.287 110.834 175.441 110.576C175.558 110.382 175.529 110.136 175.496 109.912L172.881 92.1161C172.748 91.212 172.516 90.1671 171.69 89.7764C170.855 89.3817 169.872 89.8904 169.187 90.5099C168.115 91.478 167.289 92.7649 166.474 94.0337C165.138 96.1154 163.831 98.1497 161.516 98.6591ZM119.051 108.396C124.636 103.803 130.459 99.5006 136.49 95.5113C137.728 94.6925 139.233 93.8537 140.617 94.3911L155.239 100.075C157.68 101.023 160.349 101.984 162.854 101.224C165.767 100.339 167.508 97.4409 168.975 94.7738C169.26 94.2544 170.09 94.3145 170.501 94.7405C170.911 95.1673 171.015 95.794 171.1 96.3801L172.17 103.801C172.335 104.941 172.496 106.123 172.167 107.226C171.837 108.329 170.87 109.331 169.719 109.309C150.897 108.946 132.038 110.498 113.528 113.935C112.957 114.041 112.387 114.148 111.816 114.256H111.814L111.814 114.257H111.813H111.812L111.811 114.258H111.81H111.809H111.808C107.386 115.093 102.948 115.931 98.4538 115.946C100.624 112.872 103.374 110.261 106.104 107.672C107.603 106.25 109.478 104.717 111.49 105.182C112.577 105.434 113.411 106.214 114.24 106.992C114.506 107.24 114.771 107.489 115.045 107.721C116.171 108.671 117.913 109.331 119.051 108.396ZM360.529 160.163C360.03 160.349 359.472 160.222 358.964 160.062C355.523 158.98 352.727 156.559 349.98 154.181C349.608 153.859 349.237 153.538 348.865 153.22C344.313 149.337 339.373 145.908 334.142 143.003C333.61 142.707 333.052 142.397 332.726 141.882C332.4 141.368 332.41 140.585 332.913 140.242C335.258 138.64 336.78 135.892 336.891 133.054C336.921 132.297 337.776 131.793 338.53 131.854C339.284 131.914 339.942 132.368 340.559 132.806L364.459 149.774C364.924 150.104 365.426 150.488 365.54 151.047C365.632 151.503 365.442 151.965 365.249 152.389C364.218 154.664 363.033 156.869 361.704 158.983C361.402 159.462 361.059 159.965 360.529 160.163ZM336.618 140.033C336.337 140.529 336.094 141.246 336.549 141.588L356.053 156.276C357.121 157.08 358.78 157.834 359.621 156.794C360.587 155.601 361.489 154.356 362.322 153.066C362.55 152.713 362.782 152.309 362.7 151.897C362.626 151.521 362.309 151.249 362.012 151.007C354.854 145.202 347.275 139.917 339.356 135.205L336.618 140.033ZM326.912 149.015C327.227 148.475 327.609 147.883 328.22 147.751C328.688 147.649 329.163 147.849 329.594 148.059C331.942 149.199 334.093 150.745 335.923 152.607C336.363 153.056 336.418 153.777 336.222 154.374C336.026 154.971 335.622 155.473 335.226 155.961C334.59 156.745 333.912 157.561 332.973 157.933C331.96 158.334 330.781 158.141 329.821 157.624C328.862 157.107 328.092 156.299 327.413 155.446C326.528 154.334 325.735 152.999 325.873 151.585C325.963 150.657 326.443 149.82 326.912 149.015ZM331.019 155.243C332.496 155.817 333.441 155.362 333.48 154.393C333.504 153.782 332.971 153.311 332.486 152.937L331.019 151.809C330.534 151.436 330 151.045 329.389 151.049C328.777 151.053 328.154 151.684 328.405 152.242C328.367 152.512 329.543 154.668 331.019 155.243ZM325.19 167.168C325.55 167.366 325.932 167.558 326.342 167.567C326.753 167.576 327.198 167.343 327.299 166.945C327.535 166.011 328.154 165.236 328.759 164.477C328.825 164.395 328.891 164.312 328.956 164.229C329.618 163.39 330.258 162.44 330.276 161.371C330.294 160.301 329.409 159.162 328.349 159.308C327.515 159.423 326.739 158.876 326.133 158.29C326.036 158.197 325.94 158.102 325.844 158.006C325.337 157.5 324.821 156.985 324.148 156.766C323.347 156.505 322.256 156.92 322.193 157.76C322.065 159.452 320.659 160.726 319.355 161.812C318.964 162.136 319.317 162.76 319.682 163.112C321.326 164.702 323.184 166.07 325.19 167.168ZM325.45 163.945L322.881 162.206C322.228 161.764 322.281 160.682 322.863 160.15C323.445 159.618 324.351 159.577 325.093 159.844C325.835 160.11 326.453 160.632 327.053 161.144C327.449 161.483 327.505 162.1 327.323 162.59C327.141 163.079 326.771 163.471 326.411 163.848C326.287 163.978 326.149 164.115 325.972 164.138C325.784 164.162 325.607 164.051 325.45 163.945ZM345.815 164.059L347.071 161.389C347.455 160.572 347.828 159.561 347.309 158.822C347.129 158.565 346.863 158.384 346.603 158.209L342.033 155.128C341.54 154.796 341.006 154.451 340.412 154.461C339.708 154.472 339.117 154.974 338.617 155.471C337.868 156.213 337.168 157.005 336.522 157.84C336.031 158.474 335.628 159.519 336.299 159.96L343.292 164.549C343.844 164.911 344.544 165.283 345.123 164.967C345.464 164.783 345.649 164.409 345.815 164.059ZM344.265 162.169C343.972 162.237 343.665 162.162 343.376 162.075C341.611 161.543 339.995 160.524 338.754 159.16C338.341 158.707 338.574 157.906 339.099 157.588C339.624 157.27 340.306 157.343 340.871 157.58C341.236 157.734 341.57 157.948 341.905 158.162C342.088 158.278 342.272 158.396 342.46 158.504C342.664 158.619 342.875 158.725 343.087 158.831C343.688 159.132 344.289 159.434 344.699 159.955C345.253 160.661 345.139 161.968 344.265 162.169ZM346.627 165.151C347.433 164.959 347.679 164.137 347.935 163.283C348.146 162.577 348.365 161.849 348.911 161.436C349.851 160.725 351.183 161.319 352.195 161.922L355.417 163.839C355.93 164.144 356.455 164.46 356.824 164.931C357.192 165.401 357.373 166.068 357.115 166.606C356.943 166.966 356.619 167.205 356.291 167.445C356.023 167.642 355.753 167.84 355.564 168.108C355.322 168.451 355.232 168.881 355.143 169.306C355.031 169.839 354.921 170.365 354.514 170.7C353.773 171.311 352.67 170.822 351.85 170.32L347.311 167.546C346.854 167.267 346.371 166.96 346.146 166.472C345.921 165.985 346.105 165.275 346.627 165.151ZM352.577 167.905C353.226 167.683 353.749 167.201 354.25 166.732C354.613 166.392 354.127 165.832 353.693 165.587L350.913 164.022C350.623 163.859 350.219 163.71 349.995 163.955C349.271 164.745 349.165 166.036 349.752 166.933C350.338 167.83 351.562 168.251 352.577 167.905ZM320.675 167.808C320.053 167.632 319.419 167.454 318.911 167.106C318.121 166.568 317.022 166.699 316.193 167.175C315.365 167.65 314.747 168.414 314.149 169.159C313.818 169.573 313.476 170.004 313.35 170.519C313.223 171.034 313.374 171.658 313.838 171.916L318.686 174.619C319.053 174.824 319.463 175.036 319.873 174.945C320.282 174.854 320.564 174.491 320.81 174.153L322.057 172.436C322.752 171.48 323.477 170.262 322.97 169.195C322.563 168.341 321.632 168.078 320.675 167.808ZM319.14 172.255C318.887 172.322 318.626 172.2 318.392 172.08L315.089 170.4C315.724 169.5 316.932 169.155 318.027 169.264C319.123 169.373 320.139 169.86 321.13 170.34L319.612 171.916C319.476 172.058 319.33 172.204 319.14 172.255ZM296.257 105.023C296.768 105.803 296.608 106.845 296.269 107.714C295.821 108.859 295.065 109.92 293.998 110.529C292.931 111.138 291.528 111.227 290.488 110.572C289.447 109.918 288.925 108.462 289.483 107.366C289.612 107.113 289.787 106.888 289.963 106.664C290.132 106.449 290.3 106.234 290.427 105.994C290.511 105.836 290.577 105.668 290.642 105.5C290.736 105.258 290.83 105.017 290.979 104.806C291.508 104.056 292.551 103.909 293.469 103.922C294.51 103.937 295.685 104.152 296.257 105.023ZM293.933 105.518C292.508 105.5 291.172 106.695 291.031 108.113C290.973 108.692 291.219 109.412 291.796 109.492C292.228 109.551 292.607 109.218 292.897 108.892C293.512 108.203 294.039 107.438 294.465 106.618C294.607 106.343 294.733 105.99 294.545 105.744C294.409 105.564 294.158 105.521 293.933 105.518ZM327.999 68.3631C327.889 67.0589 327.016 65.7761 325.749 65.4487C324.139 65.0339 322.578 66.1674 321.3 67.2309C320.922 67.5457 320.527 67.8837 320.367 68.3491C320.095 69.1386 320.584 69.97 321.065 70.6515C321.617 71.4323 322.206 72.217 323.01 72.7331C323.815 73.2492 324.887 73.4499 325.731 73.0012C326.161 72.7725 326.496 72.3991 326.787 72.0084C327.569 70.9582 328.108 69.6673 327.999 68.3631ZM324.428 71.7076C323.882 71.789 323.316 71.5689 322.915 71.1909C322.313 70.6241 322.074 69.7127 322.285 68.9132C322.506 68.0718 323.212 67.3763 324.057 67.1689C324.903 66.9609 325.851 67.2496 326.437 67.8931C326.415 68.0684 326.397 68.2451 326.378 68.4218C326.316 69.0219 326.253 69.6227 326.046 70.1854C325.777 70.9148 325.197 71.5923 324.428 71.7076ZM281.094 275.181C284.062 264.678 289.666 255.146 295.213 245.746C296.15 244.158 297.312 242.408 299.132 242.107C299.849 241.988 300.228 241.208 300.472 240.523C303.48 232.084 303.77 222.698 301.289 214.089C300.581 211.631 301.452 209.026 302.315 206.619L308.996 187.98C308.301 186.778 306.987 186.25 305.656 185.715C304.543 185.268 303.417 184.816 302.632 183.96C300.415 181.543 302.088 177.699 303.825 174.916L334.274 126.145C335.517 124.153 338.246 123.528 340.533 124.059C342.82 124.59 344.773 126.029 346.654 127.435L368.862 144.025C372.834 146.993 377.22 150.784 376.991 155.738C376.865 158.48 375.296 160.917 373.779 163.203L356.179 189.728C353.903 193.158 353.627 197.328 353.35 201.517C353.225 203.412 353.099 205.31 352.788 207.146C351.271 216.101 345.307 223.518 339.594 230.623L339.238 231.067C339.129 231.202 339.02 231.338 338.912 231.472C332.999 238.838 327.083 247.063 326.751 256.503C326.355 267.754 321.011 278.743 312.405 286L319.893 267.831C321.674 263.509 323.323 258.134 320.343 254.534C318.995 252.905 316.957 252.043 315 251.241L303.37 246.468C302.568 246.139 301.742 245.804 300.875 245.799C298.173 245.783 296.566 248.714 295.471 251.184C291.681 259.729 286.84 267.809 281.094 275.181ZM319.335 250.506C321.329 251.244 324.137 251.693 325.081 249.787C329.655 240.566 334.354 231.168 341.634 223.893C345.829 219.7 348.401 214.104 349.857 208.353C351.312 202.601 351.724 196.645 352.13 190.726C350.363 191.369 350.21 193.754 350.217 195.634C350.234 199.779 349.509 203.926 348.088 207.82C347.791 208.635 347.391 209.516 346.595 209.86C345.799 210.203 344.625 209.513 344.893 208.687C346.947 202.354 347.713 195.605 347.129 188.972C346.949 186.915 346.566 184.715 345.104 183.258C345.263 186.505 345.421 189.767 345.092 193.001C344.523 198.597 342.517 203.933 340.528 209.194C340.27 209.878 339.958 210.622 339.302 210.943C338.646 211.264 337.628 210.756 337.8 210.046L340.778 197.734C342.415 190.965 344.025 183.684 341.49 177.197C340.214 177.111 339.913 178.937 340.027 180.211C340.808 188.941 338.395 197.605 336.006 206.038C335.727 207.023 334.74 208.253 333.973 207.577C333.642 207.285 333.627 206.781 333.654 206.341C333.804 203.861 334.484 201.46 335.163 199.062C335.374 198.318 335.584 197.574 335.779 196.828C337.574 189.951 338.032 182.727 337.12 175.678C335.547 177.695 334.88 180.252 334.25 182.731L330.512 197.445C328.823 204.097 326.664 211.409 320.805 214.982C320.339 215.267 319.798 215.532 319.266 215.405C318.605 215.248 318.231 214.566 317.955 213.945C314.216 205.522 313.749 195.695 316.672 186.955C316.849 186.425 316.31 185.871 315.753 185.827C315.195 185.783 314.673 186.086 314.216 186.409C309.42 189.794 307.582 195.926 306.056 201.596L304.028 209.135C303.731 210.236 303.433 211.347 303.372 212.486C303.277 214.216 303.729 215.91 304.179 217.594C304.283 217.984 304.387 218.374 304.484 218.764C306.436 226.596 305.554 235.104 302.038 242.369C301.52 243.44 302.888 244.415 304.004 244.828L319.335 250.506ZM326.913 178.555C326.113 178.004 325.256 177.375 325.009 176.436C324.629 174.995 326.001 173.548 327.478 173.354C328.954 173.161 330.399 173.873 331.623 174.722C333.346 175.918 335.528 174.095 336.819 172.441C335.078 171.398 333.417 169.781 333.348 167.754C333.28 165.725 335.745 163.794 337.386 164.987C338.022 165.451 338.793 165.734 339.554 166.014C340.696 166.434 341.818 166.847 342.444 167.846C343.156 168.983 342.902 170.52 342.178 171.649C341.453 172.778 340.338 173.588 339.248 174.371C340.812 174.526 342.334 175.084 343.627 175.975L345.037 171.866C345.146 171.548 345.265 171.214 345.515 170.99C345.999 170.556 346.751 170.69 347.369 170.886C348.993 171.402 350.585 172.206 351.656 173.53C352.727 174.854 353.174 176.778 352.425 178.307C351.677 179.838 349.564 180.653 348.132 179.731C347.835 179.54 347.537 179.284 347.238 179.028C346.44 178.344 345.642 177.66 344.872 178.207C347.224 180.04 348.839 182.791 349.293 185.739C356.698 174.457 364.024 163.123 371.269 151.739C371.961 150.652 372.519 148.939 371.392 148.314C366.58 145.644 362.328 142.068 358.085 138.501C352.729 133.999 347.39 129.51 340.964 126.873C340.556 126.706 340.11 126.545 339.684 126.657C339.236 126.775 338.922 127.164 338.641 127.53C326.675 143.152 315.934 159.715 306.552 177.013C305.244 179.427 306.996 182.303 308.671 184.478C309.508 185.565 311.125 186.713 312.038 185.689C313.189 184.399 315.076 183.662 316.705 184.238C318.335 184.814 319.349 186.933 318.463 188.418C317.822 189.491 319.077 190.685 320.173 191.285C322.365 192.486 324.612 193.583 326.906 194.572C327.225 194.71 327.596 194.845 327.907 194.689C328.202 194.541 328.322 194.189 328.415 193.871L330.956 185.125C331.374 183.687 331.653 181.821 330.42 180.971L326.913 178.555ZM372.373 154.039C372.035 153.923 371.728 154.261 371.529 154.558L352.501 183.045C351.989 183.812 351.465 184.609 351.315 185.519C351.167 186.428 351.501 187.485 352.328 187.89C353.699 188.561 355.132 187.152 356.011 185.905L373.691 160.844C375.003 158.983 373.892 156.439 372.769 154.458C372.671 154.288 372.559 154.103 372.373 154.039ZM318.8 192.081C318.465 191.837 317.964 191.982 317.683 192.287C317.403 192.592 317.289 193.01 317.183 193.411C316.923 194.397 316.661 195.393 316.623 196.413C316.584 197.432 316.769 198.446 316.954 199.449L318.776 209.356C318.853 209.77 318.942 210.212 319.237 210.514C319.531 210.817 320.105 210.883 320.343 210.534C323.04 206.589 325.775 202.567 327.186 198.001C327.361 197.434 327.412 196.636 326.856 196.426C323.992 195.349 321.274 193.882 318.8 192.081ZM339.842 167.638C338.929 166.768 337.722 166.212 336.467 166.084C335.323 165.967 334.663 167.574 335.185 168.599C335.708 169.624 336.861 170.131 337.928 170.56C338.682 170.862 339.596 171.146 340.252 170.67C341.196 169.984 340.687 168.443 339.842 167.638ZM332.33 179.118C332.702 178.853 332.751 178.311 332.647 177.866C332.254 176.189 330.416 175.332 328.765 174.842C328.127 174.652 327.333 174.519 326.883 175.01C326.507 175.42 326.587 176.1 326.911 176.552C327.235 177.004 327.743 177.283 328.232 177.546L330.781 178.919C331.266 179.18 331.882 179.437 332.33 179.118ZM346.835 173.074C346.295 173.797 346.351 174.848 346.801 175.63C347.251 176.411 348.031 176.954 348.854 177.323C349.136 177.451 349.446 177.562 349.749 177.501C350.01 177.449 350.233 177.273 350.393 177.061C350.981 176.274 350.695 175.088 350.021 174.373C349.346 173.658 348.386 173.3 347.462 172.965C347.303 172.907 347.117 172.851 346.971 172.939C346.958 172.947 346.945 172.956 346.933 172.966C346.896 172.997 346.865 173.035 346.835 173.074ZM91.17 238.595C91.5226 235.986 92.0173 233.115 94.0666 231.462C95.7012 230.145 97.9445 229.935 100.043 229.894C106.918 229.762 113.815 230.879 120.297 233.173C122.347 233.899 124.493 234.855 125.615 236.72C126.828 238.738 126.533 241.284 126.197 243.615L120.991 279.788C124.581 269.313 127.158 258.49 128.674 247.52C129.382 242.403 129.629 236.53 126.058 232.797C120.483 226.97 120.635 218.67 120.79 210.23C120.923 202.947 121.059 195.559 117.516 189.568C116.36 187.613 118.937 185.595 121.081 184.844C130.527 181.537 140.597 180.018 150.599 180.395C152.433 194.883 152.929 209.54 152.079 224.118C151.888 227.388 156.524 228.231 159.779 227.87L272.685 215.348C273.25 215.286 273.861 215.202 274.261 214.798C274.729 214.328 274.752 213.588 274.745 212.924C274.479 186.466 273.718 160.013 272.462 133.583C272.413 132.551 272.282 131.367 271.428 130.786C270.788 130.351 269.946 130.408 269.175 130.483L188.587 138.297C193.882 113.323 199.206 87.8808 196.791 62.4662C179.174 74.214 156.442 74.126 135.304 72.8818C134.426 72.8305 133.546 72.7778 132.664 72.7251C112.322 71.5089 91.11 70.2414 72.8231 79.0421C82.3982 104.433 92.0826 132.149 84.1235 158.093C83.4195 160.388 82.5815 162.642 81.7442 164.896C80.4529 168.371 79.1629 171.843 78.365 175.458C77.0496 181.417 77.247 188.088 80.7729 193.069C85.8788 200.281 89.936 208.481 90.862 217.269C91.74 225.609 89.7774 233.879 87.8174 242.141C85.7694 250.773 83.7242 259.395 84.9235 268.074C85.1268 269.542 85.4928 271.122 86.6428 272.058L91.17 238.595ZM99.1578 133.798C101.293 133.873 102.142 136.554 102.414 138.674L104.576 155.456C100.356 153.268 94.4179 156.982 94.5392 161.736C90.982 154.87 90.442 147.001 89.9073 139.211C89.7907 137.517 89.6747 135.826 89.528 134.15C87.9574 116.229 82.5575 98.8952 77.191 81.7252C76.4257 79.2768 79.7309 77.6892 82.2682 77.3165C98.9211 74.8748 115.775 75.2122 132.636 75.5496C140.28 75.7023 147.924 75.8549 155.552 75.7496C169.106 75.5616 183.448 74.278 194.443 66.3481C196.914 82.8253 193.555 99.4492 190.239 115.864C189.79 118.085 189.342 120.301 188.91 122.513C185.28 141.077 182.809 160.864 189.754 178.457C190.047 179.199 189.049 179.758 188.269 179.921C182.557 181.113 176.651 181.369 170.856 180.678C168.371 180.381 165.912 179.912 163.452 179.443C161.599 179.09 159.746 178.736 157.882 178.457C143.847 176.35 129.198 178.537 116.389 184.649C115.876 184.894 115.265 184.779 114.728 184.593C112.134 183.695 110.284 181.298 109.36 178.712C108.437 176.126 108.305 173.336 108.182 170.593L107.665 159.089C107.646 158.676 107.754 158.115 108.168 158.102C130.606 157.401 153.018 155.888 175.346 153.567C174.402 148.283 174.309 142.848 175.07 137.535C175.551 134.181 172.397 131.123 169.039 130.674C165.681 130.225 162.36 131.746 159.572 133.671C158.529 134.391 157.527 135.173 156.526 135.955C154.852 137.262 153.179 138.569 151.315 139.582C150.096 140.244 148.629 140.779 147.349 140.244C145.782 139.589 145.257 137.724 144.787 136.06C144.758 135.955 144.729 135.852 144.699 135.749C144.088 133.605 143.079 131.472 141.304 130.123C139.53 128.775 136.852 128.44 135.1 129.817C133.602 130.995 133.128 133.036 132.877 134.925C132.855 135.093 132.833 135.261 132.812 135.431C132.589 137.168 132.359 138.963 131.322 140.356C130.185 141.885 127.646 142.541 126.399 141.1C123.931 138.251 119.601 137.654 115.968 138.654C112.334 139.653 109.226 141.962 106.211 144.224C104.392 141.378 104.242 137.545 105.832 134.565L105.858 134.515C106.158 133.956 106.501 133.313 106.236 132.743C106.073 132.39 105.712 132.174 105.354 132.02C103.216 131.103 100.485 131.887 99.1578 133.798ZM163.404 181.903C164.599 182.142 166.068 182.675 166.142 183.892C166.847 195.497 176.069 205.927 187.406 208.495C198.744 211.064 211.31 205.87 217.92 196.306C224.531 186.742 225.049 173.455 219.628 163.17C213.814 152.139 199.687 146.281 187.775 149.962C187.222 147.525 187.284 144.95 187.954 142.543C188.079 142.095 188.241 141.628 188.602 141.336C188.954 141.051 189.431 140.986 189.881 140.932L223.435 136.89C226.385 136.534 229.343 136.178 232.313 136.154C245.09 136.049 257.857 134.774 270.403 132.352C272.352 158.534 273.27 184.792 273.152 211.045C273.147 212.29 272.768 213.946 271.523 213.982C250.406 214.597 229.455 217.375 208.495 220.155C194.414 222.022 180.329 223.89 166.186 225.103C163.034 225.373 159.861 225.611 156.711 225.31C156.14 225.256 155.497 225.139 155.187 224.657C154.999 224.366 154.979 224.002 154.963 223.656L153.08 181.665C153.055 181.122 153.089 180.468 153.558 180.196C153.869 180.015 154.259 180.08 154.612 180.15L163.404 181.903ZM105.629 172.182C105.295 174.363 104.92 176.817 106.348 178.467C111.677 184.622 117.213 191.197 118.629 199.215C119.29 202.959 119.006 206.812 118.723 210.65C118.367 215.484 118.012 220.293 119.551 224.828C119.591 224.946 119.633 225.065 119.675 225.183C119.957 225.991 120.245 226.816 120.154 227.66C120.049 228.628 119.209 229.602 118.249 229.437L107.11 227.515C103.42 226.878 99.5231 226.259 96.0185 227.576C95.3412 227.831 94.5612 227.384 94.1986 226.758C93.8353 226.132 93.7879 225.378 93.7559 224.655C93.7179 223.782 93.6899 222.902 93.6613 222.021C93.4813 216.474 93.2979 210.824 90.7307 205.964L82.5415 190.458C81.3322 188.169 80.0949 185.778 80.0116 183.19C79.9556 181.463 80.4222 179.765 80.8849 178.099L84.9701 163.38C85.8301 160.281 86.7401 157.083 88.7774 154.595C93.7259 162.992 94.2139 173.855 90.0387 182.663C89.6527 183.478 90.8327 184.316 91.674 183.992C92.5146 183.667 92.9419 182.745 93.2386 181.894C94.4259 178.483 94.8426 174.888 95.2592 171.286C95.5972 168.373 95.9345 165.456 96.6819 162.631C97.1392 160.9 97.7998 159.134 99.1358 157.942C100.472 156.751 102.651 156.343 104.051 157.458C105.122 158.312 105.471 159.771 105.675 161.125C106.212 164.699 106.21 168.355 105.668 171.928C105.655 172.012 105.642 172.096 105.629 172.182ZM124.85 143.123C126.492 144.38 128.1 145.61 130.07 145.382C132.574 145.093 134.135 142.515 134.862 140.1C135.022 139.572 135.163 139.031 135.305 138.489C135.812 136.555 136.322 134.605 137.649 133.15C138.034 132.727 138.59 132.334 139.138 132.5C139.581 132.634 139.84 133.083 140.046 133.498C140.338 134.087 140.614 134.685 140.89 135.284C141.669 136.973 142.449 138.662 143.581 140.129C145.114 142.116 147.5 143.679 149.995 143.406C152.225 143.161 153.969 141.582 155.667 140.042C156.015 139.725 156.362 139.411 156.71 139.111C160.802 135.582 166.132 133.517 171.533 133.368C170.804 135.189 171.29 137.176 171.767 139.125C171.881 139.594 171.995 140.061 172.092 140.524C172.855 144.169 172.469 148.047 171.004 151.471L134.929 154.249C126.507 154.898 118.064 155.547 109.623 155.25C109.09 155.23 108.543 155.205 108.052 154.995C107.126 154.599 106.575 153.61 106.376 152.621C105.928 150.406 106.95 148.099 108.497 146.451C110.044 144.804 112.064 143.694 114.047 142.612C116.112 141.486 118.404 140.322 120.706 140.803C122.238 141.123 123.555 142.13 124.85 143.123ZM193.162 195.682C187.697 195.569 182.962 191.11 181.339 185.889C181.008 184.823 181.697 183.654 182.647 183.068C183.598 182.483 184.748 182.345 185.857 182.22L193.864 181.321C191.43 176.586 189.695 171.492 188.735 166.256C188.648 165.781 188.569 165.281 188.719 164.823C188.982 164.017 189.851 163.592 190.654 163.322C197.161 161.135 204.973 163.79 208.799 169.49C212.625 175.19 212.123 183.428 207.633 188.62C205.689 190.868 203.141 192.527 200.457 193.804C198.169 194.892 195.696 195.734 193.162 195.682ZM219.096 167.543C220.069 170.755 220.35 174.133 220.484 177.487C218.3 177.156 216.094 176.968 213.886 176.925C213.454 171.285 209.701 166.19 204.767 163.425C199.833 160.661 193.877 160.063 188.302 161.01C188.254 160.215 188.109 159.385 187.964 158.556C187.582 156.367 187.2 154.178 188.615 152.623C189.47 151.685 190.772 151.309 192.02 151.077C197.704 150.018 203.765 151.127 208.706 154.132C213.647 157.137 217.421 162.008 219.096 167.543ZM179.014 185.32C179.005 185.424 178.997 185.527 178.992 185.624C178.955 186.403 179.318 187.118 179.677 187.826C179.774 188.016 179.87 188.205 179.958 188.394C180.375 189.292 180.577 190.474 179.88 191.177C178.195 192.878 176.707 194.773 175.453 196.812C175.143 197.316 174.379 197.358 173.869 197.057C173.359 196.756 173.043 196.219 172.749 195.706C170.885 192.456 168.974 189.056 168.742 185.316C168.713 184.85 168.764 184.288 169.176 184.071C169.358 183.976 169.572 183.973 169.777 183.972L178.114 183.947C178.313 183.946 178.523 183.948 178.695 184.046C179.105 184.279 179.058 184.819 179.014 185.32Z" fill="#00160A"/>
</svg>
